<svg width="76" height="48" viewBox="0 0 76 48" fill="none" xmlns="http://www.w3.org/2000/svg">
<path fill-rule="evenodd" clip-rule="evenodd" d="M30.7419 14.7022H39.6956V33.1344H49.9004C51.8184 33.1344 52.8657 31.7304 52.3386 29.9023C51.2845 26.2455 46.8473 24.8064 42.5925 24.8064C42.5925 21.6264 42.5925 14.7196 42.5925 14.7196L61.2918 6.72754V16.4368L52.88 19.8049C56.6866 21.9534 59.6025 24.5435 60.5169 27.5747C61.6859 31.6588 61.0172 36.6894 57.5638 39.9682C54.8822 42.5143 52.4897 42.2493 49.9004 42.4269L30.7416 42.4455V42.4269H30.696L30.7419 14.7022Z" fill="#F01436"/>
<path fill-rule="evenodd" clip-rule="evenodd" d="M17.4191 14.7021V30.9512C17.4191 32.0866 16.558 33.0191 15.4571 33.1239L10.8114 14.7024H2.89404L7.60306 33.0032H7.56915L7.59473 33.1347H4.19095L5.97628 42.4325L9.44669 42.4349L9.44877 42.446L15.6466 42.4403L15.648 42.4382C21.5534 42.3969 26.3291 37.5673 26.3291 31.6126V14.7021H17.4191Z" fill="#F01436"/>
<path fill-rule="evenodd" clip-rule="evenodd" d="M74.7042 42.4458H65.7466V16.05L74.7042 12.4199V42.4458Z" fill="#F01436"/>
<path d="M73.4357 3.0837C72.6992 2.34289 71.7021 1.93954 70.6461 1.92277C70.6417 1.92277 70.6375 1.92188 70.6327 1.92188C70.6327 1.92188 70.6274 1.92188 70.6247 1.92188H70.6223H70.6185C70.6146 1.92188 70.6119 1.92188 70.6119 1.92188C70.6048 1.92188 70.6003 1.92247 70.6003 1.92247C69.5396 1.92038 68.5475 2.31803 67.7982 3.04567C67.0475 3.7748 66.6289 4.75127 66.62 5.79571C66.6102 6.91591 66.9832 7.93969 67.6602 8.70146C67.2905 8.85508 67.1114 8.93443 66.6932 9.09852C65.9602 9.38598 65.6018 10.2076 65.8924 10.9335C66.1131 11.4844 66.6441 11.8219 67.2075 11.8267C67.3866 11.8282 67.5704 11.7998 67.7456 11.727C69.7171 10.9083 71.9537 10.0298 72.8405 9.34885C72.9035 9.30064 73.0874 9.1653 73.1953 9.06678C74.2201 8.12954 74.5651 7.31716 74.5788 5.76008C74.5874 4.71564 74.1734 3.82601 73.4357 3.0837ZM70.6164 7.27703C69.8459 7.27015 69.2269 6.64612 69.2335 5.88345C69.24 5.12048 69.87 4.50783 70.6405 4.51441C71.4109 4.5213 72.0299 5.14533 72.0233 5.908C72.0168 6.67067 71.3865 7.28392 70.6164 7.27703Z" fill="#02A0A4"/>
</svg>
