<svg xmlns="http://www.w3.org/2000/svg" width="48.333" height="54.992" viewBox="0 0 48.333 54.992">
  <g id="headphones" transform="translate(-31)">
    <g id="Group_57" data-name="Group 57" transform="translate(37.444 22.555)">
      <g id="Group_56" data-name="Group 56">
        <path id="Path_52" data-name="Path 52" d="M95.833,210A4.839,4.839,0,0,0,91,214.833v13.1a4.833,4.833,0,0,0,9.667,0v-13.1A4.839,4.839,0,0,0,95.833,210Z" transform="translate(-91 -210)" fill="#fe3e3e"/>
      </g>
    </g>
    <g id="Group_59" data-name="Group 59" transform="translate(31 26.032)">
      <g id="Group_58" data-name="Group 58" transform="translate(0)">
        <path id="Path_53" data-name="Path 53" d="M34.222,243.723a7.993,7.993,0,0,1,.137-1.357A4.824,4.824,0,0,0,31,246.945V253.6a4.824,4.824,0,0,0,3.359,4.579,7.993,7.993,0,0,1-.137-1.357Z" transform="translate(-31 -242.366)" fill="#fe3e3e"/>
      </g>
    </g>
    <g id="Group_61" data-name="Group 61" transform="translate(50.333 22.555)">
      <g id="Group_60" data-name="Group 60" transform="translate(0)">
        <path id="Path_54" data-name="Path 54" d="M228.722,210a4.839,4.839,0,0,0-4.833,4.833v13.1a4.839,4.839,0,0,0,4.833,4.833,4.767,4.767,0,0,0,1.385-.226,4.823,4.823,0,0,1-4.607,3.449h-5.13a4.833,4.833,0,1,0,0,3.222h5.13a8.065,8.065,0,0,0,8.055-8.055V214.833A4.839,4.839,0,0,0,228.722,210Z" transform="translate(-211 -210)" fill="#fe3e3e"/>
      </g>
    </g>
    <g id="Group_63" data-name="Group 63" transform="translate(75.974 26.032)">
      <g id="Group_62" data-name="Group 62" transform="translate(0)">
        <path id="Path_55" data-name="Path 55" d="M449.722,242.366a7.994,7.994,0,0,1,.137,1.357v13.1a7.994,7.994,0,0,1-.137,1.357,4.824,4.824,0,0,0,3.359-4.579v-6.659A4.824,4.824,0,0,0,449.722,242.366Z" transform="translate(-449.722 -242.366)" fill="#fe3e3e"/>
      </g>
    </g>
    <g id="Group_65" data-name="Group 65" transform="translate(31)">
      <g id="Group_64" data-name="Group 64" transform="translate(0)">
        <path id="Path_56" data-name="Path 56" d="M55.167,0A24.193,24.193,0,0,0,31,24.167v.041a7.978,7.978,0,0,1,3.3-1.5,20.919,20.919,0,0,1,41.741,0,7.98,7.98,0,0,1,3.3,1.5v-.041A24.193,24.193,0,0,0,55.167,0Z" transform="translate(-31)" fill="#fe3e3e"/>
      </g>
    </g>
  </g>
</svg>
