<svg id="Group_74" data-name="Group 74" xmlns="http://www.w3.org/2000/svg" width="54.991" height="54.992" viewBox="0 0 54.991 54.992">
  <g id="Group_73" data-name="Group 73" transform="translate(0)">
    <path id="Path_80" data-name="Path 80" d="M54.683.315A1.075,1.075,0,0,0,53.923,0H27.5a1.074,1.074,0,0,0-1.074,1.074V4.147L16.247,6.875a1.074,1.074,0,0,0-.759,1.315l5.277,19.692L16.2,32.447a3.221,3.221,0,0,0-2.66-1.406H3.229A3.226,3.226,0,0,0,.007,34.263V51.77a3.226,3.226,0,0,0,3.222,3.222H13.54a3.227,3.227,0,0,0,3.127-2.447l1.277,1.114A5.411,5.411,0,0,0,21.5,54.992H53.924A1.074,1.074,0,0,0,55,53.918V1.074A1.075,1.075,0,0,0,54.683.315ZM14.614,51.77a1.075,1.075,0,0,1-1.074,1.074H3.229A1.075,1.075,0,0,1,2.155,51.77V34.263a1.075,1.075,0,0,1,1.074-1.074H7.31V45.562a1.074,1.074,0,0,0,2.148,0V33.189H13.54a1.075,1.075,0,0,1,1.074,1.074V51.77Zm3.227-43.1,8.588-2.3v3.98l-.72.193a1.074,1.074,0,0,0-.759,1.315A2.9,2.9,0,0,1,22.9,15.4a1.074,1.074,0,0,0-.759,1.318l4.187,15.5H24.176l-1.111-4.346a1.072,1.072,0,0,0-.18-.377Zm8.588,6.6v9.063l-1.959-7.254A5.032,5.032,0,0,0,26.428,15.276Zm15.43,37.568H21.5a3.264,3.264,0,0,1-2.145-.8l-2.594-2.262V34.923l4.689-4.689.85,3.327a1.074,1.074,0,0,0,1.041.808H44.459a1.5,1.5,0,1,1,0,3.007H33.638a1.074,1.074,0,0,0,0,2.148H47.82a1.5,1.5,0,1,1,0,3.007H33.638a1.074,1.074,0,0,0,0,2.148H45.522a1.5,1.5,0,1,1,0,3.007H33.638a1.074,1.074,0,1,0,0,2.148h8.22a1.5,1.5,0,1,1,0,3.007Zm10.991,0H45.185a3.639,3.639,0,0,0,0-3.007h.337a3.649,3.649,0,0,0,3.264-5.286,3.649,3.649,0,0,0,1.965-5.7V25.241a1.074,1.074,0,1,0-2.148,0V37.463a3.652,3.652,0,0,0-.783-.085h-.035a3.649,3.649,0,0,0-3.326-5.155H42.732a5.14,5.14,0,1,0-4.038,0H32.822V11.8a5.056,5.056,0,0,0,3.851-3.851h8.079A5.056,5.056,0,0,0,48.6,11.8v3.339a1.074,1.074,0,0,0,2.148,0v-4.3a1.074,1.074,0,0,0-1.074-1.074,2.9,2.9,0,0,1-2.892-2.892A1.074,1.074,0,0,0,45.711,5.8h-10A1.074,1.074,0,0,0,34.64,6.875a2.9,2.9,0,0,1-2.892,2.892,1.074,1.074,0,0,0-1.074,1.074V32.222h-2.1V2.149H52.85ZM40.713,30.488A2.992,2.992,0,1,1,43.7,27.5,3,3,0,0,1,40.713,30.488Z" transform="translate(-0.007 0)" fill="#fe3e3e"/>
  </g>
</svg>
