<svg xmlns="http://www.w3.org/2000/svg" width="56.011" height="56.008" viewBox="0 0 56.011 56.008">
  <g id="guarantee" transform="translate(-0.001 -0.012)">
    <path id="Path_75" data-name="Path 75" d="M55.682,19.336c-.724-2.141-2.464-3.49-4-4.682a11.682,11.682,0,0,1-2.043-1.826,11.175,11.175,0,0,1-1.2-2.449c-.706-1.758-1.508-3.75-3.362-5.044-1.815-1.268-4-1.386-5.933-1.488a12.763,12.763,0,0,1-2.89-.357A11.718,11.718,0,0,1,33.84,2.206C32.193,1.177,30.324.012,28.006.012s-4.185,1.166-5.832,2.195a11.846,11.846,0,0,1-2.416,1.285,12.827,12.827,0,0,1-2.891.356c-1.929.1-4.116.219-5.933,1.488C9.08,6.629,8.279,8.621,7.572,10.378a11.206,11.206,0,0,1-1.2,2.453,11.608,11.608,0,0,1-2.044,1.827c-1.532,1.19-3.272,2.538-4,4.677-.7,2.079-.139,4.132.36,5.942a11.353,11.353,0,0,1,.541,2.739,11.369,11.369,0,0,1-.541,2.741c-.5,1.81-1.064,3.862-.36,5.942.724,2.139,2.463,3.486,4,4.676A11.7,11.7,0,0,1,6.373,43.2a11.247,11.247,0,0,1,1.2,2.452c.706,1.759,1.509,3.751,3.364,5.047,1.815,1.266,4,1.383,5.93,1.484a12.794,12.794,0,0,1,2.891.356,11.766,11.766,0,0,1,2.413,1.284c1.648,1.03,3.516,2.2,5.835,2.2s4.189-1.166,5.836-2.2a11.858,11.858,0,0,1,2.414-1.284,12.794,12.794,0,0,1,2.891-.356c1.929-.1,4.115-.219,5.931-1.485,1.856-1.3,2.656-3.289,3.364-5.049a11.214,11.214,0,0,1,1.2-2.446,11.591,11.591,0,0,1,2.043-1.827c1.534-1.19,3.275-2.539,4-4.678.7-2.081.138-4.133-.361-5.944a11.312,11.312,0,0,1-.542-2.74,11.308,11.308,0,0,1,.542-2.74c.5-1.808,1.065-3.862.361-5.939ZM50.822,32a6.852,6.852,0,0,1,.44,3.2c-.273.809-1.374,1.662-2.438,2.487a15.043,15.043,0,0,0-2.9,2.694,14.678,14.678,0,0,0-1.81,3.527,6.952,6.952,0,0,1-1.705,2.961,7.67,7.67,0,0,1-3.507.653,16.264,16.264,0,0,0-4.03.56,15.244,15.244,0,0,0-3.5,1.78,7.521,7.521,0,0,1-3.365,1.488,7.532,7.532,0,0,1-3.363-1.485,15.2,15.2,0,0,0-3.5-1.781,16.218,16.218,0,0,0-4.03-.56,7.672,7.672,0,0,1-3.506-.652A6.947,6.947,0,0,1,11.9,43.913a14.708,14.708,0,0,0-1.814-3.53,15,15,0,0,0-2.9-2.694c-1.063-.824-2.163-1.678-2.437-2.486A6.861,6.861,0,0,1,5.192,32,15.057,15.057,0,0,0,5.9,28.017a15.074,15.074,0,0,0-.708-3.979,6.851,6.851,0,0,1-.439-3.207c.273-.807,1.373-1.66,2.436-2.484a15.069,15.069,0,0,0,2.9-2.7A14.727,14.727,0,0,0,11.9,12.12a6.941,6.941,0,0,1,1.7-2.957,7.674,7.674,0,0,1,3.511-.656,16.36,16.36,0,0,0,4.028-.559,15.25,15.25,0,0,0,3.5-1.782,7.493,7.493,0,0,1,3.36-1.488,7.518,7.518,0,0,1,3.363,1.485,15.127,15.127,0,0,0,3.5,1.78A16.261,16.261,0,0,0,38.9,8.5a7.636,7.636,0,0,1,3.51.656,6.925,6.925,0,0,1,1.7,2.957,14.722,14.722,0,0,0,1.814,3.532,15.106,15.106,0,0,0,2.9,2.693,7.31,7.31,0,0,1,2.438,2.488,6.849,6.849,0,0,1-.44,3.2,15.036,15.036,0,0,0-.71,3.981A15.036,15.036,0,0,0,50.822,32Zm0,0" transform="translate(0)" fill="#fe3e3e"/>
    <path id="Path_76" data-name="Path 76" d="M113.675,103.181a10.5,10.5,0,1,1-10.5-10.5h2.334V88.012h-2.334a15.169,15.169,0,1,0,15.169,15.169v-2.334h-4.667Zm0,0" transform="translate(-75.167 -75.165)" fill="#fe3e3e"/>
    <path id="Path_77" data-name="Path 77" d="M156.679,112.388l-3.3,3.3,5.634,5.633,12.635-12.634-3.3-3.3-9.335,9.335Zm0,0" transform="translate(-131.007 -90.006)" fill="#fe3e3e"/>
  </g>
</svg>
