<svg xmlns="http://www.w3.org/2000/svg" width="53.17" height="53.17" viewBox="0 0 53.17 53.17">
  <g id="Group_68" data-name="Group 68" transform="translate(-348.75 -348.75)">
    <path id="Path_68" data-name="Path 68" d="M401.92,361.627a2.245,2.245,0,0,1-2.077,1.678v.556c0,2.578.008,5.156-.006,7.735a2.07,2.07,0,0,1-4.093.446,3.043,3.043,0,0,1-.053-.669q-.007-3.738-.005-7.475v-.583H354.981v.536q0,14.769,0,29.537a4.16,4.16,0,0,0,4.361,4.377c4.309,0,8.617,0,12.926,0a2.075,2.075,0,0,1,.7,4.048c-.079.03-.155.07-.232.106H358.2a.806.806,0,0,0-.184-.081,8.283,8.283,0,0,1-7.189-8.49q0-14.664,0-29.329v-.712a2.246,2.246,0,0,1-2.077-1.68V354.15a3.4,3.4,0,0,0,.107-.334,6.019,6.019,0,0,1,3-4.195,16.029,16.029,0,0,1,2.295-.872h42.37a3.336,3.336,0,0,0,.333.107,6,6,0,0,1,4.2,3,16.3,16.3,0,0,1,.872,2.295ZM352.91,359.1h44.82a.8.8,0,0,0,.03-.135q0-1.817,0-3.634a2.138,2.138,0,0,0-2.417-2.424H363.211c-2.717,0-5.434,0-8.151,0a2.031,2.031,0,0,0-2.138,1.9C352.875,356.224,352.91,357.642,352.91,359.1Z" transform="translate(0 0)" fill="#fe3e3e"/>
    <path id="Path_69" data-name="Path 69" d="M559.46,546.114c-.116.432-.225.867-.35,1.3a14.021,14.021,0,1,1-14.9-17.835,13.648,13.648,0,0,1,5.088.415A2.072,2.072,0,1,1,548.256,534a9.816,9.816,0,0,0-11.169,4.633,9.868,9.868,0,0,0,9.2,14.721,9.782,9.782,0,0,0,9.013-7.864,2.071,2.071,0,0,1,3.448-1.326,5.139,5.139,0,0,1,.709,1.122Z" transform="translate(-157.54 -155.721)" fill="#fe3e3e"/>
    <path id="Path_73" data-name="Path 73" d="M594.361,575.557q3.279-3.395,6.561-6.788c.614-.633,1.245-1.25,1.879-1.863a2.076,2.076,0,1,1,2.926,2.942q-4.485,4.465-9,8.9a3.6,3.6,0,0,1-5.169-.012c-1.018-.988-2.017-1.994-3.008-3.008a2.074,2.074,0,1,1,2.922-2.942c.884.851,1.747,1.724,2.62,2.587.01.01.032.009.048.014Z" transform="translate(-206.047 -187.377)" fill="#fe3e3e"/>
    <path id="Path_74" data-name="Path 74" d="M498.065,483.74c1.487,0,2.974,0,4.461,0a2.083,2.083,0,1,1-.006,4.154q-4.539.006-9.077,0a2.079,2.079,0,1,1,.006-4.153C494.987,483.735,496.526,483.74,498.065,483.74Z" transform="translate(-122.779 -116.298)" fill="#fe3e3e"/>
  </g>
</svg>
