<?xml version="1.0" encoding="UTF-8"?>
<!DOCTYPE svg PUBLIC "-//W3C//DTD SVG 1.1//EN" "http://www.w3.org/Graphics/SVG/1.1/DTD/svg11.dtd">
<!-- Creator: CorelDRAW X6 -->
<svg xmlns="http://www.w3.org/2000/svg" xml:space="preserve" width="297mm" height="210mm" version="1.1" style="shape-rendering:geometricPrecision; text-rendering:geometricPrecision; image-rendering:optimizeQuality; fill-rule:evenodd; clip-rule:evenodd"
viewBox="0 0 29700 21000"
 xmlns:xlink="http://www.w3.org/1999/xlink">
 <defs>
  <style type="text/css">
   <![CDATA[
    .fil0 {fill:#009846}
    .fil1 {fill:#2B2A29}
    .fil2 {fill:#E31E24}
   ]]>
  </style>
 </defs>
 <g id="Layer_x0020_1">
  <metadata id="CorelCorpID_0Corel-Layer"/>
  <path class="fil0" d="M7775 10835l0 -4060c0,-206 276,-381 507,-381l5328 0c685,0 573,304 571,951l0 4694c-262,-70 -194,-128 -367,-331 -153,-179 -202,-238 -331,-430l-5519 0c-92,-137 -190,-211 -190,-444zm-444 -4060l0 4060c0,1182 1298,888 2537,888 1142,0 2284,0 3425,0 632,1194 1332,717 1332,381l0 -5392c0,-534 -485,-761 -1015,-761l-5202 0c-597,0 -1078,317 -1078,825z"/>
  <path class="fil1" d="M16368 8765c548,5 989,596 994,1183 5,590 -473,1164 -993,1173l0 -2356zm-7197 -3321c0,160 67,210 242,189 336,-40 378,-959 1790,-1773 1413,-814 3244,-724 4602,340 381,298 670,678 940,1090 675,1028 608,1834 608,3452 -267,-178 -537,-507 -1205,-507 -148,0 -254,105 -254,254l0 2918c0,627 1966,143 1966,-1649 0,-1315 126,-2836 -353,-4024 -1159,-2879 -5000,-4122 -7721,-1321 -158,162 -617,776 -617,1032z"/>
  <path class="fil1" d="M14055 13626c145,-34 146,-49 317,-63 14,171 30,173 63,317 -171,14 -173,30 -317,63 -39,-169 -38,-120 -63,-317zm825 127c-20,-885 -309,-729 -919,-601 -463,97 -492,86 -328,833 96,435 -50,699 1493,205 442,-141 662,-244 1043,-479 630,-389 1719,-1607 994,-1607 -220,0 -349,320 -470,482 -111,150 -358,394 -500,515 -358,304 -797,532 -1314,653z"/>
  <path class="fil1" d="M9552 7981c301,411 326,0 761,0 246,0 238,286 204,393 -84,263 -1028,1052 -1028,1256l0 190 1522 0 0 -444 -761 0c225,-336 761,-642 761,-1205 0,-725 -1269,-900 -1459,-190z"/>
  <path class="fil1" d="M13041 9440c0,-367 85,-416 -254,-444l0 -507 -444 0 0 507 -571 0 721 -1447 -467 -12c-154,291 -291,597 -443,889 -232,446 -318,316 -318,1014l1078 0 0 381 444 0 0 -381 254 0z"/>
  <path class="fil2" d="M16368 11121c520,-9 999,-582 993,-1173 -5,-587 -445,-1178 -994,-1183l0 2356z"/>
 </g>
</svg>
