<?xml version="1.0" encoding="UTF-8"?>
<!DOCTYPE svg PUBLIC "-//W3C//DTD SVG 1.1//EN" "http://www.w3.org/Graphics/SVG/1.1/DTD/svg11.dtd">
<!-- Creator: CorelDRAW X6 -->
<svg xmlns="http://www.w3.org/2000/svg" xml:space="preserve" width="297mm" height="210mm" version="1.1" style="shape-rendering:geometricPrecision; text-rendering:geometricPrecision; image-rendering:optimizeQuality; fill-rule:evenodd; clip-rule:evenodd"
viewBox="0 0 29700 21000"
 xmlns:xlink="http://www.w3.org/1999/xlink">
 <defs>
  <style type="text/css">
   <![CDATA[
    .fil0 {fill:#9D9E9E}
   ]]>
  </style>
 </defs>
 <g id="Layer_x0020_1">
  <metadata id="CorelCorpID_0Corel-Layer"/>
  <path class="fil0" d="M14757 13015c0,-612 359,-1143 902,-1405 574,-276 1318,-136 1732,278 622,621 637,1586 23,2200 -598,598 -1582,610 -2200,-8 -265,-265 -458,-677 -458,-1065zm-3907 -723c0,-477 179,-849 442,-1111 209,-208 611,-458 1019,-458 313,0 485,10 769,154 1403,708 1071,2784 -647,2922 -70,6 -276,-23 -346,-37 -683,-137 -1237,-771 -1237,-1470zm3184 -1661c0,-162 90,-384 204,-488 508,-459 1180,-64 1180,473 0,499 -522,830 -969,631 -242,-108 -415,-365 -415,-615zm1523 -1723c0,-219 68,-476 143,-626 180,-357 393,-594 769,-769 573,-266 1288,-140 1722,299 624,631 632,1579 31,2177 -209,208 -611,458 -1019,458 -313,0 -485,-10 -769,-154 -535,-270 -877,-770 -877,-1384zm-2353 800c-381,0 -829,-175 -1081,-427 -621,-620 -638,-1585 -23,-2200 598,-598 1582,-610 2200,8 192,192 342,451 412,726 62,246 51,442 4,681 -136,680 -792,1211 -1511,1211zm-3907 692c0,826 53,1278 325,2029 231,637 546,1157 978,1668 34,40 38,53 77,92 459,457 798,783 1383,1108 151,84 293,155 451,226 150,67 319,130 479,183 1352,450 2704,382 4002,-178 557,-241 1147,-641 1576,-1070 261,-261 408,-403 619,-704 386,-550 690,-1126 855,-1790 284,-1143 236,-2139 -157,-3245 -56,-156 -124,-324 -195,-466 -240,-476 -389,-699 -709,-1106 -31,-39 -49,-50 -79,-90 -217,-279 -743,-726 -1052,-932 -129,-86 -262,-180 -405,-256 -336,-180 -553,-281 -920,-403 -1352,-450 -2704,-382 -4002,178 -565,244 -1150,643 -1584,1077 -113,113 -226,208 -326,336 -236,303 -312,362 -556,767 -437,727 -760,1719 -760,2577z"/>
  <path class="fil0" d="M20632 9846l31 0c2,-76 29,-136 46,-200 18,-67 31,-125 51,-195 71,-242 287,-1008 287,-1221 0,-451 -30,-786 -283,-1163 -521,-776 -1074,-829 -1916,-1052 -78,-21 -155,-41 -231,-62 -61,-16 -191,-57 -246,-61 13,50 1,21 39,54l565 496 370 414c562,697 944,1432 1167,2324 39,158 120,478 120,664z"/>
  <path class="fil0" d="M15603 16429l409 130c329,93 934,270 1252,270 751,0 1306,-397 1624,-837 237,-328 365,-911 483,-1362 22,-84 41,-155 65,-243 17,-64 57,-170 58,-249 -38,26 -55,59 -86,99l-457 512c-367,367 -876,758 -1324,999 -466,251 -867,406 -1373,550 -125,35 -532,132 -653,132z"/>
  <path class="fil0" d="M10066 6862l542 -565c142,-142 250,-228 405,-349 234,-183 407,-299 667,-456 518,-312 1265,-598 1886,-713 112,-21 227,-31 330,-55l-186 -60c-362,-107 -1140,-325 -1459,-325 -899,0 -1648,599 -1877,1353l-125 460c-30,101 -181,636 -183,709z"/>
  <path class="fil0" d="M8466 12938c0,432 28,770 264,1135 156,241 325,428 557,596 349,252 839,338 1270,452 152,40 306,87 461,123 -35,-52 -48,-53 -94,-90l-294 -260c-126,-127 -246,-240 -369,-369l-169 -201c-539,-660 -898,-1349 -1140,-2182 -59,-204 -84,-397 -133,-605 -50,37 -18,-5 -38,70l-162 607c-51,194 -154,495 -154,723z"/>
 </g>
</svg>
