<svg xmlns="http://www.w3.org/2000/svg" width="31.246" height="21.662" viewBox="0 0 31.246 21.662">
  <g id="delivery_1_" data-name="delivery (1)" transform="translate(0 -78.521)">
    <g id="Group_459" data-name="Group 459" transform="translate(19.66 92.306)">
      <g id="Group_458" data-name="Group 458" transform="translate(0 0)">
        <path id="Path_652" data-name="Path 652" d="M326.09,304.4a3.939,3.939,0,1,0,3.939,3.939A3.943,3.943,0,0,0,326.09,304.4Zm0,5.908a1.969,1.969,0,1,1,1.969-1.969A1.971,1.971,0,0,1,326.09,310.311Z" transform="translate(-322.151 -304.403)" fill="#3b903f"/>
      </g>
    </g>
    <g id="Group_461" data-name="Group 461" transform="translate(6.203 92.306)">
      <g id="Group_460" data-name="Group 460" transform="translate(0 0)">
        <path id="Path_653" data-name="Path 653" d="M105.586,304.4a3.939,3.939,0,1,0,3.939,3.939A3.943,3.943,0,0,0,105.586,304.4Zm0,5.908a1.969,1.969,0,1,1,1.969-1.969A1.971,1.971,0,0,1,105.586,310.311Z" transform="translate(-101.647 -304.403)" fill="#3b903f"/>
      </g>
    </g>
    <g id="Group_463" data-name="Group 463" transform="translate(20.185 80.49)">
      <g id="Group_462" data-name="Group 462" transform="translate(0 0)">
        <path id="Path_654" data-name="Path 654" d="M336.822,111.332a.985.985,0,0,0-.88-.542h-5.186v1.969h4.579l2.681,5.333,1.76-.885Z" transform="translate(-330.756 -110.79)" fill="#3b903f"/>
      </g>
    </g>
    <g id="Group_465" data-name="Group 465" transform="translate(13.194 95.293)">
      <g id="Group_464" data-name="Group 464" transform="translate(0 0)">
        <rect id="Rectangle_160" data-name="Rectangle 160" width="7.45" height="1.969" fill="#3b903f"/>
      </g>
    </g>
    <g id="Group_467" data-name="Group 467" transform="translate(2.79 95.293)">
      <g id="Group_466" data-name="Group 466" transform="translate(0 0)">
        <path id="Path_655" data-name="Path 655" d="M50.113,353.345H46.7a.985.985,0,1,0,0,1.969h3.413a.985.985,0,1,0,0-1.969Z" transform="translate(-45.715 -353.345)" fill="#3b903f"/>
      </g>
    </g>
    <g id="Group_469" data-name="Group 469" transform="translate(2.79 78.521)">
      <g id="Group_468" data-name="Group 468" transform="translate(0 0)">
        <path id="Path_656" data-name="Path 656" d="M73.964,89.273l-1.937-2.494a.983.983,0,0,0-.778-.381H64.1V79.506a.985.985,0,0,0-.985-.985H46.7a.985.985,0,1,0,0,1.969H62.126v6.893a.985.985,0,0,0,.985.985h7.658L72.2,90.215v5.078H69.478a.985.985,0,0,0,0,1.969h3.709a.985.985,0,0,0,.985-.985v-6.4A.986.986,0,0,0,73.964,89.273Z" transform="translate(-45.715 -78.521)" fill="#3b903f"/>
      </g>
    </g>
    <g id="Group_471" data-name="Group 471" transform="translate(1.608 90.304)">
      <g id="Group_470" data-name="Group 470">
        <path id="Path_657" data-name="Path 657" d="M31.867,271.6H27.338a.985.985,0,0,0,0,1.969h4.529a.985.985,0,0,0,0-1.969Z" transform="translate(-26.353 -271.597)" fill="#3b903f"/>
      </g>
    </g>
    <g id="Group_473" data-name="Group 473" transform="translate(0 86.431)">
      <g id="Group_472" data-name="Group 472" transform="translate(0 0)">
        <path id="Path_658" data-name="Path 658" d="M9.387,208.134H.985a.985.985,0,0,0,0,1.969h8.4a.985.985,0,0,0,0-1.969Z" transform="translate(0 -208.134)" fill="#3b903f"/>
      </g>
    </g>
    <g id="Group_475" data-name="Group 475" transform="translate(1.608 82.558)">
      <g id="Group_474" data-name="Group 474" transform="translate(0 0)">
        <path id="Path_659" data-name="Path 659" d="M35.74,144.672h-8.4a.985.985,0,0,0,0,1.969h8.4a.985.985,0,0,0,0-1.969Z" transform="translate(-26.353 -144.672)" fill="#3b903f"/>
      </g>
    </g>
  </g>
</svg>
