<svg id="Group_25" data-name="Group 25" xmlns="http://www.w3.org/2000/svg" width="24.466" height="24.469" viewBox="0 0 24.466 24.469">
  <path id="Path_7" data-name="Path 7" d="M34.729,20.363a2.609,2.609,0,0,0-2.052-1.039h-1.8C30.7,14.7,27.353,11,23.259,11s-7.446,3.7-7.615,8.324h-1.8a2.609,2.609,0,0,0-2.052,1.039,3.709,3.709,0,0,0-.664,3.131l2.162,9.528A2.929,2.929,0,0,0,16,35.469H30.509a2.924,2.924,0,0,0,2.717-2.447l2.167-9.528A3.709,3.709,0,0,0,34.729,20.363Zm-11.47-7.326c2.976,0,5.413,2.786,5.573,6.287H17.686C17.845,15.829,20.282,13.037,23.259,13.037Zm10.147,10-2.162,9.533c-.11.489-.424.859-.729.859H16c-.3,0-.619-.37-.729-.859L13.111,23.04c-.115-.5-.185-1.678.729-1.678H32.677C33.66,21.362,33.521,22.535,33.406,23.04Z" transform="translate(-11.025 -11)" fill="#fff"/>
  <path id="Path_8" data-name="Path 8" d="M135.319,259.1a1.017,1.017,0,0,0-1.019,1.019v6.367a1.019,1.019,0,1,0,2.037,0v-6.367A1.017,1.017,0,0,0,135.319,259.1Z" transform="translate(-128.144 -246.711)" fill="#fff"/>
  <path id="Path_9" data-name="Path 9" d="M234.219,259.1a1.017,1.017,0,0,0-1.019,1.019v6.367a1.019,1.019,0,1,0,2.037,0v-6.367A1.023,1.023,0,0,0,234.219,259.1Z" transform="translate(-222.105 -246.711)" fill="#fff"/>
  <path id="Path_10" data-name="Path 10" d="M333.019,259.1A1.017,1.017,0,0,0,332,260.119v6.367a1.019,1.019,0,1,0,2.037,0v-6.367A1.02,1.02,0,0,0,333.019,259.1Z" transform="translate(-315.972 -246.711)" fill="#fff"/>
</svg>
