<?xml version='1.0' encoding='iso-8859-1'?>
<svg version="1.1" xmlns="http://www.w3.org/2000/svg" viewBox="0 0 463 463" xmlns:xlink="http://www.w3.org/1999/xlink" enable-background="new 0 0 463 463">
  <g fill="#0b9c60">
    <path d="M7.5,87c4.142,0,7.5-3.357,7.5-7.5v-56c0-4.687,3.813-8.5,8.5-8.5h56c4.142,0,7.5-3.357,7.5-7.5S83.642,0,79.5,0h-56   C10.542,0,0,10.542,0,23.5v56C0,83.643,3.358,87,7.5,87z"/>
    <path d="m439.5,0h-56c-4.142,0-7.5,3.357-7.5,7.5s3.358,7.5 7.5,7.5h56c4.687,0 8.5,3.813 8.5,8.5v56c0,4.143 3.358,7.5 7.5,7.5s7.5-3.357 7.5-7.5v-56c0-12.958-10.542-23.5-23.5-23.5z"/>
    <path d="m455.5,376c-4.142,0-7.5,3.357-7.5,7.5v56c0,4.687-3.813,8.5-8.5,8.5h-56c-4.142,0-7.5,3.357-7.5,7.5s3.358,7.5 7.5,7.5h56c12.958,0 23.5-10.542 23.5-23.5v-56c0-4.143-3.358-7.5-7.5-7.5z"/>
    <path d="m79.5,448h-56c-4.687,0-8.5-3.813-8.5-8.5v-56c0-4.143-3.358-7.5-7.5-7.5s-7.5,3.357-7.5,7.5v56c0,12.958 10.542,23.5 23.5,23.5h56c4.142,0 7.5-3.357 7.5-7.5s-3.358-7.5-7.5-7.5z"/>
    <path d="m455.5,224h-448c-4.142,0-7.5,3.357-7.5,7.5s3.358,7.5 7.5,7.5h448c4.142,0 7.5-3.357 7.5-7.5s-3.358-7.5-7.5-7.5z"/>
    <path d="m231.5,312c-4.142,0-7.5,3.357-7.5,7.5v16c0,4.143 3.358,7.5 7.5,7.5s7.5-3.357 7.5-7.5v-16c0-4.143-3.358-7.5-7.5-7.5z"/>
    <path d="m231.5,207c4.142,0 7.5-3.357 7.5-7.5v-72c0-4.143-3.358-7.5-7.5-7.5s-7.5,3.357-7.5,7.5v72c0,4.143 3.358,7.5 7.5,7.5z"/>
    <path d="m263.5,312c-4.142,0-7.5,3.357-7.5,7.5v16c0,4.143 3.358,7.5 7.5,7.5s7.5-3.357 7.5-7.5v-16c0-4.143-3.358-7.5-7.5-7.5z"/>
    <path d="m263.5,207c4.142,0 7.5-3.357 7.5-7.5v-72c0-4.143-3.358-7.5-7.5-7.5s-7.5,3.357-7.5,7.5v72c0,4.143 3.358,7.5 7.5,7.5z"/>
    <path d="m199.5,312c-4.142,0-7.5,3.357-7.5,7.5v16c0,4.143 3.358,7.5 7.5,7.5s7.5-3.357 7.5-7.5v-16c0-4.143-3.358-7.5-7.5-7.5z"/>
    <path d="m199.5,207c4.142,0 7.5-3.357 7.5-7.5v-72c0-4.143-3.358-7.5-7.5-7.5s-7.5,3.357-7.5,7.5v72c0,4.143 3.358,7.5 7.5,7.5z"/>
    <path d="m167.5,312c-4.142,0-7.5,3.357-7.5,7.5v16c0,4.143 3.358,7.5 7.5,7.5s7.5-3.357 7.5-7.5v-16c0-4.143-3.358-7.5-7.5-7.5z"/>
    <path d="m167.5,207c4.142,0 7.5-3.357 7.5-7.5v-72c0-4.143-3.358-7.5-7.5-7.5s-7.5,3.357-7.5,7.5v72c0,4.143 3.358,7.5 7.5,7.5z"/>
    <path d="m295.5,312c-4.142,0-7.5,3.357-7.5,7.5v16c0,4.143 3.358,7.5 7.5,7.5s7.5-3.357 7.5-7.5v-16c0-4.143-3.358-7.5-7.5-7.5z"/>
    <path d="m295.5,207c4.142,0 7.5-3.357 7.5-7.5v-72c0-4.143-3.358-7.5-7.5-7.5s-7.5,3.357-7.5,7.5v72c0,4.143 3.358,7.5 7.5,7.5z"/>
    <path d="m327.5,312c-4.142,0-7.5,3.357-7.5,7.5v16c0,4.143 3.358,7.5 7.5,7.5s7.5-3.357 7.5-7.5v-16c0-4.143-3.358-7.5-7.5-7.5z"/>
    <path d="m327.5,207c4.142,0 7.5-3.357 7.5-7.5v-72c0-4.143-3.358-7.5-7.5-7.5s-7.5,3.357-7.5,7.5v72c0,4.143 3.358,7.5 7.5,7.5z"/>
    <path d="m359.5,312c-4.142,0-7.5,3.357-7.5,7.5v16c0,4.143 3.358,7.5 7.5,7.5s7.5-3.357 7.5-7.5v-16c0-4.143-3.358-7.5-7.5-7.5z"/>
    <path d="m359.5,207c4.142,0 7.5-3.357 7.5-7.5v-72c0-4.143-3.358-7.5-7.5-7.5s-7.5,3.357-7.5,7.5v72c0,4.143 3.358,7.5 7.5,7.5z"/>
    <path d="m103.5,312c-4.142,0-7.5,3.357-7.5,7.5v16c0,4.143 3.358,7.5 7.5,7.5s7.5-3.357 7.5-7.5v-16c0-4.143-3.358-7.5-7.5-7.5z"/>
    <path d="m103.5,207c4.142,0 7.5-3.357 7.5-7.5v-72c0-4.143-3.358-7.5-7.5-7.5s-7.5,3.357-7.5,7.5v72c0,4.143 3.358,7.5 7.5,7.5z"/>
    <path d="m79,335.5v-72c0-4.143-3.358-7.5-7.5-7.5s-7.5,3.357-7.5,7.5v72c0,4.143 3.358,7.5 7.5,7.5s7.5-3.357 7.5-7.5z"/>
    <path d="m64,127.5v72c0,4.143 3.358,7.5 7.5,7.5s7.5-3.357 7.5-7.5v-72c0-4.143-3.358-7.5-7.5-7.5s-7.5,3.357-7.5,7.5z"/>
    <path d="m399,335.5v-72c0-4.143-3.358-7.5-7.5-7.5s-7.5,3.357-7.5,7.5v72c0,4.143 3.358,7.5 7.5,7.5s7.5-3.357 7.5-7.5z"/>
    <path d="m399,199.5v-72c0-4.143-3.358-7.5-7.5-7.5s-7.5,3.357-7.5,7.5v72c0,4.143 3.358,7.5 7.5,7.5s7.5-3.357 7.5-7.5z"/>
    <path d="m135.5,312c-4.142,0-7.5,3.357-7.5,7.5v16c0,4.143 3.358,7.5 7.5,7.5s7.5-3.357 7.5-7.5v-16c0-4.143-3.358-7.5-7.5-7.5z"/>
    <path d="m231.5,256c-4.142,0-7.5,3.357-7.5,7.5v24c0,4.143 3.358,7.5 7.5,7.5s7.5-3.357 7.5-7.5v-24c0-4.143-3.358-7.5-7.5-7.5z"/>
    <path d="m263.5,256c-4.142,0-7.5,3.357-7.5,7.5v24c0,4.143 3.358,7.5 7.5,7.5s7.5-3.357 7.5-7.5v-24c0-4.143-3.358-7.5-7.5-7.5z"/>
    <path d="m199.5,256c-4.142,0-7.5,3.357-7.5,7.5v24c0,4.143 3.358,7.5 7.5,7.5s7.5-3.357 7.5-7.5v-24c0-4.143-3.358-7.5-7.5-7.5z"/>
    <path d="m167.5,256c-4.142,0-7.5,3.357-7.5,7.5v24c0,4.143 3.358,7.5 7.5,7.5s7.5-3.357 7.5-7.5v-24c0-4.143-3.358-7.5-7.5-7.5z"/>
    <path d="m295.5,256c-4.142,0-7.5,3.357-7.5,7.5v24c0,4.143 3.358,7.5 7.5,7.5s7.5-3.357 7.5-7.5v-24c0-4.143-3.358-7.5-7.5-7.5z"/>
    <path d="m327.5,256c-4.142,0-7.5,3.357-7.5,7.5v24c0,4.143 3.358,7.5 7.5,7.5s7.5-3.357 7.5-7.5v-24c0-4.143-3.358-7.5-7.5-7.5z"/>
    <path d="m359.5,256c-4.142,0-7.5,3.357-7.5,7.5v24c0,4.143 3.358,7.5 7.5,7.5s7.5-3.357 7.5-7.5v-24c0-4.143-3.358-7.5-7.5-7.5z"/>
    <path d="m103.5,256c-4.142,0-7.5,3.357-7.5,7.5v24c0,4.143 3.358,7.5 7.5,7.5s7.5-3.357 7.5-7.5v-24c0-4.143-3.358-7.5-7.5-7.5z"/>
    <path d="m135.5,256c-4.142,0-7.5,3.357-7.5,7.5v24c0,4.143 3.358,7.5 7.5,7.5s7.5-3.357 7.5-7.5v-24c0-4.143-3.358-7.5-7.5-7.5z"/>
    <path d="m135.5,207c4.142,0 7.5-3.357 7.5-7.5v-72c0-4.143-3.358-7.5-7.5-7.5s-7.5,3.357-7.5,7.5v72c0,4.143 3.358,7.5 7.5,7.5z"/>
  </g>
</svg>
