<?xml version="1.0" standalone="no"?>
<!DOCTYPE svg PUBLIC "-//W3C//DTD SVG 20010904//EN"
 "http://www.w3.org/TR/2001/REC-SVG-20010904/DTD/svg10.dtd">
<svg version="1.0" xmlns="http://www.w3.org/2000/svg"
 width="1080.000000pt" height="743.000000pt" viewBox="0 0 1080.000000 743.000000"
 preserveAspectRatio="xMidYMid meet">
<metadata>
Created by potrace 1.16, written by Peter Selinger 2001-2019
</metadata>
<g transform="translate(0.000000,743.000000) scale(0.100000,-0.100000)"
fill="rgb(170, 0, 1)" stroke="none">
<path d="M3905 7420 c-362 -19 -564 -79 -680 -201 -101 -105 -135 -223 -135
-461 0 -171 17 -333 84 -793 25 -170 88 -616 141 -990 139 -982 193 -1328 246
-1590 152 -752 349 -1104 721 -1291 260 -131 540 -177 1078 -177 298 -1 701
15 770 30 19 4 -16 19 -140 62 -502 175 -869 388 -1177 685 -212 204 -358 400
-486 653 -297 586 -388 1415 -230 2092 171 737 660 1407 1303 1786 84 50 230
154 230 164 0 5 -48 9 -107 10 -60 1 -252 6 -428 11 -504 15 -1026 19 -1190
10z"/>
<path d="M8410 7400 c-107 -4 -199 -8 -204 -9 -5 0 56 -49 135 -108 600 -445
917 -785 1124 -1208 182 -370 257 -739 258 -1270 0 -299 -22 -499 -83 -760
-205 -872 -775 -1554 -1575 -1889 -281 -117 -595 -190 -950 -221 -146 -12 -87
-13 700 -10 827 2 930 5 1165 35 488 63 788 224 985 529 179 278 299 689 405
1386 22 149 47 313 55 365 50 334 112 702 215 1285 124 705 144 858 144 1140
1 255 -5 295 -59 410 -96 203 -324 303 -725 319 -225 9 -1382 13 -1590 6z"/>
<path d="M355 7314 c-89 -17 -200 -72 -255 -125 -23 -22 -53 -66 -67 -96 -21
-46 -24 -65 -21 -121 3 -41 13 -85 27 -113 49 -102 183 -197 331 -235 70 -17
488 -31 1015 -33 314 -2 382 -9 431 -46 75 -58 61 18 254 -1355 39 -278 88
-629 110 -780 21 -151 75 -534 120 -850 188 -1337 186 -1322 218 -1386 45 -89
93 -138 172 -178 113 -56 228 -58 334 -4 76 39 157 146 180 241 3 15 -2 89
-13 165 -11 75 -31 223 -46 327 -14 105 -32 235 -40 290 -8 55 -76 550 -150
1100 -155 1147 -182 1345 -195 1435 -18 123 -99 715 -120 875 -25 188 -43 286
-72 375 -73 229 -224 386 -461 480 l-79 30 -506 10 c-707 13 -1080 12 -1167
-6z"/>
<path d="M6665 6336 c-356 -53 -649 -199 -895 -446 -139 -139 -222 -255 -300
-415 -66 -136 -99 -228 -132 -377 -20 -90 -23 -130 -23 -313 0 -229 10 -296
66 -475 41 -129 134 -316 210 -425 167 -236 444 -454 704 -555 633 -243 1345
-66 1771 443 180 214 303 474 350 742 25 137 25 403 0 540 -73 414 -321 794
-669 1028 -166 112 -404 208 -597 242 -129 22 -371 28 -485 11z"/>
<path d="M8287 1745 c-327 -62 -586 -298 -683 -622 -23 -76 -27 -107 -27 -228
-1 -146 9 -206 55 -325 87 -225 282 -415 514 -499 117 -42 204 -55 340 -48
136 6 229 29 337 83 227 114 381 297 458 544 20 65 23 96 24 235 0 128 -4 173
-19 225 -90 308 -308 527 -612 615 -114 33 -274 41 -387 20z m251 -570 c66
-20 152 -97 180 -162 31 -74 36 -124 18 -192 -38 -148 -145 -232 -297 -233
-207 0 -353 210 -280 402 60 158 215 233 379 185z"/>
<path d="M5530 1743 c-19 -2 -72 -13 -118 -24 -318 -78 -559 -326 -638 -655
-25 -105 -23 -287 5 -393 52 -200 171 -378 331 -496 100 -75 239 -134 364
-156 112 -19 303 -7 406 26 566 180 794 844 458 1334 -75 108 -223 231 -348
288 -138 63 -312 92 -460 76z m175 -574 c134 -36 236 -180 222 -314 -17 -163
-142 -279 -302 -279 -90 0 -159 29 -218 93 -78 83 -105 197 -71 298 54 158
212 245 369 202z"/>
</g>
</svg>
