<?xml version="1.0" standalone="no"?>
<!DOCTYPE svg PUBLIC "-//W3C//DTD SVG 20010904//EN"
 "http://www.w3.org/TR/2001/REC-SVG-20010904/DTD/svg10.dtd">
<svg version="1.0" xmlns="http://www.w3.org/2000/svg"
 width="421.000000pt" height="125.000000pt" viewBox="0 0 421.000000 125.000000"
 preserveAspectRatio="xMidYMid meet">

<g transform="translate(0.000000,125.000000) scale(0.100000,-0.100000)"
fill="#000000" stroke="none">
<path d="M88 1202 c-59 -36 -59 -33 -56 -592 l3 -512 37 -34 38 -34 1990 0
c1760 0 1994 2 2020 15 61 31 60 25 60 580 0 555 1 549 -60 580 -26 13 -259
15 -2017 15 -1854 -1 -1990 -2 -2015 -18z m683 -155 c25 -16 46 -47 79 -115
31 -64 51 -94 65 -96 11 -2 48 -9 82 -14 35 -6 75 -17 90 -24 26 -13 28 -17
25 -68 -5 -92 -39 -237 -71 -303 -45 -94 -42 -92 -88 -68 -22 11 -43 17 -47
14 -3 -3 -11 -1 -18 4 -25 20 -169 42 -213 33 -5 -1 -14 -2 -18 -1 -4 1 -17
-4 -28 -9 -11 -6 -36 -13 -56 -16 -21 -2 -47 -11 -60 -19 -12 -8 -28 -15 -34
-15 -7 0 -21 -7 -31 -16 -16 -16 -19 -15 -38 7 -51 61 -87 170 -114 342 -11
75 -11 90 1 102 17 18 72 34 145 41 31 4 60 9 65 13 5 3 22 37 38 75 59 142
141 190 226 133z m1040 -146 c23 -19 24 -24 27 -203 3 -175 2 -185 -18 -211
-26 -33 -71 -36 -100 -7 -19 19 -20 33 -20 205 0 184 0 186 25 210 29 30 55
32 86 6z m201 -68 c39 -35 8 -113 -45 -113 -58 0 -89 69 -50 112 20 22 70 23
95 1z m198 -3 c18 -18 20 -33 20 -160 l0 -140 64 0 c36 0 76 -4 89 -9 47 -18
53 -97 8 -120 -28 -15 -210 -14 -241 2 -49 24 -60 67 -60 235 0 184 9 211 73
212 15 0 36 -9 47 -20z m-595 -65 c24 -23 25 -29 25 -164 l0 -141 -29 -32
c-29 -33 -30 -33 -138 -36 -98 -3 -111 -2 -136 18 -36 29 -37 71 -1 99 21 17
41 21 94 21 l68 0 4 111 c3 102 5 112 27 130 31 26 57 24 86 -6z m1725 -30 c0
-8 -6 -15 -12 -18 -21 -7 -38 4 -38 23 0 10 6 20 13 23 15 5 37 -11 37 -28z
m-525 -95 c0 -92 -2 -105 -17 -108 -16 -3 -18 7 -18 108 0 101 2 111 18 108
15 -3 17 -16 17 -108z m653 17 l3 -87 44 0 c45 0 45 0 45 35 0 28 4 35 20 35
16 0 20 -7 20 -37 0 -52 -23 -73 -79 -73 -26 0 -56 7 -69 16 -20 14 -22 23
-22 110 0 86 2 95 18 92 14 -3 17 -17 20 -91z m-732 52 c8 -14 -21 -43 -35
-35 -19 12 -13 46 8 46 11 0 23 -5 27 -11z m312 -22 c2 -12 -3 -17 -17 -17
-12 0 -21 6 -21 13 0 31 32 34 38 4z m60 0 c2 -12 -3 -17 -17 -17 -12 0 -21 6
-21 13 0 31 32 34 38 4z m247 -12 c32 -31 34 -96 6 -124 -17 -17 -36 -19 -206
-20 -108 0 -195 4 -206 10 -14 7 -19 21 -19 54 0 38 3 45 20 45 16 0 20 -7 20
-35 l0 -35 95 0 95 0 0 35 c0 28 4 35 20 35 13 0 20 -7 20 -19 0 -45 9 -51 76
-51 36 0 64 4 64 10 0 6 -13 10 -28 10 -52 0 -71 51 -32 90 26 26 46 25 75 -5z
m515 -36 c22 -28 40 -57 40 -64 0 -26 -43 -45 -102 -45 -51 0 -58 2 -58 20 0
18 7 20 60 20 33 0 60 4 60 8 0 5 -16 27 -35 49 -19 23 -35 46 -35 52 0 26 32
7 70 -40z m-1877 10 c12 -7 25 -17 29 -23 12 -17 9 -295 -2 -317 -20 -36 -63
-49 -170 -49 -94 0 -103 2 -125 25 -30 29 -32 55 -6 86 17 21 30 24 100 27
l81 4 0 107 c0 111 3 121 35 139 25 14 32 15 58 1z m735 -85 c-3 -66 -7 -79
-27 -96 -30 -24 -84 -21 -89 5 -3 13 3 17 25 17 43 0 53 17 53 87 0 57 2 63
21 63 20 0 21 -4 17 -76z m982 15 c0 -62 -11 -95 -39 -116 -15 -12 -61 -18
-61 -9 0 2 -3 11 -6 20 -5 12 0 16 18 16 38 0 48 19 48 87 0 56 2 63 20 63 18
0 20 -7 20 -61z m-192 -102 c2 -12 -3 -17 -17 -17 -15 0 -21 6 -21 21 0 25 33
22 38 -4z m57 13 c4 -6 1 -18 -6 -26 -11 -13 -14 -13 -27 0 -8 8 -11 19 -8 25
9 14 33 14 41 1z m-1366 -186 c25 -32 26 -52 5 -82 -10 -15 -25 -22 -47 -22
-38 0 -50 7 -66 37 -16 31 -14 41 14 68 32 33 68 32 94 -1z"/>
<path d="M674 985 c-19 -13 -74 -113 -74 -133 0 -5 45 -8 100 -8 75 1 100 4
100 14 0 24 -49 110 -72 126 -27 20 -29 20 -54 1z"/>
<path d="M3297 654 c-14 -14 -6 -24 19 -24 16 0 24 5 22 13 -5 14 -31 21 -41
11z"/>
</g>
</svg>
