<?xml version="1.0" encoding="UTF-8"?>
<!DOCTYPE svg PUBLIC "-//W3C//DTD SVG 1.1//EN" "http://www.w3.org/Graphics/SVG/1.1/DTD/svg11.dtd">
<!-- Creator: CorelDRAW X6 -->
<svg xmlns="http://www.w3.org/2000/svg" xml:space="preserve" width="297mm" height="210mm" version="1.1" style="shape-rendering:geometricPrecision; text-rendering:geometricPrecision; image-rendering:optimizeQuality; fill-rule:evenodd; clip-rule:evenodd"
viewBox="0 0 29700 21000"
 xmlns:xlink="http://www.w3.org/1999/xlink">
 <defs>
  <style type="text/css">
   <![CDATA[
    .fil0 {fill:#009846}
    .fil1 {fill:#2B2A29}
    .fil3 {fill:#E31E24}
    .fil2 {fill:white}
   ]]>
  </style>
 </defs>
 <g id="Layer_x0020_1">
  <metadata id="CorelCorpID_0Corel-Layer"/>
  <rect class="fil0" x="7834" y="11687" width="3630" height="5820"/>
  <path class="fil1" d="M8179 17089c-257,-270 -141,-1117 -141,-1517 0,-4017 -354,-3498 1324,-3498 -4,501 -201,3420 268,3440 493,22 293,-2911 284,-3408 309,-68 1011,-50 1268,31 104,356 103,4597 -4,4925 -285,98 -2670,115 -2999,27zm6648 -9692l681 -4 241 23 0 4408 -921 4 -1 -4431zm3735 9622c-443,195 -5578,148 -5848,52 -111,-40 -906,-530 -927,-978l4 -2979c-3,-430 -66,-537 158,-775 474,-504 1319,-1385 2325,-1608 7,327 33,614 -61,898 -164,498 -409,758 385,748 750,-10 4350,-51 4521,47 199,206 289,553 -46,694 -374,157 -2685,-143 -3163,141 -133,590 380,453 827,450 431,-2 863,0 1294,0 900,0 2116,-183 2124,376 7,458 -473,390 -895,388 -431,-3 -863,-1 -1294,-1 -1464,0 -2185,-217 -2062,453 520,308 2757,-56 3570,181 100,264 156,292 10,562 -465,412 -3398,-175 -3590,318 -161,413 280,378 582,376 1487,-12 2339,-243 2086,658zm-1256 -5184l-15 -4440c451,-3 3537,-104 3774,41l14 9689 -1962 0c83,-373 92,-395 -4,-770 712,-30 1234,-555 943,-1300 94,-119 250,-152 422,-335 136,-145 223,-318 235,-569 18,-382 -97,-400 -157,-662 -108,-468 137,-3088 -95,-3697 -427,-57 -481,20 -484,472 -3,394 102,2692 -70,2899 -181,-83 -82,-3 -66,-304 65,-1295 -1414,-1066 -2534,-1023zm-5670 34c-344,-456 -862,-346 -1561,-346 -1003,0 -2098,-223 -2479,407 -222,368 -124,4084 -115,4744 18,1313 1044,995 2917,1000 793,2 1092,25 1366,-607 288,171 384,393 809,536 452,151 5575,71 6428,71 3051,0 2621,314 2621,-1391 0,-1450 87,-9285 -77,-9460 0,0 -7153,-48 -7207,17 -145,301 -65,2708 -58,3243 -555,143 -1090,440 -1516,736 -455,316 -732,696 -1128,1050z"/>
  <path class="fil2" d="M18562 17018c253,-901 -599,-671 -2086,-658 -302,3 -743,37 -582,-376 192,-493 3125,94 3590,-318 146,-269 89,-297 -10,-562 -812,-238 -3050,127 -3570,-181 -123,-670 598,-453 2062,-453 431,0 863,-2 1294,1 422,2 902,70 895,-388 -8,-559 -1224,-376 -2124,-376 -431,0 -863,-2 -1294,0 -447,2 -960,140 -827,-450 478,-284 2789,16 3163,-141 335,-141 245,-488 46,-694 -171,-98 -3771,-57 -4521,-47 -794,10 -549,-250 -385,-748 93,-284 68,-571 61,-898 -1007,223 -1851,1104 -2325,1608 -224,238 -161,345 -158,775l-4 2979c21,448 816,939 927,978 270,96 5405,143 5848,-52z"/>
  <path class="fil2" d="M20014 8939c278,-196 668,63 479,360 -140,220 -556,187 -479,-360zm-2708 2896c1120,-42 2599,-271 2534,1023 -15,302 -115,221 66,304 171,-207 67,-2505 70,-2899 3,-452 57,-529 484,-472 232,609 -13,3229 95,3697 61,262 175,279 157,662 -12,251 -99,424 -235,569 -172,183 -328,216 -422,335 291,746 -231,1270 -943,1300 96,374 87,397 4,770l1962 0 -14 -9689 -3759 0 0 4399z"/>
  <path class="fil2" d="M9501 5066c791,-100 1430,471 1533,1139 291,1880 -2515,2196 -2737,410 -105,-844 469,-1456 1204,-1549zm218 5277c352,-628 1590,-1835 2055,-3225 519,-1555 -680,-2946 -2150,-2923 -1425,23 -2613,1425 -2055,2955 234,641 598,1211 947,1704l827 1113c50,63 68,91 145,173l231 202z"/>
  <path class="fil3" d="M9488 10141c-77,-82 -96,-110 -145,-173l-827 -1113c-349,-494 -713,-1064 -947,-1704 -558,-1530 630,-2932 2055,-2955 1471,-24 2669,1368 2150,2923 -464,1390 -1703,2597 -2055,3225l-231 -202zm-294 -6489c-1667,294 -2925,2006 -2078,3946 348,797 792,1454 1245,2053 234,309 447,597 709,909 244,290 490,824 922,333 840,-956 2270,-2847 2476,-4062 319,-1877 -1388,-3512 -3274,-3179z"/>
  <polygon class="fil2" points="14828,11828 15749,11823 15749,7415 15509,7393 14827,7397 "/>
  <path class="fil3" d="M10477 6711c-368,987 -1978,584 -1619,-567 121,-388 614,-691 1123,-506 350,127 683,571 495,1074zm-975 -1645c-735,93 -1309,705 -1204,1549 222,1786 3028,1470 2737,-410 -103,-668 -742,-1240 -1533,-1139z"/>
  <path class="fil2" d="M10477 6711c188,-502 -146,-947 -495,-1074 -510,-185 -1002,119 -1123,506 -360,1151 1250,1554 1619,567z"/>
 </g>
</svg>
