<?xml version="1.0" encoding="UTF-8"?>
<!DOCTYPE svg PUBLIC "-//W3C//DTD SVG 1.1//EN" "http://www.w3.org/Graphics/SVG/1.1/DTD/svg11.dtd">
<!-- Creator: CorelDRAW X6 -->
<svg xmlns="http://www.w3.org/2000/svg" xml:space="preserve" width="297mm" height="210mm" version="1.1" style="shape-rendering:geometricPrecision; text-rendering:geometricPrecision; image-rendering:optimizeQuality; fill-rule:evenodd; clip-rule:evenodd"
viewBox="0 0 29700 21000"
 xmlns:xlink="http://www.w3.org/1999/xlink">
 <defs>
  <style type="text/css">
   <![CDATA[
    .str0 {stroke:#E31E24;stroke-width:7.62}
    .fil2 {fill:#009846}
    .fil0 {fill:#2B2A29}
    .fil1 {fill:#E31E24}
   ]]>
  </style>
 </defs>
 <g id="Layer_x0020_1">
  <metadata id="CorelCorpID_0Corel-Layer"/>
  <path class="fil0" d="M12622 5509c188,-114 673,-242 924,-326 462,-155 501,-61 953,85l3767 1203c324,103 620,199 941,301 166,53 324,107 486,157l359 115c74,33 62,32 89,50 -261,149 -625,220 -936,320 -467,150 -490,68 -943,-83 -697,-233 -5439,-1686 -5640,-1822zm2406 -814c261,-22 1053,-386 1200,-386l5586 1741c236,80 567,151 771,257 6,3 19,10 27,16 -204,17 -1167,386 -1285,386l-6080 -1932c-18,-6 -86,-26 -98,-30l-91 -37c-6,-3 -20,-8 -29,-14zm5013 5484c-140,-80 -126,-198 -384,-185 -123,6 -303,90 -452,120l0 -1949c121,-139 1487,-533 1750,-593 1,2675 101,1794 -461,2160 -217,141 -97,243 -235,404 171,65 -7,-25 137,116 76,75 52,87 181,116 126,28 341,-60 455,-98 372,-125 597,-90 597,-560 0,-786 -2,-1573 -2,-2359 218,-18 667,-186 862,-252l894 -262 0 7326c-494,237 -6301,1938 -6727,2142 0,-315 -2,-629 1,-944 3,-338 -43,-582 -348,-596 -525,-24 -382,855 -382,1540l-6727 -2142c0,-203 25,-725 -8,-891 -42,-210 -287,-385 -530,-250 -338,188 -175,1513 -130,1595 127,231 1677,632 2002,741 242,81 475,143 718,225 440,148 896,285 1360,439l2796 889c913,290 618,342 1424,86l4167 -1318c484,-158 945,-285 1404,-439l1373 -427c472,-154 336,-626 336,-1507l0 -5484c0,-2182 331,-1659 -1430,-2255 -479,-162 -946,-285 -1404,-439l-1365 -434c-754,-206 -2930,-974 -3488,-1098 -363,-81 -1672,454 -2109,600 -479,160 -911,304 -1382,461l-3470 1114c-1164,356 -991,96 -991,1794 0,272 -50,647 69,831 147,227 489,219 608,-26 135,-277 52,-1379 52,-1791 140,-12 396,-97 541,-144l1563 -497c294,-96 1699,459 2079,571 995,293 2175,719 3125,988 327,93 766,298 1089,325l0 86c-198,16 -1100,353 -1277,392 -162,36 -3564,-1084 -3784,-1158 -331,-111 -1895,-686 -2158,-586 -127,48 -213,178 -198,364 26,313 407,364 681,440l3377 1079c302,101 549,167 847,267 274,92 611,163 841,273l0 4113c0,478 -115,1051 384,1032 463,-18 344,-555 344,-1032l0 -4156 1842 -557c0,448 -77,2131 60,2382 179,326 568,130 855,34 578,-193 626,-146 626,-616z"/>
  <path class="fil1 str0" d="M12622 5509c201,136 4942,1589 5640,1822 452,151 476,233 943,83 311,-100 675,-171 936,-320 -27,-19 -15,-17 -89,-50l-359 -115c-162,-51 -320,-105 -486,-157 -321,-102 -617,-198 -941,-301l-3767 -1203c-451,-146 -491,-240 -953,-85 -251,84 -736,213 -924,326z"/>
  <path class="fil2" d="M5988 9622l6084 0c278,0 601,-728 -257,-728l-5698 0c-691,0 -582,728 -129,728z"/>
  <path class="fil2" d="M8044 3366c0,253 144,386 386,386l5141 0c522,0 503,-728 43,-728l-5227 0c-207,0 -343,136 -343,343z"/>
  <path class="fil2" d="M3074 10736c0,157 118,343 257,343l5356 0c451,0 351,-686 43,-686l-5313 0c-207,0 -343,136 -343,343z"/>
  <path class="fil1 str0" d="M20041 10179c117,-10 117,-20 218,-43 138,-161 19,-263 235,-404 563,-366 463,515 461,-2160 -263,61 -1630,455 -1750,593l0 1949c149,-30 330,-114 452,-120 257,-13 244,106 384,185z"/>
  <path class="fil2" d="M6930 12578l3299 0c514,0 524,-728 0,-728l-3299 0c-491,0 -491,728 0,728z"/>
  <path class="fil2" d="M5474 4994c0,143 158,343 300,343l2614 0c504,0 394,-686 86,-686l-2656 0c-235,0 -343,188 -343,343z"/>
  <path class="fil2" d="M5559 12192c0,125 2,184 79,264 508,531 940,-606 306,-606 -228,0 -386,111 -386,343z"/>
  <path class="fil2" d="M4617 9279c0,291 205,343 428,343 214,0 427,-429 162,-635 -233,-180 -590,-24 -590,292z"/>
 </g>
</svg>
