<?xml version="1.0" encoding="UTF-8"?>
<!DOCTYPE svg PUBLIC "-//W3C//DTD SVG 1.1//EN" "http://www.w3.org/Graphics/SVG/1.1/DTD/svg11.dtd">
<!-- Creator: CorelDRAW X6 -->
<svg xmlns="http://www.w3.org/2000/svg" xml:space="preserve" width="297mm" height="210mm" version="1.1" style="shape-rendering:geometricPrecision; text-rendering:geometricPrecision; image-rendering:optimizeQuality; fill-rule:evenodd; clip-rule:evenodd"
viewBox="0 0 29700 21000"
 xmlns:xlink="http://www.w3.org/1999/xlink">
 <defs>
  <style type="text/css">
   <![CDATA[
    .fil0 {fill:black}
    .fil1 {fill:#00D2FF}
    .fil4 {fill:#00F076}
    .fil3 {fill:#FE3944}
    .fil2 {fill:#FEFEFE}
    .fil5 {fill:#FFCA00}
   ]]>
  </style>
 </defs>
 <g id="Layer_x0020_1">
  <metadata id="CorelCorpID_0Corel-Layer"/>
  <g id="_645464192">
   <polygon class="fil0" points="2282,15919 27684,15919 27684,3218 2282,3218 "/>
   <path class="fil1" d="M2754 12210c269,-225 1638,-1618 1987,-1960l677 -657 0 -18c-119,-71 -483,-452 -669,-653 -309,-333 -963,-944 -1325,-1299 -103,-101 -204,-215 -323,-333 -93,-93 -249,-280 -359,-327 -157,189 -92,944 -92,1252l0 2731c0,279 -76,1130 104,1266z"/>
   <path class="fil2" d="M17540 11558c4,331 -48,547 -321,628 -133,39 -280,25 -393,-37 -137,-76 -143,-140 -235,-252l-336 132c50,176 227,339 360,417 423,247 1305,183 1305,-866l-1 -1562 -377 -6 -5 140c-125,-84 -186,-165 -405,-190 -188,-22 -345,27 -489,103 -840,444 -448,1776 478,1686 223,-22 291,-116 419,-193z"/>
   <path class="fil2" d="M21343 11699l399 0 1 -996c442,-45 688,79 1061,-151 563,-346 497,-1255 -253,-1461 -249,-68 -910,-36 -1206,-35l-3 2643z"/>
   <path class="fil2" d="M12029 10236l-1293 -5 -5 377 916 6c15,441 -442,754 -899,758 -1049,11 -1396,-1332 -571,-1867 171,-111 413,-183 669,-157 303,31 400,141 580,256l266 -254c-320,-421 -1211,-540 -1782,-134 -1282,912 -390,2818 1152,2506 589,-119 1139,-719 968,-1487z"/>
   <path class="fil3" d="M2754 12210c176,253 642,-88 925,-249l2628 -1481c-44,-87 -371,-385 -441,-453 -124,-122 -324,-344 -448,-434l-677 657c-350,343 -1719,1735 -1987,1960z"/>
   <path class="fil4" d="M2741 6962c110,48 266,235 359,327 119,119 220,232 323,333 362,356 1017,966 1325,1299 186,201 550,582 669,653 137,-81 316,-315 449,-444 131,-127 319,-336 449,-434l-2631 -1486c-149,-88 -298,-174 -448,-251 -73,-38 -157,-83 -244,-92 -101,-10 -190,18 -253,93z"/>
   <path class="fil2" d="M12997 9964c-1221,155 -981,1927 227,1783 471,-56 849,-467 784,-1013 -55,-461 -490,-836 -1011,-770z"/>
   <path class="fil2" d="M14988 9964c-1215,158 -977,1921 226,1783 470,-54 856,-467 787,-1015 -58,-458 -486,-836 -1013,-768z"/>
   <path class="fil5" d="M5418 9575l0 18c124,90 324,312 448,434 69,68 397,366 441,453l1032 -575c634,-359 -60,-678 -306,-812 -144,-79 -605,-356 -717,-395 -131,98 -319,307 -449,434 -133,129 -312,362 -449,444z"/>
   <path class="fil2" d="M24078 10352l319 142c86,-42 158,-233 486,-176 181,32 314,148 319,348 -295,-88 -479,-150 -799,-17 -550,228 -507,941 103,1083 456,106 624,-183 697,-233l2 195 385 2c0,-308 0,-614 0,-920 0,-288 -53,-499 -259,-654 -379,-284 -1127,-192 -1254,230z"/>
   <path class="fil2" d="M20443 11346l-293 -187c-142,102 -169,235 -446,241 -237,5 -380,-116 -441,-265l1201 -503c-260,-965 -1525,-848 -1663,66 -74,496 199,848 540,990 450,187 971,-49 1102,-341z"/>
   <path class="fil2" d="M25937 12500l400 0 1100 -2487c-553,-7 -393,-128 -670,564 -48,119 -192,513 -244,572l-472 -1136 -426 -6c40,140 460,1051 553,1258 157,348 190,269 29,614 -57,122 -257,532 -269,621z"/>
   <path class="fil2" d="M15621 6810c-857,230 -541,1538 343,1326 327,-79 593,-419 492,-844 -74,-313 -427,-591 -835,-481z"/>
   <polygon class="fil2" points="23397,11699 23797,11699 23797,9056 23400,9056 "/>
   <polygon class="fil2" points="18196,11698 18591,11698 18596,9064 18198,9056 "/>
   <path class="fil0" d="M12998 10325c-672,146 -453,1222 223,1059 630,-152 456,-1207 -223,-1059z"/>
   <path class="fil0" d="M14989 10326c-661,148 -460,1218 223,1059 640,-149 452,-1210 -223,-1059z"/>
   <path class="fil0" d="M16979 10326c-644,152 -462,1196 204,1064 609,-121 457,-1219 -204,-1064z"/>
   <path class="fil0" d="M21742 10323c126,18 607,18 713,-15 426,-130 417,-728 13,-858 -112,-36 -590,-36 -722,-20l-4 893z"/>
   <path class="fil2" d="M16666 8123l207 0 -1 -966c114,135 558,931 651,968l168 0 8 -1310 -207 4 0 894c-42,-30 -16,-5 -53,-49l-107 -168c-51,-78 -94,-152 -148,-234 -315,-483 -196,-447 -515,-447l-2 1308z"/>
   <path class="fil2" d="M10674 7430c-78,-48 -582,-28 -664,-21l1 186 459 5c-66,478 -763,456 -894,28 -173,-565 548,-841 786,-492 68,-32 125,-86 153,-152 -618,-528 -1428,108 -1104,788 312,654 1395,415 1263,-343z"/>
   <path class="fil0" d="M15683 7000c-589,152 -410,1068 217,945 239,-47 414,-294 352,-597 -46,-227 -282,-422 -569,-348z"/>
   <polygon class="fil2" points="10878,8123 11667,8124 11668,7933 11086,7926 11086,7572 11604,7567 11611,7376 11087,7372 11088,7015 11668,7013 11669,6815 10879,6816 "/>
   <polygon class="fil2" points="11800,7013 12154,7015 12159,8126 12358,8125 12367,7019 12723,7013 12723,6815 11801,6815 "/>
   <polygon class="fil2" points="13693,7011 14044,7014 14053,8124 14254,8124 14260,7014 14618,7012 14618,6820 13694,6815 "/>
   <path class="fil0" d="M25196 10987c-291,-211 -950,-45 -749,294 147,248 716,103 749,-294z"/>
   <polygon class="fil2" points="13319,8123 13527,8122 13527,6817 13322,6815 "/>
   <path class="fil0" d="M19188 10819c106,-27 761,-290 802,-340 -253,-364 -800,-130 -802,340z"/>
  </g>
 </g>
</svg>
