<?xml version="1.0" encoding="UTF-8"?>
<!DOCTYPE svg PUBLIC "-//W3C//DTD SVG 1.1//EN" "http://www.w3.org/Graphics/SVG/1.1/DTD/svg11.dtd">
<!-- Creator: CorelDRAW X6 -->
<svg xmlns="http://www.w3.org/2000/svg" xml:space="preserve" width="297mm" height="210mm" version="1.1" style="shape-rendering:geometricPrecision; text-rendering:geometricPrecision; image-rendering:optimizeQuality; fill-rule:evenodd; clip-rule:evenodd"
viewBox="0 0 29700 21000"
 xmlns:xlink="http://www.w3.org/1999/xlink">
 <defs>
  <style type="text/css">
   <![CDATA[
    .fil0 {fill:#9D9E9E}
    .fil1 {fill:#FEFEFE}
   ]]>
  </style>
 </defs>
 <g id="Layer_x0020_1">
  <metadata id="CorelCorpID_0Corel-Layer"/>
  <path class="fil0" d="M11101 8261l92 0 1667 0 -1 6161 -1759 -2 1 -6158zm7905 2530c27,47 22,48 22,113 6,522 22,3398 -6,3519 -98,21 -1693,18 -1763,-3 -34,-185 -7,-712 -7,-933 0,-946 15,-1877 -21,-2818 5,-202 -187,-445 -323,-523 -350,-201 -1016,-194 -1267,195 -138,213 -140,411 -140,702 0,1123 -7,2248 0,3377l-1760 -3 1 -6157 1758 7 12 818c126,-502 416,-679 932,-783 446,-90 1161,-47 1519,127 213,103 327,187 492,364 112,120 259,367 317,539 121,356 260,1036 235,1458zm-7187 -4712c816,-187 1328,828 861,1390 -136,164 -294,280 -536,334 -796,175 -1345,-796 -873,-1393 166,-211 302,-274 548,-330zm-3810 -1455c26,31 4,-12 18,37l10 10556c0,442 -3,885 0,1327 1,204 27,403 127,535 404,534 794,416 1564,417l6615 -2c882,0 1773,14 2653,1l1624 -30c281,-9 644,-82 908,-86 93,-2 80,6 140,-30 225,-135 419,-439 424,-716 8,-441 1,-886 0,-1328 0,-875 16,-1762 2,-2636 -14,-880 1,-1772 1,-2653 0,-883 -11,-1771 0,-2653 10,-883 -7,-1770 -2,-2653 2,-428 41,-701 -287,-1029 -46,-46 -44,-41 -97,-77 -42,-29 -47,-44 -87,-69 -200,-122 -654,-91 -880,-91l-348 0 -350 0 -348 0 -350 0 -348 0 -350 0 -348 0 -350 0 -348 0 -350 0 -348 0 -350 0 -348 0 -350 0 -348 0 -350 0 -348 0 -350 0 -348 0 -350 0 -348 0 -350 0 -348 0 -350 0 -348 0 -350 0 -348 0 -350 0 -348 0 -350 0 -348 0 -350 0 -348 0 -352 0c-331,3 -454,146 -662,358 -105,107 -193,421 -192,576 0,82 6,168 -7,247z"/>
  <path class="fil1" d="M17231 10669c37,39 6,-41 32,50l7 168c14,1163 -19,2365 1,3527l1742 -2c7,-603 1,-1211 1,-1815l-8 -1807c26,-423 -114,-1103 -235,-1458 -58,-172 -205,-419 -317,-539 -164,-177 -279,-261 -492,-364 -358,-174 -1073,-217 -1519,-127 -516,104 -806,281 -932,783l-12 -818 -1758 -7 -1 6157 1760 3c-7,-1128 0,-2253 0,-3377 0,-291 2,-489 140,-702 251,-389 918,-396 1267,-195 136,78 328,321 323,523z"/>
  <polygon class="fil1" points="11101,14419 12859,14421 12860,8260 11193,8260 11101,8261 "/>
  <path class="fil1" d="M11819 6079c-246,56 -382,119 -548,330 -471,597 78,1568 873,1393 242,-53 400,-169 536,-334 467,-562 -45,-1577 -861,-1390z"/>
 </g>
</svg>
