<?xml version="1.0" encoding="UTF-8"?>
<!DOCTYPE svg PUBLIC "-//W3C//DTD SVG 1.1//EN" "http://www.w3.org/Graphics/SVG/1.1/DTD/svg11.dtd">
<!-- Creator: CorelDRAW X6 -->
<svg xmlns="http://www.w3.org/2000/svg" xml:space="preserve" width="297mm" height="210mm" version="1.1" style="shape-rendering:geometricPrecision; text-rendering:geometricPrecision; image-rendering:optimizeQuality; fill-rule:evenodd; clip-rule:evenodd"
viewBox="0 0 29700 21000"
 xmlns:xlink="http://www.w3.org/1999/xlink">
 <defs>
  <style type="text/css">
   <![CDATA[
    .fil0 {fill:#9D9E9E}
   ]]>
  </style>
 </defs>
 <g id="Layer_x0020_1">
  <metadata id="CorelCorpID_0Corel-Layer"/>
  <g id="_798397792">
   <path class="fil0" d="M17624 16379l-4831 0c-598,0 -913,-95 -1347,-309 -287,-142 -533,-358 -744,-595 -18,-20 -19,-26 -37,-47l-110 -143c-83,-124 -186,-287 -244,-421 -136,-316 -229,-663 -229,-1111l0 -5020c0,-337 46,-548 131,-840 60,-207 214,-484 327,-654 277,-417 710,-747 1177,-932 37,-15 82,-33 123,-46 280,-87 531,-133 848,-133l5031 0c515,0 1036,147 1420,405 37,25 65,43 101,68 36,24 62,44 97,71 25,18 24,20 46,39 21,18 27,19 47,37 246,219 526,551 653,855 189,454 252,721 252,1257l0 4788c0,464 -67,826 -208,1153 -72,167 -142,296 -237,438 -133,200 -235,297 -396,458 -124,125 -331,264 -488,356 -407,236 -909,327 -1381,327zm-8480 -7742l0 5231c0,261 50,566 103,772 56,218 82,296 166,498 70,166 126,281 216,438l176 267c34,45 60,84 95,126l316 348c323,323 642,509 1054,707 53,26 102,41 159,63 414,162 871,229 1321,229l4915 0c588,0 969,-87 1499,-305l303 -151c186,-113 374,-224 537,-370l116 -105c329,-290 485,-527 701,-882l152 -302c160,-384 234,-647 280,-1080 14,-131 19,-286 19,-434l0 -4894c0,-299 -26,-548 -77,-799 -84,-417 -278,-894 -521,-1241 -33,-47 -57,-85 -91,-130 -17,-23 -27,-37 -45,-60l-98 -124c-19,-24 -37,-36 -56,-60 -38,-47 -64,-72 -107,-115l-467 -408c-212,-160 -341,-221 -557,-329l-312 -131c-153,-51 -165,-61 -339,-104 -180,-45 -203,-42 -373,-71 -125,-21 -268,-35 -408,-35l-5231 0c-490,0 -1173,169 -1607,428 -29,17 -47,23 -76,41 -92,54 -178,107 -264,169l-244 188c-41,38 -70,61 -111,100l-186 183c-2,2 -4,4 -5,5 -11,12 -14,16 -25,28 -124,129 -185,214 -289,354 -389,525 -642,1309 -642,1953z"/>
   <path class="fil0" d="M12878 11253c0,-169 27,-374 59,-521 17,-78 39,-149 64,-221 40,-119 117,-302 177,-403l115 -181c226,-299 425,-506 757,-699l293 -139c445,-179 891,-205 1369,-110 381,76 845,323 1114,594l132 142c27,27 37,45 63,74l254 390c11,19 15,31 24,50 65,144 114,244 156,414 82,334 76,388 76,715 0,315 -104,621 -218,889 -29,69 -62,115 -94,180 -28,55 -72,119 -107,167 -38,52 -77,108 -120,154l-206 217c-126,127 -411,320 -581,389 -64,26 -121,58 -193,82 -481,160 -901,189 -1401,65 -323,-80 -640,-251 -889,-461l-113 -98c-80,-61 -93,-99 -140,-145 -120,-120 -258,-346 -342,-502l-124 -308c-71,-255 -122,-428 -122,-732zm-939 -42c0,496 70,798 231,1246 84,235 365,713 563,924 116,124 218,237 349,347 172,145 203,154 337,253 112,83 381,218 514,277 184,83 413,148 613,189 581,118 1228,84 1780,-127l529 -252c78,-52 161,-94 238,-152l318 -262c37,-37 67,-56 105,-95 18,-18 31,-29 48,-48l263 -317c19,-29 26,-33 46,-59 104,-137 282,-463 346,-624 215,-544 248,-805 248,-1407 0,-159 -29,-374 -65,-525 -12,-51 -20,-109 -36,-164 -54,-187 -127,-402 -215,-576 -110,-219 -137,-252 -251,-435 -15,-24 -28,-40 -44,-61 -430,-571 -893,-929 -1583,-1180 -731,-266 -1566,-231 -2283,56 -54,22 -89,40 -140,60 -71,29 -325,165 -389,213 -119,89 -197,126 -348,253l-312 300c-230,229 -509,681 -626,988 -144,380 -236,742 -236,1177z"/>
   <path class="fil0" d="M18467 7509c0,209 111,375 275,442 563,228 940,-543 406,-849 -242,-139 -682,27 -682,407z"/>
  </g>
 </g>
</svg>
