<?xml version="1.0" encoding="UTF-8"?>
<!DOCTYPE svg PUBLIC "-//W3C//DTD SVG 1.1//EN" "http://www.w3.org/Graphics/SVG/1.1/DTD/svg11.dtd">
<!-- Creator: CorelDRAW X6 -->
<svg xmlns="http://www.w3.org/2000/svg" xml:space="preserve" width="297mm" height="210mm" version="1.1" style="shape-rendering:geometricPrecision; text-rendering:geometricPrecision; image-rendering:optimizeQuality; fill-rule:evenodd; clip-rule:evenodd"
viewBox="0 0 29700 21000"
 xmlns:xlink="http://www.w3.org/1999/xlink">
 <defs>
  <style type="text/css">
   <![CDATA[
    .fil2 {fill:#009846}
    .fil1 {fill:#2B2A29}
    .fil0 {fill:#E31E24}
   ]]>
  </style>
 </defs>
 <g id="Layer_x0020_1">
  <metadata id="CorelCorpID_0Corel-Layer"/>
  <path class="fil0" d="M18639 9829l-127 -2044 -1343 414 17 2101c0,0 321,-142 1453,-471z"/>
  <path class="fil1" d="M17502 9646c-86,4 -194,26 -325,34l-8 -1481 1343 -414 -3 1507c-652,189 -549,654 -195,622 54,-5 117,-27 211,-53 622,-169 541,-241 540,-1250 0,-342 0,-685 0,-1027 0,0 1232,-253 1232,-342l0 5614c-802,187 -555,772 132,546 326,-107 250,-116 484,-273 0,-914 109,-6065 -68,-6435 -163,-222 8,-69 -296,-183l-2589 -834c-516,-172 -991,-322 -1506,-480 -297,-91 -1283,-471 -1497,-474 -233,-3 -4018,1287 -4519,1424 -498,136 -1053,290 -1438,548l0 6504c359,190 840,337 1241,471 240,80 428,141 668,226 333,117 316,152 624,-11 -7,-323 -40,-352 -298,-455 -258,-104 -364,-108 -592,-229 0,-574 100,-1538 -137,-1985 -595,13 -411,402 -411,1780 -247,-21 -326,-85 -548,-137l0 -5819c196,-94 550,-199 761,-266 1258,-399 767,-313 2457,197l2801 896c252,83 209,11 348,200 -572,13 -665,367 -1272,181 -267,-82 -324,-127 -615,-211l-3280 -1044c-543,-118 -764,352 -30,589 445,143 863,273 1304,408l2593 830 -2 2877c27,353 117,470 481,478 225,-425 137,-892 137,-1575 0,-593 0,-1187 0,-1780 246,-57 436,-137 685,-205 251,-69 489,-183 753,-205 0,366 5,734 1,1099 -5,582 -178,1037 676,746 178,-61 235,-58 296,-113 192,-171 145,-506 -140,-492z"/>
  <path class="fil2" d="M13109 16279c-342,-229 -1603,-1036 -1780,-1301l1780 -1232c0,974 -264,753 2738,753 1276,0 1827,-1917 1164,-1917 -373,0 -236,543 -421,880 -163,297 -435,490 -880,490l-2054 0c0,-1502 91,-1310 -2356,383 -1120,775 -1015,660 604,1780 1762,1219 1752,1431 1752,-41l2875 0c1521,0 2807,-1286 2807,-2807 0,-754 82,-2368 -68,-3012 -324,0 -430,-11 -478,275 -86,517 167,2743 -184,3581 -161,383 -376,623 -689,885 -858,719 -2497,542 -3989,529 -848,-7 -821,-91 -821,754z"/>
  <path class="fil0" d="M10986 9570c0,341 1064,205 1712,205l-1301 3218 890 0 1057 -2640c310,-778 313,-598 313,-1399l-2670 0 0 616z"/>
  <path class="fil0" d="M12150 6162c387,241 2259,750 2866,955 1562,528 1799,746 2874,287l-4258 -1369c-799,-258 -716,-97 -1481,126z"/>
 </g>
</svg>
