<?xml version="1.0" encoding="UTF-8"?>
<!DOCTYPE svg PUBLIC "-//W3C//DTD SVG 1.1//EN" "http://www.w3.org/Graphics/SVG/1.1/DTD/svg11.dtd">
<!-- Creator: CorelDRAW X6 -->
<svg xmlns="http://www.w3.org/2000/svg" xml:space="preserve" width="297mm" height="210mm" version="1.1" style="shape-rendering:geometricPrecision; text-rendering:geometricPrecision; image-rendering:optimizeQuality; fill-rule:evenodd; clip-rule:evenodd"
viewBox="0 0 29700 21000"
 xmlns:xlink="http://www.w3.org/1999/xlink">
 <defs>
  <style type="text/css">
   <![CDATA[
    .fil0 {fill:#2B2A29}
   ]]>
  </style>
 </defs>
 <g id="Layer_x0020_1">
  <metadata id="CorelCorpID_0Corel-Layer"/>
  <g id="_645473024">
   <path class="fil0" d="M19419 5183l-10089 0c-849,0 -1651,-174 -2123,417 -420,527 -201,1052 -41,1606l690 2414c439,1562 900,1595 2532,1595l7197 0c206,-1 670,-64 670,388 0,449 -665,353 -847,353l-7302 0c-138,0 -478,-17 -593,7 -392,81 -391,734 28,734l8431 0c779,0 1423,-1119 733,-1862 -557,-598 -1622,-396 -2708,-396l-6174 0c-792,0 -945,8 -1204,-878 -53,-181 -913,-3121 -913,-3250 0,-219 180,-388 388,-388l11077 0c0,215 -155,643 -212,847 -110,395 -706,2341 -706,2575 0,160 168,353 318,353 403,0 413,-300 506,-623l1129 -3951c220,-761 146,-684 1011,-683 510,1 776,-5 776,-423 0,-245 -211,-328 -470,-353l-659 0c-1075,0 -1251,677 -1446,1517z"/>
   <path class="fil0" d="M10741 15731c-1011,0 -1052,-1517 0,-1517 816,0 987,1134 304,1433 -67,29 -233,84 -304,84zm-19 741l-43 0c-343,-3 -696,-128 -1006,-414 -86,-79 -260,-326 -309,-432 -134,-289 -141,-462 -141,-777 0,-683 693,-1376 1376,-1376 467,0 888,101 1209,449 105,114 220,296 289,452 473,1082 -400,2078 -1376,2097z"/>
   <path class="fil0" d="M17514 15731c-1011,0 -1052,-1517 0,-1517 389,0 741,359 741,741 0,397 -358,776 -741,776zm-19 741l-43 0c-343,-3 -696,-128 -1006,-414 -347,-320 -449,-742 -449,-1209 0,-683 693,-1376 1376,-1376 690,0 1212,250 1497,901 473,1082 -400,2078 -1376,2097z"/>
  </g>
 </g>
</svg>
