<?xml version="1.0" encoding="UTF-8"?>
<!DOCTYPE svg PUBLIC "-//W3C//DTD SVG 1.1//EN" "http://www.w3.org/Graphics/SVG/1.1/DTD/svg11.dtd">
<!-- Creator: CorelDRAW X6 -->
<svg xmlns="http://www.w3.org/2000/svg" xml:space="preserve" width="297mm" height="210mm" version="1.1" style="shape-rendering:geometricPrecision; text-rendering:geometricPrecision; image-rendering:optimizeQuality; fill-rule:evenodd; clip-rule:evenodd"
viewBox="0 0 29700 21000"
 xmlns:xlink="http://www.w3.org/1999/xlink">
 <defs>
  <style type="text/css">
   <![CDATA[
    .fil0 {fill:#9D9E9E}
   ]]>
  </style>
 </defs>
 <g id="Layer_x0020_1">
  <metadata id="CorelCorpID_0Corel-Layer"/>
  <path class="fil0" d="M13427 6662c2444,-386 4371,2380 2695,4657 -1376,1869 -4711,1280 -5128,-1358 -275,-1742 980,-3070 2432,-3299zm-3476 3078c71,1158 648,1698 519,1922 -312,541 -2346,1958 -2353,2785 -3,351 264,656 525,765 740,308 1604,-852 2244,-1489 1108,-1102 758,-914 1422,-627 1802,778 3449,205 4600,-1119 178,-205 363,-508 495,-800 913,-2018 68,-4222 -1777,-5152 -1305,-658 -2915,-485 -4007,275 -1100,766 -1754,2044 -1669,3440z"/>
  <path class="fil0" d="M13526 7231c-1269,251 -1979,1406 -1845,1781 59,163 239,302 480,256 351,-67 181,-331 677,-799 982,-927 1860,-187 2215,-372 202,-105 454,-589 -226,-800 -444,-138 -837,-158 -1302,-66z"/>
 </g>
</svg>
