<?xml version="1.0" encoding="UTF-8"?>
<!DOCTYPE svg PUBLIC "-//W3C//DTD SVG 1.1//EN" "http://www.w3.org/Graphics/SVG/1.1/DTD/svg11.dtd">
<!-- Creator: CorelDRAW X6 -->
<svg xmlns="http://www.w3.org/2000/svg" xml:space="preserve" width="297mm" height="210mm" version="1.1" style="shape-rendering:geometricPrecision; text-rendering:geometricPrecision; image-rendering:optimizeQuality; fill-rule:evenodd; clip-rule:evenodd"
viewBox="0 0 29700 21000"
 xmlns:xlink="http://www.w3.org/1999/xlink">
 <defs>
  <style type="text/css">
   <![CDATA[
    .fil0 {fill:#9D9E9E}
   ]]>
  </style>
 </defs>
 <g id="Layer_x0020_1">
  <metadata id="CorelCorpID_0Corel-Layer"/>
  <path class="fil0" d="M9247 9239l0 0zm0 0c-844,0 -1370,-373 -1588,-423 0,1758 1100,3153 2738,3612 1,0 78,23 82,24 74,27 28,4 73,33l-787 97c-237,33 -596,-62 -836,-62 364,759 407,1097 1229,1769 559,457 1418,806 2192,806 -39,33 13,-6 -58,48l-435 305c-987,655 -2066,1002 -3255,1155 -295,38 -1456,66 -1649,-26 38,105 -6,41 97,115 496,357 1754,883 2315,1071 3007,1011 6310,468 8769,-1011 823,-495 1553,-1135 2180,-1841l623 -753c1559,-2250 2137,-4087 2137,-6858 100,-53 181,-110 271,-187 412,-352 1426,-1279 1528,-1718 -346,183 -1502,564 -2011,564 390,-339 399,-201 922,-841 400,-489 422,-737 630,-1169 -126,34 -1556,863 -2399,882 -65,-179 -666,-588 -835,-682 -1202,-667 -2407,-606 -3599,-12 -926,461 -1765,1630 -1876,2675 -41,385 -75,1077 65,1370 -2015,0 -4165,-914 -5756,-2076 -149,-109 -265,-213 -410,-331l-915 -849c-103,-123 -411,-520 -540,-554 -61,260 -323,522 -426,1268 -208,1504 340,2644 1443,3536 29,24 54,45 76,65z"/>
 </g>
</svg>
