<?xml version="1.0" encoding="UTF-8"?>
<!DOCTYPE svg PUBLIC "-//W3C//DTD SVG 1.1//EN" "http://www.w3.org/Graphics/SVG/1.1/DTD/svg11.dtd">
<!-- Creator: CorelDRAW X6 -->
<svg xmlns="http://www.w3.org/2000/svg" xml:space="preserve" width="297mm" height="210mm" version="1.1" style="shape-rendering:geometricPrecision; text-rendering:geometricPrecision; image-rendering:optimizeQuality; fill-rule:evenodd; clip-rule:evenodd"
viewBox="0 0 29700 21000"
 xmlns:xlink="http://www.w3.org/1999/xlink">
 <defs>
  <style type="text/css">
   <![CDATA[
    .fil2 {fill:#009846}
    .fil1 {fill:#2B2A29}
    .fil0 {fill:#E31E24}
   ]]>
  </style>
 </defs>
 <g id="Layer_x0020_1">
  <metadata id="CorelCorpID_0Corel-Layer"/>
  <path class="fil0" d="M14402 3859c2633,0 4767,2134 4767,4767 0,2633 -2134,4767 -4767,4767 -2633,0 -4767,-2134 -4767,-4767 0,-2633 2134,-4767 4767,-4767zm-676 6517l-1371 -1002c-201,-158 -236,-221 -566,-193 -536,653 115,745 602,1183 315,283 985,858 1415,948 346,-56 2482,-3243 2941,-3814 221,-274 315,-405 482,-641 236,-333 317,-379 177,-791 -737,-224 -1154,891 -1988,1941l-1691 2370z"/>
  <path class="fil1" d="M10780 2774c706,-28 1355,211 2042,-27 473,-164 1073,-849 1440,-816 227,20 965,681 1445,840 654,217 1266,-36 1965,4 525,1477 888,1885 2416,2409 -1,689 -232,1414 32,2057 232,567 602,740 854,1344 -239,521 -676,781 -898,1416 -230,658 64,1265 -17,1950 -1114,454 -1600,599 -2044,1575l-446 826c-2421,-115 -1716,-113 -3288,877 -563,-144 -802,-633 -1409,-847 -808,-285 -1298,23 -2046,-41 -297,-587 -524,-1237 -920,-1604 -487,-450 -1109,-493 -1534,-866 -12,-677 217,-1318 -34,-1948 -227,-568 -661,-830 -859,-1340 208,-591 667,-825 879,-1425 220,-622 5,-1310 4,-1976 1632,-557 1770,-893 2418,-2409zm212 -767c-1195,0 -979,1142 -1538,1751 -246,267 -622,350 -1018,517 -1633,689 -334,1675 -870,2746 -748,1496 -1453,934 -110,2906 828,1216 -834,2167 1107,2948 566,228 837,281 1119,854 907,1844 558,1321 2515,1321 727,0 1479,986 1973,986 663,0 1405,-986 1973,-986 1949,0 1733,589 2589,-1247 276,-592 463,-651 1075,-898 2037,-822 408,-1622 1134,-2920 375,-671 791,-688 791,-1621 0,-276 -646,-985 -810,-1273 -315,-552 -67,-1091 -67,-1796 0,-1067 -1257,-978 -1805,-1483 -770,-710 -175,-1805 -1812,-1805 -821,0 -965,280 -1626,-127 -517,-318 -728,-750 -1443,-750 -536,0 -944,511 -1333,750 -667,410 -982,127 -1846,127z"/>
  <path class="fil1" d="M19235 8422c-671,165 -317,256 -551,1286 -794,3502 -5221,4318 -7439,2130 -1063,-1049 -1851,-3345 -779,-5208 1563,-2717 3715,-1895 4220,-2578 -377,-845 -3485,21 -4738,2284 -2412,4355 2361,8864 6643,6858 822,-385 1622,-1133 2043,-1789 285,-444 1294,-2495 601,-2983z"/>
  <path class="fil2" d="M18007 18339c-596,-50 -1202,-262 -1800,-392 -2276,-496 -1348,-503 -3634,0 -547,120 -1303,350 -1800,392 0,-1454 217,-1909 -548,-1973 -141,251 -307,2740 110,2740 732,0 3661,-916 4230,-836l3214 744c1167,261 886,236 886,-3305 0,-253 -76,-329 -329,-329 -549,0 -329,1942 -329,2959z"/>
 </g>
</svg>
