<svg xmlns="http://www.w3.org/2000/svg" width="35.168" height="35.168" viewBox="0 0 35.168 35.168">
  <path id="noun-download-4441551" d="M113.039,25.447A17.6,17.6,0,1,0,125.467,30.6a17.585,17.585,0,0,0-12.428-5.156Zm4.346,24.274L115.3,51.81h0a3.2,3.2,0,0,1-4.513,0l-2.089-2.089a1.172,1.172,0,0,1,1.658-1.658l1.516,1.516V43.032a1.172,1.172,0,0,1,2.344,0V49.58l1.516-1.516a1.172,1.172,0,0,1,1.658,1.658Zm3.274-.442a1.172,1.172,0,1,1-1.172-2.028A3.507,3.507,0,0,0,118.6,40.8a1.173,1.173,0,0,1-.883-1.161c0-.048.014-.172.021-.22h0a4.689,4.689,0,1,0-9.378.086.444.444,0,0,1,.015.136,1.172,1.172,0,0,1-.883,1.161,3.507,3.507,0,0,0-.9,6.446,1.172,1.172,0,1,1-1.172,2.028,5.85,5.85,0,0,1,.62-10.447,7.034,7.034,0,0,1,14,0,5.85,5.85,0,0,1,.618,10.447Z" transform="translate(-95.455 -25.447)" fill="#ff4b4b"/>
</svg>
