<svg id="shopping-basket" xmlns="http://www.w3.org/2000/svg" width="36" height="24" viewBox="0 0 36 24">
  <g id="Group_80" data-name="Group 80" transform="translate(-35.865 -294.531)">
    <path id="Path_178" data-name="Path 178" d="M470.511,817.922c-.115-.026-.229-.054-.344-.078a2.835,2.835,0,1,1,.941.033.675.675,0,0,0-.132.044Zm-.763-2.857a1,1,0,0,0,.987,1.005,1.02,1.02,0,0,0,1-1,1,1,0,0,0-.989-.987A.97.97,0,0,0,469.748,815.065Z" transform="translate(-416.124 -499.392)" fill="#de2b2b"/>
    <path id="Path_179" data-name="Path 179" d="M523.384,402.517a5.106,5.106,0,1,1,5.1-5.1A5.114,5.114,0,0,1,523.384,402.517Z" transform="translate(-464.555 -94.276)" fill="#de2b2b"/>
    <path id="Path_180" data-name="Path 180" d="M671.046,314.816a10.385,10.385,0,0,0,2.636-.446,8.551,8.551,0,0,0,6.015-6.457,10.6,10.6,0,0,0-.132-5.585,7.78,7.78,0,0,0-2.455-3.665c-.607-.536-1.259-1.021-1.891-1.528-.059-.047-.121-.09-.212-.158a1.171,1.171,0,0,1,.117-.016c1.944,0,3.888-.014,5.831.008a5.129,5.129,0,0,1,1.281.212,1.577,1.577,0,0,1,1.188,1.452,7.416,7.416,0,0,1-.094,2.137c-.314,1.94-.648,3.877-.969,5.816-.188,1.134-.353,2.272-.553,3.4a10.884,10.884,0,0,1-.627,2.176,3.784,3.784,0,0,1-3.049,2.432,18.83,18.83,0,0,1-3.278.223c-1.181,0-2.362,0-3.542-.008Z" transform="translate(-611.602 -2.34)" fill="#de2b2b"/>
    <path id="Path_181" data-name="Path 181" d="M326.466,312.385c-.365.028-.682.066-1,.074-.763.02-1.526.049-2.288.033a8.278,8.278,0,0,1-2.078-.287,3.6,3.6,0,0,1-2.446-2.241,11.748,11.748,0,0,1-.674-2.466c-.191-1.1-.366-2.212-.533-3.321-.145-.962-.266-1.928-.4-2.892s-.294-1.924-.415-2.89a18.244,18.244,0,0,1-.148-1.865,1.634,1.634,0,0,1,1.562-1.858,10.6,10.6,0,0,1,1.632-.141c1.5,0,2.992.042,4.488.069.19,0,.381.022.62.037-.22.156-.4.3-.6.422a9.248,9.248,0,0,0-4.382,5.752,9.511,9.511,0,0,0-.277,3.024,10.538,10.538,0,0,0,.708,3.4,8.05,8.05,0,0,0,4.068,4.273c.663.327,1.372.56,2.06.836Z" transform="translate(-270.235 0)" fill="#de2b2b"/>
    <path id="Path_182" data-name="Path 182" d="M39.771,302.866c.829,0,1.658-.018,2.486.007a2.1,2.1,0,0,1,1.144.5,2.326,2.326,0,0,1,.9,1.553c.119.678.2,1.363.293,2.044.1.735.211,1.469.312,2.2s.2,1.483.3,2.224c.089.659.182,1.317.271,1.976s.175,1.306.264,1.959.181,1.317.272,1.976c.087.629.189,1.256.26,1.887a1.1,1.1,0,0,1-1.166,1.155,1.307,1.307,0,0,1-1.207-1.218c-.087-.737-.2-1.47-.307-2.2-.1-.717-.2-1.435-.3-2.152s-.2-1.434-.306-2.151q-.134-.943-.265-1.887-.151-1.076-.3-2.152-.135-.961-.273-1.922c-.044-.305-.075-.614-.146-.913a.636.636,0,0,0-.678-.514c-1.181-.013-2.361-.02-3.542-.042a2.3,2.3,0,0,1-1.519-.471.954.954,0,0,1,.1-1.608,2.336,2.336,0,0,1,1.3-.308c.352,0,.7.014,1.055.017s.7,0,1.056,0Z" transform="translate(0 -7.984)" fill="#de2b2b"/>
    <path id="Path_183" data-name="Path 183" d="M724.7,813.866a2.835,2.835,0,1,1,2.826,2.841A2.831,2.831,0,0,1,724.7,813.866Zm2.829-.987a.99.99,0,1,0,1,.977A.993.993,0,0,0,727.533,812.878Z" transform="translate(-663.34 -498.223)" fill="#de2b2b"/>
  </g>
</svg>
