<svg xmlns="http://www.w3.org/2000/svg" width="24.116" height="17.767" viewBox="0 0 24.116 17.767">
  <g id="email" transform="translate(0 -57.088)">
    <g id="Group_3" data-name="Group 3" transform="translate(0 62.099)">
      <g id="Group_2" data-name="Group 2" transform="translate(0 0)">
        <path id="Path_2" data-name="Path 2" d="M12.756,154.119a1.371,1.371,0,0,1-1.424,0L0,147.2v9.2a3.56,3.56,0,0,0,3.559,3.559h17a3.56,3.56,0,0,0,3.559-3.559v-9.2Z" transform="translate(0 -147.2)" fill="#7fcb82"/>
      </g>
    </g>
    <g id="Group_5" data-name="Group 5" transform="translate(0.114 57.088)">
      <g id="Group_4" data-name="Group 4">
        <path id="Path_3" data-name="Path 3" d="M22.491,57.088h-17a3.538,3.538,0,0,0-3.445,2.79l11.958,7.289,11.93-7.289A3.538,3.538,0,0,0,22.491,57.088Z" transform="translate(-2.048 -57.088)" fill="#7fcb82"/>
      </g>
    </g>
  </g>
</svg>
