<svg xmlns="http://www.w3.org/2000/svg" width="21.566" height="21.57" viewBox="0 0 21.566 21.57">
  <g id="instagram" transform="translate(-0.449 0)">
    <path id="Path_4" data-name="Path 4" d="M21.96,6.342a7.882,7.882,0,0,0-.5-2.617A5.526,5.526,0,0,0,18.3.569a7.9,7.9,0,0,0-2.617-.5C14.531.013,14.164,0,11.236,0S7.941.013,6.79.063a7.884,7.884,0,0,0-2.617.5A5.263,5.263,0,0,0,2.26,1.812,5.311,5.311,0,0,0,1.017,3.721a7.9,7.9,0,0,0-.5,2.617C.461,7.492.449,7.859.449,10.787s.013,3.3.063,4.446a7.881,7.881,0,0,0,.5,2.617,5.525,5.525,0,0,0,3.156,3.156,7.9,7.9,0,0,0,2.617.5c1.15.051,1.517.063,4.446.063s3.3-.013,4.446-.063a7.88,7.88,0,0,0,2.617-.5A5.517,5.517,0,0,0,21.45,17.85a7.908,7.908,0,0,0,.5-2.617c.051-1.15.063-1.517.063-4.446s0-3.3-.055-4.446Zm-1.942,8.807a5.912,5.912,0,0,1-.371,2A3.578,3.578,0,0,1,17.6,19.2a5.933,5.933,0,0,1-2,.371c-1.138.051-1.479.063-4.357.063s-3.224-.013-4.357-.063a5.909,5.909,0,0,1-2-.371,3.319,3.319,0,0,1-1.239-.8,3.354,3.354,0,0,1-.8-1.239,5.934,5.934,0,0,1-.371-2C2.416,14.015,2.4,13.674,2.4,10.8s.013-3.224.063-4.357a5.909,5.909,0,0,1,.371-2A3.279,3.279,0,0,1,3.647,3.2a3.348,3.348,0,0,1,1.239-.8,5.937,5.937,0,0,1,2-.371c1.138-.051,1.479-.063,4.357-.063s3.224.013,4.357.063a5.912,5.912,0,0,1,2,.371,3.317,3.317,0,0,1,1.239.8,3.353,3.353,0,0,1,.8,1.239,5.936,5.936,0,0,1,.371,2c.051,1.138.063,1.479.063,4.357s-.013,3.215-.063,4.353Zm0,0" fill="#7fcb82"/>
    <path id="Path_5" data-name="Path 5" d="M130.49,124.5a5.541,5.541,0,1,0,5.541,5.541A5.543,5.543,0,0,0,130.49,124.5Zm0,9.135a3.594,3.594,0,1,1,3.594-3.594A3.595,3.595,0,0,1,130.49,133.635Zm0,0" transform="translate(-119.254 -119.254)" fill="#7fcb82"/>
    <path id="Path_6" data-name="Path 6" d="M365.037,89.9a1.294,1.294,0,1,1-1.294-1.294A1.294,1.294,0,0,1,365.037,89.9Zm0,0" transform="translate(-346.747 -84.868)" fill="#7fcb82"/>
  </g>
</svg>
