<svg id="icons_Q2" data-name="icons Q2" xmlns="http://www.w3.org/2000/svg" width="22.35" height="22.299" viewBox="0 0 22.35 22.299">
  <g id="Group_848" data-name="Group 848">
    <path id="Path_4138" data-name="Path 4138" d="M23.334,12.159H21.252A8.178,8.178,0,0,0,14.191,5.1h0V3.016a1.016,1.016,0,1,0-2.032,0V5.048h0A8.178,8.178,0,0,0,5.1,12.159H3.016a1.016,1.016,0,1,0,0,2.032H5.1a8.178,8.178,0,0,0,7.061,7.061h0v2.032a1.016,1.016,0,0,0,2.032,0V21.3h0a8.178,8.178,0,0,0,7.061-7.111h2.083a1.016,1.016,0,0,0,0-2.032ZM13.175,19.271a6.1,6.1,0,1,1,6.1-6.1A6.1,6.1,0,0,1,13.175,19.271Z" transform="translate(-2 -2)" fill="#ff4b4b"/>
    <circle id="Ellipse_163" data-name="Ellipse 163" cx="4" cy="4" r="4" transform="translate(7.175 7.175)" fill="#ff4b4b"/>
  </g>
</svg>
