<svg xmlns="http://www.w3.org/2000/svg" width="16.573" height="16.573" viewBox="0 0 16.573 16.573">
  <g id="phone-call" transform="translate(-0.539 0)">
    <g id="Group_1" data-name="Group 1" transform="translate(0.539 0)">
      <path id="Path_1" data-name="Path 1" d="M16.677,12.163,14.36,9.85a1.543,1.543,0,0,0-2.566.578,1.578,1.578,0,0,1-1.821.991,7.139,7.139,0,0,1-4.3-4.3,1.5,1.5,0,0,1,.993-1.817,1.537,1.537,0,0,0,.579-2.561L4.924.434a1.656,1.656,0,0,0-2.235,0L1.116,2c-1.573,1.652.166,6.03,4.056,9.912s8.277,5.7,9.933,4.047l1.573-1.569A1.647,1.647,0,0,0,16.677,12.163Z" transform="translate(-0.539 0)" fill="#7fcb82"/>
    </g>
  </g>
</svg>
