<svg id="noun_pay_2419673" xmlns="http://www.w3.org/2000/svg" width="60.819" height="64.078" viewBox="0 0 60.819 64.078">
  <g id="Group_808" data-name="Group 808" transform="translate(0 0)">
    <path id="Path_4119" data-name="Path 4119" d="M29.086,47.033A1.086,1.086,0,0,1,28,45.947,11.947,11.947,0,0,1,39.947,34a1.086,1.086,0,0,1,0,2.172,9.775,9.775,0,0,0-9.775,9.775A1.086,1.086,0,0,1,29.086,47.033Z" transform="translate(-1.935 -1.418)" fill="#3e3e3e"/>
    <path id="Path_4120" data-name="Path 4120" d="M29.086,47.033A1.086,1.086,0,0,1,28,45.947,11.947,11.947,0,0,1,39.947,34a1.086,1.086,0,0,1,0,2.172,9.775,9.775,0,0,0-9.775,9.775A1.086,1.086,0,0,1,29.086,47.033Z" transform="translate(-1.935 -1.418)" fill="#3e3e3e"/>
    <path id="Path_4121" data-name="Path 4121" d="M29.086,47.033A1.086,1.086,0,0,1,28,45.947,11.947,11.947,0,0,1,39.947,34a1.086,1.086,0,0,1,0,2.172,9.775,9.775,0,0,0-9.775,9.775A1.086,1.086,0,0,1,29.086,47.033Z" transform="translate(-1.935 -1.418)" fill="#3e3e3e"/>
    <path id="Path_4122" data-name="Path 4122" d="M32.6,29.377c-4.192,0-7.6-3.9-7.6-8.688S28.41,12,32.6,12s7.6,3.9,7.6,8.688S36.795,29.377,32.6,29.377Zm0-15.2c-3,0-5.43,2.921-5.43,6.516S29.6,27.2,32.6,27.2s5.43-2.921,5.43-6.516S35.6,14.172,32.6,14.172Z" transform="translate(-2.193 -3.311)" fill="#3e3e3e"/>
    <path id="Path_4123" data-name="Path 4123" d="M59.389,38.754H50.7a1.086,1.086,0,0,1-1.086-1.086V33.324A1.086,1.086,0,0,1,50.7,32.238h3.367A5.43,5.43,0,0,1,58.3,28V14.752a5.43,5.43,0,0,1-4.236-4.236H14.752a5.43,5.43,0,0,1-4.236,4.236V28a5.43,5.43,0,0,1,4.236,4.236h27.26A1.086,1.086,0,0,1,43.1,33.324v4.344a1.086,1.086,0,0,1-1.086,1.086H9.43A5.43,5.43,0,0,1,4,33.324V9.43A5.43,5.43,0,0,1,8,4.2,5.083,5.083,0,0,1,9.43,4H59.389a5.43,5.43,0,0,1,5.43,5.43V33.324a5.43,5.43,0,0,1-4,5.235A5.083,5.083,0,0,1,59.389,38.754Zm-7.6-2.172h7.6a3.128,3.128,0,0,0,.847-.119,3.258,3.258,0,0,0,2.411-3.139V9.43a3.258,3.258,0,0,0-3.258-3.258H9.43a3.128,3.128,0,0,0-.847.119A3.258,3.258,0,0,0,6.172,9.43V33.324A3.258,3.258,0,0,0,9.43,36.582h31.5V34.41H13.775a1.086,1.086,0,0,1-1.086-1.086A3.258,3.258,0,0,0,9.43,30.065a1.086,1.086,0,0,1-1.086-1.086v-15.2A1.086,1.086,0,0,1,9.43,12.688,3.258,3.258,0,0,0,12.688,9.43a1.086,1.086,0,0,1,1.086-1.086h41.27A1.086,1.086,0,0,1,56.131,9.43a3.258,3.258,0,0,0,3.258,3.258,1.086,1.086,0,0,1,1.086,1.086v15.2a1.086,1.086,0,0,1-1.086,1.086,3.258,3.258,0,0,0-3.258,3.258,1.086,1.086,0,0,1-1.086,1.086H51.787Z" transform="translate(-4 -4)" fill="#3e3e3e"/>
    <path id="Path_4124" data-name="Path 4124" d="M41.979,55.668H25.688A8.688,8.688,0,0,1,17,46.98V36.119a1.086,1.086,0,0,1,1.086-1.086H39.807v-7.6A5.43,5.43,0,0,1,44.977,22a5.246,5.246,0,0,1,3.888,1.488,5.789,5.789,0,0,1,1.8,4.192v19.3A8.688,8.688,0,0,1,41.979,55.668ZM19.172,37.205V46.98A6.516,6.516,0,0,0,25.688,53.5H41.979A6.516,6.516,0,0,0,48.5,46.98V27.68a3.638,3.638,0,0,0-1.086-2.617,3.019,3.019,0,0,0-2.281-.891,3.258,3.258,0,0,0-3.15,3.258v8.688a1.086,1.086,0,0,1-1.086,1.086Z" transform="translate(-2.881 -2.451)" fill="#3e3e3e"/>
    <path id="Path_4125" data-name="Path 4125" d="M54.7,34.065H50.356a1.086,1.086,0,0,1-1.086-1.086V28.885a3.638,3.638,0,0,0-1.086-2.617,3.019,3.019,0,0,0-2.281-.891,3.258,3.258,0,0,0-3.15,3.258v4.344a1.086,1.086,0,0,1-1.086,1.086H13.43a1.086,1.086,0,0,1-1.086-1.086,3.258,3.258,0,0,0-3.258-3.258A1.086,1.086,0,0,1,8,28.635V13.43a1.086,1.086,0,0,1,1.086-1.086,3.258,3.258,0,0,0,3.258-3.258A1.086,1.086,0,0,1,13.43,8H54.7a1.086,1.086,0,0,1,1.086,1.086,3.258,3.258,0,0,0,3.258,3.258,1.086,1.086,0,0,1,1.086,1.086v15.2a1.086,1.086,0,0,1-1.086,1.086,3.258,3.258,0,0,0-3.258,3.258A1.086,1.086,0,0,1,54.7,34.065Zm-3.258-2.172h2.281a5.43,5.43,0,0,1,4.236-4.236V14.408a5.43,5.43,0,0,1-4.236-4.236H14.408a5.43,5.43,0,0,1-4.236,4.236v13.25a5.43,5.43,0,0,1,4.236,4.236H40.582V28.635a5.43,5.43,0,0,1,5.17-5.43,5.246,5.246,0,0,1,3.888,1.488,5.789,5.789,0,0,1,1.8,4.192Z" transform="translate(-3.656 -3.656)" fill="#3e3e3e"/>
    <path id="Path_4126" data-name="Path 4126" d="M43.979,64.033H23.344A4.344,4.344,0,0,1,19,59.688V55.344A4.344,4.344,0,0,1,23.344,51H43.979a4.344,4.344,0,0,1,4.344,4.344v4.344A4.344,4.344,0,0,1,43.979,64.033ZM23.344,53.172a2.172,2.172,0,0,0-2.172,2.172v4.344a2.172,2.172,0,0,0,2.172,2.172H43.979a2.172,2.172,0,0,0,2.172-2.172V55.344a2.172,2.172,0,0,0-2.172-2.172Z" transform="translate(-2.709 0.045)" fill="#3e3e3e"/>
  </g>
</svg>
