<svg id="noun_pay_3615751" xmlns="http://www.w3.org/2000/svg" width="80.356" height="56.919" viewBox="0 0 80.356 56.919">
  <path id="Path_4117" data-name="Path 4117" d="M77.334,7A1.674,1.674,0,0,0,75.66,8.674V13.7H49.879a11.936,11.936,0,0,0-9.291,4.42L38.73,20.393H12.53a5.642,5.642,0,0,0-5.508,5.742v2.628H3.674a1.674,1.674,0,0,0,0,3.348H20.415a1.674,1.674,0,0,0,0-3.348H10.37V26.135a2.294,2.294,0,0,1,2.16-2.394H47.2l-4.637,4.671a6.01,6.01,0,0,0,0,8.37,5.91,5.91,0,0,0,8.37,0l4.554-4.6a10.128,10.128,0,0,0,8.471,1.389V43.83H10.37V42.156a1.674,1.674,0,1,0-3.348,0V58.177A5.625,5.625,0,0,0,12.5,63.919H61.815a5.625,5.625,0,0,0,5.474-5.742V46.843a13.393,13.393,0,0,0,4.537-4.687H75.66V45.5a1.674,1.674,0,1,0,3.348,0V8.674A1.674,1.674,0,0,0,77.334,7ZM63.941,47.178V52.2H10.37V47.178ZM61.815,60.571H12.5a2.277,2.277,0,0,1-2.126-2.394V55.549H63.941v2.628a2.277,2.277,0,0,1-2.126,2.394Zm9.023-21.763a1.674,1.674,0,0,0-1.523.971,11.836,11.836,0,0,1-2.026,2.812V32.111h0q.552-.352,1.1-.753a1.674,1.674,0,0,0-2.009-2.679,10.045,10.045,0,0,1-2.143,1.289,7.014,7.014,0,0,1-7.718-1.122,1.858,1.858,0,0,0-1.189-.5,1.674,1.674,0,0,0-1.189.5L48.54,34.489a2.612,2.612,0,0,1-3.666-3.716l6.964-7.031h3.733a1.674,1.674,0,1,0,0-3.348H43.049l.134-.151a8.571,8.571,0,0,1,6.7-3.2H75.66V38.808Z" transform="translate(1.348 -7)" fill="#515151"/>
  <path id="Path_4118" data-name="Path 4118" d="M30.134,25.674A1.674,1.674,0,0,0,28.46,24H1.674a1.674,1.674,0,0,0,0,3.348H28.46A1.674,1.674,0,0,0,30.134,25.674Z" transform="translate(0 4.46)" fill="#515151"/>
</svg>
