<svg id="noun_Card_3888379" xmlns="http://www.w3.org/2000/svg" width="63.813" height="47.86" viewBox="0 0 63.813 47.86">
  <path id="Path_4111" data-name="Path 4111" d="M5,9.994A1.994,1.994,0,0,1,6.994,8H34.913a1.994,1.994,0,1,1,0,3.988H6.994A1.994,1.994,0,0,1,5,9.994Z" transform="translate(4.971 7.953)" fill="#585050"/>
  <path id="Path_4112" data-name="Path 4112" d="M6.994,14a1.994,1.994,0,1,0,0,3.988h3.324a1.994,1.994,0,0,0,0-3.988Z" transform="translate(4.971 13.918)" fill="#585050"/>
  <path id="Path_4113" data-name="Path 4113" d="M11.994,14a1.994,1.994,0,1,0,0,3.988h6.647a1.994,1.994,0,1,0,0-3.988Z" transform="translate(9.942 13.918)" fill="#585050"/>
  <path id="Path_4114" data-name="Path 4114" d="M18.661,14a1.994,1.994,0,1,0,0,3.988h6.647a1.994,1.994,0,0,0,0-3.988Z" transform="translate(16.57 13.918)" fill="#585050"/>
  <path id="Path_4115" data-name="Path 4115" d="M25.327,14a1.994,1.994,0,1,0,0,3.988h3.324a1.994,1.994,0,1,0,0-3.988Z" transform="translate(23.197 13.918)" fill="#585050"/>
  <path id="Path_4116" data-name="Path 4116" d="M0,9.971A9.971,9.971,0,0,1,9.971,0H53.843a9.971,9.971,0,0,1,9.971,9.971V37.889a9.971,9.971,0,0,1-9.971,9.971H9.971A9.971,9.971,0,0,1,0,37.889ZM9.971,3.988A5.983,5.983,0,0,0,3.988,9.971V37.889a5.982,5.982,0,0,0,5.983,5.983H53.843a5.982,5.982,0,0,0,5.983-5.983V9.971a5.982,5.982,0,0,0-5.983-5.983Z" fill="#585050" fill-rule="evenodd"/>
</svg>
