<svg xmlns="http://www.w3.org/2000/svg" width="53.123" height="47.216" viewBox="0 0 53.123 47.216">
  <g id="wallet-outline" transform="translate(0.9 0.916)">
    <path id="Path_4013" data-name="Path 4013" d="M9.3,10.125H48.776A5.922,5.922,0,0,1,54.7,16.047V39.735a5.922,5.922,0,0,1-5.922,5.922H9.3a5.922,5.922,0,0,1-5.922-5.922V16.047A5.922,5.922,0,0,1,9.3,10.125Z" transform="translate(-3.375 -0.257)" fill="none" stroke="#515151" stroke-linejoin="round" stroke-width="1.8"/>
    <path id="Path_4014" data-name="Path 4014" d="M48.2,14.369v-3.7A6.169,6.169,0,0,0,40.88,4.61L8.388,10.156A6.169,6.169,0,0,0,3.375,16.22v6.045" transform="translate(-3.375 -4.501)" fill="none" stroke="#515151" stroke-linejoin="round" stroke-width="1.8"/>
    <path id="Path_4015" data-name="Path 4015" d="M27.573,25.9a3.948,3.948,0,1,1,3.948-3.948A3.948,3.948,0,0,1,27.573,25.9Z" transform="translate(11.907 5.686)" fill="#515151"/>
  </g>
</svg>
