<svg id="Group_23" data-name="Group 23" xmlns="http://www.w3.org/2000/svg" width="75.766" height="75.766" viewBox="0 0 75.766 75.766">
  <g id="Group_22" data-name="Group 22">
    <path id="Path_40" data-name="Path 40" d="M75.408,27.245l-12.22-12.22a1.222,1.222,0,0,0-.645-.337L49.1,12.243a1.222,1.222,0,0,0-1.421.984,1.209,1.209,0,0,0-.02.218,7.255,7.255,0,0,1-.1,1.158l-8.45-2.112V12.1a6.11,6.11,0,1,0-7.332-5.988h2.444a3.666,3.666,0,1,1,3.666,3.666A1.222,1.222,0,0,0,36.662,11v1.49L28.211,14.6a7.255,7.255,0,0,1-.1-1.158,1.222,1.222,0,0,0-.439-.939,1.194,1.194,0,0,0-1-.263L13.224,14.687a1.222,1.222,0,0,0-.645.337L.359,27.245a1.222,1.222,0,0,0,0,1.728l9.776,9.776a1.222,1.222,0,0,0,1.728,0l2.8-2.8V44H6.111a6.092,6.092,0,0,0-3.628,11,6.054,6.054,0,0,0,0,9.776,6.092,6.092,0,0,0,3.628,11H50.1a1.222,1.222,0,0,0,.864-.358l9.776-9.776a1.211,1.211,0,0,0,.347-.864H61.1V35.947l2.8,2.8a1.222,1.222,0,0,0,1.728,0l9.776-9.776A1.222,1.222,0,0,0,75.408,27.245ZM37.884,14.7l8.887,2.222a9.971,9.971,0,0,1-8.887,4.921A9.971,9.971,0,0,1,29,16.925ZM2.445,50.105a3.666,3.666,0,0,1,3.666-3.666H33a3.666,3.666,0,0,1,0,7.332H6.111A3.666,3.666,0,0,1,2.445,50.105Zm0,9.776a3.666,3.666,0,0,1,3.666-3.666H33a3.666,3.666,0,0,1,0,7.332H6.111A3.666,3.666,0,0,1,2.445,59.882ZM33,73.324H6.111a3.666,3.666,0,0,1,0-7.332H33a3.666,3.666,0,1,1,0,7.332ZM51.326,71.6v-5.6h5.6ZM64.768,36.157l-7.69-7.69L55.35,30.195,58.658,33.5V63.548H50.1a1.222,1.222,0,0,0-1.222,1.222v8.554H37.852a6.027,6.027,0,0,0-1.088-8.454q-.066-.051-.134-.1a6.054,6.054,0,0,0,0-9.776A6.092,6.092,0,0,0,33,44H17.109V33.5l3.308-3.308-1.728-1.728L11,36.157,2.951,28.109,14.037,17.022,25.768,14.89c.8,5.3,5.927,9.4,12.113,9.4s11.314-4.1,12.113-9.4l11.731,2.132L72.817,28.109Z" transform="translate(0 -0.002)" fill="#3b903f"/>
    <rect id="Rectangle_48" data-name="Rectangle 48" width="28.75" height="2.5" transform="translate(5.385 49.133)" fill="#3b903f"/>
    <rect id="Rectangle_49" data-name="Rectangle 49" width="27.5" height="2.5" transform="translate(5.385 59.133)" fill="#3b903f"/>
    <rect id="Rectangle_50" data-name="Rectangle 50" width="27.5" height="2.5" transform="translate(5.385 67.883)" fill="#3b903f"/>
  </g>
</svg>
