<svg xmlns="http://www.w3.org/2000/svg" width="68.278" height="73.989" viewBox="0 0 68.278 73.989">
  <g id="cosmetics" transform="translate(-19.759 0)">
    <g id="Group_21" data-name="Group 21" transform="translate(19.759 0)">
      <path id="Path_22" data-name="Path 22" d="M82.937,40.4H70.928a1.445,1.445,0,1,0,0,2.89H82.937a1,1,0,0,1,1,1v6.346H44.915V44.285a1,1,0,0,1,1-1H57.922a1.445,1.445,0,0,0,0-2.89H53.61L56.875,4.7A4.308,4.308,0,0,0,52.585,0H24.067a4.308,4.308,0,0,0-4.29,4.7l4.968,54.325v9.963a5.006,5.006,0,0,0,5,5H78.961a7.874,7.874,0,0,0,7.865-7.865V55.04a4.383,4.383,0,0,0-.443-1.925,1.44,1.44,0,0,0,.443-1.04V44.285A3.893,3.893,0,0,0,82.937,40.4Zm-37.024,0a3.893,3.893,0,0,0-3.888,3.888v7.791a1.44,1.44,0,0,0,.443,1.04,4.383,4.383,0,0,0-.443,1.925v2.474H27.509L23.115,9.473H53.536L50.708,40.4h-4.8ZM23.019,3.352a1.4,1.4,0,0,1,1.047-.462H52.585A1.418,1.418,0,0,1,54,4.437l-.2,2.145H22.851l-.2-2.145A1.4,1.4,0,0,1,23.019,3.352Zm4.615,65.636V60.4h14.39v4.914H34.65a2.916,2.916,0,0,0-2.913,2.913V71.1H29.745a2.112,2.112,0,0,1-2.11-2.11Zm6.992,2.11V68.231a.023.023,0,0,1,.023-.023H42a.023.023,0,0,1,.023.023V71.1Zm49.309-4.974A4.98,4.98,0,0,1,78.961,71.1H49.89a4.98,4.98,0,0,1-4.974-4.974V55.04a1.521,1.521,0,0,1,1.52-1.52H82.416a1.521,1.521,0,0,1,1.52,1.52V66.124Z" transform="translate(-19.759 0)" fill="#3b903f"/>
      <path id="Path_23" data-name="Path 23" d="M279.768,399.181H263.294a1.445,1.445,0,0,0-1.445,1.445v6.358a1.445,1.445,0,0,0,1.445,1.445h16.474a1.445,1.445,0,0,0,1.445-1.445v-6.358A1.445,1.445,0,0,0,279.768,399.181Zm-1.445,6.358H264.739v-3.468h13.584Z" transform="translate(-226.865 -341.496)" fill="#3b903f"/>
      <path id="Path_24" data-name="Path 24" d="M114.208,164.694a2.3,2.3,0,0,0-3.506,0l-2.874,3.4a6.094,6.094,0,0,0,.343,8.194,6.058,6.058,0,0,0,8.567,0,6.094,6.094,0,0,0,.343-8.194Zm.487,9.55a3.167,3.167,0,0,1-4.479,0,3.186,3.186,0,0,1-.179-4.284l2.419-2.862,2.419,2.862A3.186,3.186,0,0,1,114.7,174.244Z" transform="translate(-93.889 -140.199)" fill="#3b903f"/>
      <path id="Path_25" data-name="Path 25" d="M336.906,87.386a14.856,14.856,0,0,0-24.789,9.19,14.892,14.892,0,0,0,.211,4.789,15.326,15.326,0,0,0-1.106,4.166,1.445,1.445,0,0,0,1.266,1.6,1.462,1.462,0,0,0,.172.01,1.445,1.445,0,0,0,1.433-1.276,12.712,12.712,0,0,1,.628-2.717A14.856,14.856,0,0,0,333.7,93.932a9.323,9.323,0,0,1,3.121-4.344,1.445,1.445,0,0,0,.089-2.2ZM330.958,93A11.963,11.963,0,0,1,316,100.534a12.464,12.464,0,0,1,4.254-4.03,1.445,1.445,0,1,0-1.445-2.5,15.311,15.311,0,0,0-3.849,3.162c.008-.084.016-.168.025-.253a11.965,11.965,0,0,1,18.717-8.4A12.077,12.077,0,0,0,330.958,93Z" transform="translate(-269.094 -71.413)" fill="#3b903f"/>
      <circle id="Ellipse_2" data-name="Ellipse 2" cx="1.445" cy="1.445" r="1.445" transform="translate(43.221 40.397)" fill="#3b903f"/>
    </g>
  </g>
</svg>
