<svg xmlns="http://www.w3.org/2000/svg" width="81.362" height="72.896" viewBox="0 0 81.362 72.896">
  <g id="diet" transform="translate(0 -29.637)">
    <g id="Group_10" data-name="Group 10" transform="translate(25.013 52.8)">
      <g id="Group_9" data-name="Group 9" transform="translate(0 0)">
        <path id="Path_16" data-name="Path 16" d="M163.848,192.486a3.709,3.709,0,0,0-6.446,2.439,1.192,1.192,0,0,0,1.171,1.212h.021a1.192,1.192,0,0,0,1.191-1.172,1.323,1.323,0,0,1,1.348-1.3,1.309,1.309,0,0,1,.955.43,1.192,1.192,0,1,0,1.76-1.608Z" transform="translate(-157.402 -191.28)" fill="#3b903f"/>
      </g>
    </g>
    <g id="Group_12" data-name="Group 12" transform="translate(31.399 55.82)">
      <g id="Group_11" data-name="Group 11">
        <path id="Path_17" data-name="Path 17" d="M203.993,212.353a3.4,3.4,0,0,0-6.325.151,1.192,1.192,0,1,0,2.235.829,1.025,1.025,0,0,1,1.313-.6,1.007,1.007,0,0,1,.583.556,1.192,1.192,0,0,0,2.194-.933Z" transform="translate(-197.594 -210.283)" fill="#3b903f"/>
      </g>
    </g>
    <g id="Group_14" data-name="Group 14" transform="translate(42.324 46.986)">
      <g id="Group_13" data-name="Group 13" transform="translate(0 0)">
        <path id="Path_18" data-name="Path 18" d="M269.5,155.042a1.191,1.191,0,0,0-1.685,0l-1.124,1.126a1.192,1.192,0,0,0,1.687,1.684l1.124-1.126A1.192,1.192,0,0,0,269.5,155.042Z" transform="translate(-266.339 -154.693)" fill="#3b903f"/>
      </g>
    </g>
    <g id="Group_16" data-name="Group 16" transform="translate(35.286 62.721)">
      <g id="Group_15" data-name="Group 15" transform="translate(0 0)">
        <path id="Path_19" data-name="Path 19" d="M224.829,253.709h-1.588a1.192,1.192,0,0,0,0,2.384h1.588a1.192,1.192,0,1,0,0-2.384Z" transform="translate(-222.049 -253.709)" fill="#3b903f"/>
      </g>
    </g>
    <g id="Group_18" data-name="Group 18" transform="translate(47.465 62.721)">
      <g id="Group_17" data-name="Group 17" transform="translate(0 0)">
        <path id="Path_20" data-name="Path 20" d="M301.472,253.709h-1.589a1.192,1.192,0,1,0,0,2.384h1.589a1.192,1.192,0,1,0,0-2.384Z" transform="translate(-298.692 -253.709)" fill="#3b903f"/>
      </g>
    </g>
    <g id="Group_20" data-name="Group 20" transform="translate(0 29.637)">
      <g id="Group_19" data-name="Group 19" transform="translate(0 0)">
        <path id="Path_21" data-name="Path 21" d="M81.323,84.21l-.31-1.675a2.261,2.261,0,0,0-2.633-1.81l-6.318,1.161,2.861-1.913a2.252,2.252,0,0,0,.711-2.983l-.866-1.533a2.254,2.254,0,0,0-2.264-1.129,30.147,30.147,0,0,0,.483-5.383A1.993,1.993,0,0,0,71.8,67.126a9.139,9.139,0,0,0,.073-6.915,1.446,1.446,0,0,0-.809-.811,9.067,9.067,0,0,0-3.369-.647q-.222,0-.442.011a6.283,6.283,0,0,0-7.57-5.847,9.82,9.82,0,0,0-.556-5.245,1.465,1.465,0,0,0-.824-.831,9.8,9.8,0,0,0-8.854.812,11.787,11.787,0,0,0-2.806-4.49,2.023,2.023,0,0,0-2.864,0l-5.77,5.784a5.991,5.991,0,0,0-4-1.522,6.027,6.027,0,0,0-4.3,1.806,5.99,5.99,0,0,0-4.444-.317V44.456a5.627,5.627,0,0,0-5.518-5.623V36.305A1.988,1.988,0,0,0,21.4,34.35V28.623a1.989,1.989,0,0,0-1.986-1.986H9.718a1.989,1.989,0,0,0-1.986,1.986V34.35a1.988,1.988,0,0,0,1.647,1.955v2.527a5.626,5.626,0,0,0-5.518,5.623V79.241A11.384,11.384,0,0,0,0,87.7c0,6.523,5.725,11.829,12.761,11.829l47.7-.014a5.455,5.455,0,0,0,5.4-6.308l9.528,1.712a2.277,2.277,0,0,0,.4.036,2.26,2.26,0,0,0,2.236-1.925l.258-1.732a2.253,2.253,0,0,0-1.73-2.532L73.2,88l6.312-1.16a2.257,2.257,0,0,0,1.814-2.63ZM67.7,61.136a6.684,6.684,0,0,1,2.1.338,6.75,6.75,0,0,1-.57,5.481H66.019l1.024-1.027a1.192,1.192,0,0,0-1.687-1.684l-.542.543a5.528,5.528,0,0,0-1.281-2.2A6.664,6.664,0,0,1,67.7,61.136Zm-6.721-5.971a3.914,3.914,0,0,1,3.9,3.915c0,.04,0,.08,0,.119a9.055,9.055,0,0,0-3.4,2.018c-.157-.06-.317-.115-.48-.16a5.529,5.529,0,0,0-3.295-4.1A3.9,3.9,0,0,1,60.977,55.165Zm-6.3-6.639a7.383,7.383,0,0,1,2.372.39,7.467,7.467,0,0,1-.295,5.5,6.33,6.33,0,0,0-1.527,2.117,5.626,5.626,0,0,0-.636.072,5.565,5.565,0,0,0-2.533,1.155,6.308,6.308,0,0,0-.9-1.251l2.733-2.739A1.192,1.192,0,0,0,52.2,52.09l-2.987,2.994a6.23,6.23,0,0,0-1.828-.543,7.438,7.438,0,0,1,7.291-6.016ZM45.545,66.954H44.512a1.191,1.191,0,0,0-2.217,0H41.079A1.191,1.191,0,0,0,39.22,65.49L38.1,66.615a1.186,1.186,0,0,0-.236.339H35.436a9.427,9.427,0,0,1-1.529-4.81H52.815a9.427,9.427,0,0,1-1.529,4.81H48.762a1.187,1.187,0,0,0-.236-.339L47.4,65.489a1.191,1.191,0,0,0-1.859,1.465ZM42.773,59.76a3.9,3.9,0,0,1,7.536,0H42.773ZM45.21,45.106a9.425,9.425,0,0,1,2.251,4.209,9.816,9.816,0,0,0-1.513,2.169,1.184,1.184,0,0,0-.621-.176H43.739a1.192,1.192,0,1,0,0,2.384h1.393a9.87,9.87,0,0,0-.183,1,6.233,6.233,0,0,0-1.348.527,6.016,6.016,0,0,0-3.668-2.8l0-.01a6.033,6.033,0,0,0-.479-1.527ZM23.666,55.86a3.6,3.6,0,0,1-.158-.6,3.638,3.638,0,0,1,2.961-4.2,3.677,3.677,0,0,1,.628-.055,3.6,3.6,0,0,1,2.17.724,1.192,1.192,0,0,0,1.707-.3,3.609,3.609,0,0,1,2.41-1.577,3.676,3.676,0,0,1,.63-.055,3.615,3.615,0,0,1,3.568,3,3.653,3.653,0,0,1,.053.618,1.192,1.192,0,0,0,1.088,1.185,3.627,3.627,0,0,1,2.993,2.137,6.284,6.284,0,0,0-1.377,3.009h-6.8a2.026,2.026,0,0,0-1.873,1.26,9.095,9.095,0,0,0-8.474-.92,1.445,1.445,0,0,0-.807.809,9.131,9.131,0,0,0-.556,2.118,3.626,3.626,0,0,1,1.212-5.685A1.192,1.192,0,0,0,23.666,55.86Zm3.553,10.768.325.326H24.681a6.753,6.753,0,0,1-.218-4.78,6.7,6.7,0,0,1,7.332,2.169,11.774,11.774,0,0,0,.912,2.61h-1.8l-2-2.01a1.192,1.192,0,0,0-1.687,1.684Zm-5.076.326H17.894a3.92,3.92,0,0,1,1.848-2.719,5.992,5.992,0,0,0,2.174,1.8A9.219,9.219,0,0,0,22.143,66.954ZM10.115,29.021h8.9v4.932h-8.9Zm7.25,7.316V38.83h-5.6V36.337ZM6.245,49.289h7.739a1.192,1.192,0,1,0,0-2.384H6.245v-2.45a3.241,3.241,0,0,1,3.232-3.242H19.651a3.241,3.241,0,0,1,3.232,3.242v2.45H20.658a1.192,1.192,0,1,0,0,2.384h2.225v1.058a6.007,6.007,0,0,0-1.724,5.322l0,.012a6.023,6.023,0,0,0-2.525,5.985c.024.137.053.271.086.4a6.32,6.32,0,0,0-1.588,1.248H6.245Zm0,16.413h9.5a6.252,6.252,0,0,0-.259,1.252h-.2a1.993,1.993,0,0,0-1.99,1.991,30.16,30.16,0,0,0,.517,5.568c-.342-.027-.694-.042-1.051-.042a10.86,10.86,0,0,0-3.866.644c-1.609.635-2.054,1.537-2.151,2.162-.171.085-.338.174-.5.266V65.7ZM21.336,80.343a4.512,4.512,0,0,1,.844.846h-.044a7.405,7.405,0,0,1-3.265-1.035,8.589,8.589,0,0,1-1.367-.928,1.192,1.192,0,0,0-1.541,0,8.54,8.54,0,0,1-1.367.928,7.4,7.4,0,0,1-3.265,1.035h-.045a4.507,4.507,0,0,1,.844-.846,1.192,1.192,0,0,0-.606-2.114,5.694,5.694,0,0,1-2.243-.648,6.788,6.788,0,0,1,3.485-.727,7.429,7.429,0,0,1,3.384.662,1.192,1.192,0,0,0,1.167,0,7.432,7.432,0,0,1,3.384-.662,6.788,6.788,0,0,1,3.485.727,5.69,5.69,0,0,1-2.243.648,1.192,1.192,0,0,0-.606,2.114ZM18.952,94.85l.041.221a5.428,5.428,0,0,0,.858,2.079h-7.09c-5.722,0-10.378-4.237-10.378-9.446A9.362,9.362,0,0,1,7.762,79.43a5.121,5.121,0,0,0,1.371.7,2.823,2.823,0,0,0-.4,1.178A1.941,1.941,0,0,0,9.2,82.78a2.705,2.705,0,0,0,2.126.793A9.843,9.843,0,0,0,15.75,82.24q.521-.288.983-.607.461.318.983.607a9.847,9.847,0,0,0,4.419,1.333h0a2.7,2.7,0,0,0,2.126-.793,1.94,1.94,0,0,0,.474-1.47,2.823,2.823,0,0,0-.4-1.178,5.131,5.131,0,0,0,1.371-.7,9.642,9.642,0,0,1,5.108,6.132l-8.429,3.2A5.45,5.45,0,0,0,18.952,94.85Zm43.883,1.178a3.084,3.084,0,0,1-2.373,1.108H59.212l-.782-4.22a1.192,1.192,0,0,0-2.344.434l.7,3.787-4.1,0-.528-2.854a1.192,1.192,0,0,0-2.344.434l.448,2.421-9.539,0-.718-3.875a1.192,1.192,0,0,0-2.344.434l.638,3.442-13.927.005h0a3.081,3.081,0,0,1-3.035-2.513l-.041-.221a3.067,3.067,0,0,1,1.934-3.422l4.684-1.779.349,1.883a1.192,1.192,0,0,0,1.17.975,1.208,1.208,0,0,0,.219-.02,1.192,1.192,0,0,0,.955-1.389l-.428-2.309,6.953-2.641a1.192,1.192,0,0,0-.846-2.228l-3.236,1.229a12.078,12.078,0,0,0-6.332-7.436c-.1-.624-.542-1.526-2.151-2.162A10.86,10.86,0,0,0,20.7,74.47a12.091,12.091,0,0,0-2.775.309v-.72A1.191,1.191,0,0,0,16,73.124a27.842,27.842,0,0,1-.311-3.786h38.82a1.192,1.192,0,1,0,0-2.384h-.488a11.8,11.8,0,0,0,1.188-5.168,2.028,2.028,0,0,0-1.83-2.016A3.141,3.141,0,0,1,55,58.957a3.216,3.216,0,0,1,.549-.048,3.149,3.149,0,0,1,3.109,2.617,3.187,3.187,0,0,1,.046.539,1.192,1.192,0,0,0,1.088,1.186,3.159,3.159,0,0,1,2.834,2.6,3.115,3.115,0,0,1-.008,1.1H61.339a1.192,1.192,0,0,0,0,2.384H70.6a27.471,27.471,0,0,1-.836,6.394l-6.459,3.813a5.471,5.471,0,0,0-7.2-3.59L42.8,81.008a1.192,1.192,0,0,0,.846,2.228l1.752-.666.544,2.938a1.192,1.192,0,0,0,1.171.975,1.207,1.207,0,0,0,.218-.02,1.192,1.192,0,0,0,.955-1.389l-.623-3.364,9.285-3.527a3.093,3.093,0,0,1,2.615.192,3.062,3.062,0,0,1,1.522,2.118L63.5,93.511A3.048,3.048,0,0,1,62.835,96.028ZM67.088,86.7a1.192,1.192,0,0,0-.051,2.334l8.873,2.035-.222,1.487L65.4,90.707l-1.608-8.682,8.96-5.289.746,1.322-7.557,5.052a1.192,1.192,0,0,0,.878,2.163l11.871-2.181.264,1.427Z" transform="translate(0 -26.637)" fill="#3b903f"/>
      </g>
    </g>
  </g>
</svg>
