<svg id="XMLID_43_" xmlns="http://www.w3.org/2000/svg" width="62.229" height="77.5" viewBox="0 0 62.229 77.5">
  <path id="XMLID_46_" d="M228.311,166.755a1.514,1.514,0,0,0-1.514,1.514.311.311,0,0,1-.311.311,1.514,1.514,0,1,0,0,3.027,3.342,3.342,0,0,0,3.338-3.338A1.514,1.514,0,0,0,228.311,166.755Z" transform="translate(-198.556 -141.514)" fill="#3b903f"/>
  <g id="XMLID_80_" transform="translate(0 0)">
    <path id="XMLID_1818_" d="M110.406,59.314a1.513,1.513,0,0,0-1.979.816c-3.567,8.578-14.008,14.342-25.981,14.342-.732,0-1.461-.025-2.186-.068L81.344,67.5c.366.016.734.027,1.1.027a22.074,22.074,0,0,0,13.1-4.044c3.654-2.709,5.666-6.353,5.666-10.261a1.514,1.514,0,1,0-3.027,0c0,4.024-2.957,7.562-7.4,9.558a10.675,10.675,0,0,0-9.263-9.365,2.053,2.053,0,0,1-1.2-.576,2.015,2.015,0,0,1,.69-3.3l2.784-1.091a16.092,16.092,0,0,0,8.562-7.706A15.257,15.257,0,0,0,93.916,35.6c6.838,2.4,12.173,6.916,14.467,12.333a1.514,1.514,0,0,0,2.788-1.181,23.337,23.337,0,0,0-7.048-9.007,30.23,30.23,0,0,0-5.536-3.468,18.743,18.743,0,0,0,2.423-12.551A25.32,25.32,0,0,0,93.717,7.5,25,25,0,0,0,78.458.089a17.776,17.776,0,0,0-14.492,4.9c-5.109,5.109-6.376,13.032-3.45,20.64a11.43,11.43,0,0,0-4.509,21.159,28.17,28.17,0,0,0,.768,8.962,6.494,6.494,0,0,0,6.612,11.179,22.172,22.172,0,0,0,5.989,3.906,6.612,6.612,0,0,0,.554,2.133A6.468,6.468,0,0,0,74.566,76.7a38.788,38.788,0,0,0,7.88.8,36.229,36.229,0,0,0,17.867-4.513,24.545,24.545,0,0,0,10.91-11.694A1.513,1.513,0,0,0,110.406,59.314ZM66.108,7.128A14.806,14.806,0,0,1,78.184,3.1,21.968,21.968,0,0,1,91.576,9.641c6.917,6.917,8.625,16.794,4.2,23.415q-.991-.378-2.014-.7a5.1,5.1,0,0,0-3.99-3.408,11.267,11.267,0,0,0-2.593-11.863l-.412-.412a8.078,8.078,0,0,0-9.589-1.346,5.025,5.025,0,0,1-2.433.63h-3.6a1.513,1.513,0,0,0-1.463,1.9,8.6,8.6,0,0,1-2.229,8.275s-.527.53-.559.568a11.342,11.342,0,0,0-3.065-.992C60.737,18.871,61.605,11.63,66.108,7.128Zm6.919,27.316a11.291,11.291,0,0,0,10.856.841c-.841,2.879-4.156,5.412-8.635,6.43-1.059.241-2.217.538-3.41.871a11.379,11.379,0,0,0,1.189-8.142Zm.374-3.582-3.217-3.217a11.652,11.652,0,0,0,2.764-8.658h1.794a8.063,8.063,0,0,0,3.9-1.01,5.037,5.037,0,0,1,5.98.839l.412.412A8.227,8.227,0,1,1,73.4,30.861ZM53.471,36.978a8.406,8.406,0,0,1,16.811-.164.855.855,0,0,1-.995.422,1.514,1.514,0,0,0-.85,2.906,3.9,3.9,0,0,0,1.094.158l.069,0a8.407,8.407,0,0,1-16.13-3.32Zm6.65,27.807a3.47,3.47,0,1,1,3.47-3.47A3.474,3.474,0,0,1,60.122,64.785ZM70.242,67a6.751,6.751,0,0,0-.363.726,19.092,19.092,0,0,1-4.3-2.9,6.492,6.492,0,0,0-5.46-10.012c-.153,0-.3.007-.455.018a24.8,24.8,0,0,1-.691-6.8,11.41,11.41,0,0,0,7.066-.413,86.8,86.8,0,0,1,9.878-2.958,17.5,17.5,0,0,0,7.853-3.911,9.336,9.336,0,0,0,3.349-6.9,1.934,1.934,0,0,1,1.964-1.934,2.022,2.022,0,0,1,1.9,2.01,12.181,12.181,0,0,1-1.324,5.446A13.068,13.068,0,0,1,82.7,45.625l-2.784,1.091a5.042,5.042,0,0,0-1.726,8.26,5.1,5.1,0,0,0,2.963,1.44,7.641,7.641,0,0,1,6.677,7.4,21.654,21.654,0,0,1-10.386.1A6.588,6.588,0,0,0,70.242,67Zm7,7.1c-.693-.1-1.381-.22-2.061-.361a3.525,3.525,0,0,1-2.321-5.219,3.543,3.543,0,0,1,3.874-1.662c.525.127,1.057.234,1.593.325Z" transform="translate(-50.444 0)" fill="#3b903f"/>
    <path id="XMLID_1867_" d="M153.452,314.628C153.43,314.636,153.474,314.621,153.452,314.628Z" transform="translate(-137.855 -267.003)" fill="#3b903f"/>
  </g>
  <path id="XMLID_1869_" d="M443.054,347.308a1.514,1.514,0,1,0,0,3.027h.008a1.514,1.514,0,1,0-.008-3.027Z" transform="translate(-382.342 -294.738)" fill="#3b903f"/>
</svg>
