<svg xmlns="http://www.w3.org/2000/svg" width="56.236" height="77.848" viewBox="0 0 56.236 77.848">
  <g id="outline" transform="translate(-38.516 -17.747)">
    <path id="Path_27" data-name="Path 27" d="M176.5,109.384l-1.023,2.047a21.6,21.6,0,0,0-2.268,9.609v14.768a5.215,5.215,0,0,0,5.209,5.209h19.533a5.215,5.215,0,0,0,5.209-5.209V119.53a42.308,42.308,0,0,0-1.694-11.853l-5.143-17.633V85.022a2.964,2.964,0,0,1,2.711-2.934,1.3,1.3,0,0,0,1.2-1.3A8.8,8.8,0,0,0,191.44,72H170.6a1.3,1.3,0,0,0-1.3,1.3v5.209a1.3,1.3,0,0,0,1.3,1.3h3.864a21.373,21.373,0,0,1-3.211,10.04l-3.06,4.9a1.3,1.3,0,0,0,1.1,1.992h5.209a1.3,1.3,0,0,0,1.06-.545l2.649-3.708a22.049,22.049,0,0,0,2.8-5.331v3.074a43.044,43.044,0,0,1-4.521,19.153Zm24.054,10.146v16.278a2.607,2.607,0,0,1-2.6,2.6H178.418a2.607,2.607,0,0,1-2.6-2.6V121.04a18.978,18.978,0,0,1,1.993-8.444l1.023-2.047a45.687,45.687,0,0,0,4.777-19.016h10.437l4.922,16.877A39.7,39.7,0,0,1,200.555,119.53Zm-6.837-30.6H183.626v-2.6h10.092Zm3.82-9.176a5.612,5.612,0,0,0-3.662,3.967H182.324V78.511a1.3,1.3,0,0,0-1.3-1.3h-3.907V74.6H191.44A6.2,6.2,0,0,1,197.538,79.752ZM171.907,74.6h2.6v2.6h-2.6Zm4.194,16.37-2.259,3.163h-2.189l1.815-2.9a23.974,23.974,0,0,0,3.614-11.42h2.64A19.324,19.324,0,0,1,176.1,90.974Z" transform="translate(-108.407 -45.422)" fill="#3b903f"/>
    <path id="Path_28" data-name="Path 28" d="M254.324,336H242.6a2.608,2.608,0,0,0-2.6,2.6v15.626a2.608,2.608,0,0,0,2.6,2.6h11.72a2.607,2.607,0,0,0,2.6-2.6V338.6A2.608,2.608,0,0,0,254.324,336Zm0,18.231H242.6V338.6h11.72l0,15.626Z" transform="translate(-168.687 -266.449)" fill="#3b903f"/>
    <path id="Path_29" data-name="Path 29" d="M0,0H2.6V3.174H0Z" transform="matrix(0.625, -0.781, 0.781, 0.625, 44.459, 19.781)" fill="#3b903f"/>
    <path id="Path_30" data-name="Path 30" d="M0,0H2.6V3.174H0Z" transform="matrix(0.625, -0.781, 0.781, 0.625, 54.376, 27.713)" fill="#3b903f"/>
    <path id="Path_31" data-name="Path 31" d="M0,0H2.6V3.174H0Z" transform="matrix(0.625, -0.781, 0.781, 0.625, 49.418, 23.747)" fill="#3b903f"/>
    <path id="Path_32" data-name="Path 32" d="M116.5,88h3.174v2.6H116.5Z" transform="translate(-65.293 -58.817)" fill="#3b903f"/>
    <path id="Path_33" data-name="Path 33" d="M77.51,88h3.174v2.6H77.51Z" transform="translate(-32.647 -58.817)" fill="#3b903f"/>
    <path id="Path_34" data-name="Path 34" d="M38.516,88H41.69v2.6H38.516Z" transform="translate(0 -58.817)" fill="#3b903f"/>
    <path id="Path_35" data-name="Path 35" d="M0,0H3.174V2.6H0Z" transform="matrix(0.781, -0.625, 0.625, 0.781, 44.464, 41.187)" fill="#3b903f"/>
    <path id="Path_36" data-name="Path 36" d="M0,0H3.174V2.6H0Z" transform="matrix(0.781, -0.625, 0.625, 0.781, 54.376, 33.253)" fill="#3b903f"/>
    <path id="Path_37" data-name="Path 37" d="M0,0H3.174V2.6H0Z" transform="matrix(0.781, -0.625, 0.625, 0.781, 49.42, 37.22)" fill="#3b903f"/>
    <path id="Path_38" data-name="Path 38" d="M326.525,280.053a1.3,1.3,0,0,0-.873,1.622l.391,1.3a1.3,1.3,0,1,0,2.494-.749l-.391-1.3A1.3,1.3,0,0,0,326.525,280.053Z" transform="translate(-240.351 -219.562)" fill="#3b903f"/>
    <path id="Path_39" data-name="Path 39" d="M309.726,224.053a1.3,1.3,0,0,0-.873,1.622l1.563,5.209a1.3,1.3,0,1,0,2.494-.749l-1.563-5.209A1.3,1.3,0,0,0,309.726,224.053Z" transform="translate(-226.286 -172.678)" fill="#3b903f"/>
  </g>
</svg>
