<svg xmlns="http://www.w3.org/2000/svg" width="31.997" height="31.997" viewBox="0 0 31.997 31.997">
  <g id="phone-call_2_" data-name="phone-call (2)" transform="translate(0 0)">
    <g id="Group_628" data-name="Group 628" transform="translate(0 0)">
      <path id="Path_851" data-name="Path 851" d="M27.309,4.684A16,16,0,1,0,32,15.995,16,16,0,0,0,27.309,4.684Zm-3.08,17.6,0,0v-.005l-.811.805a4.266,4.266,0,0,1-4.026,1.152,14.176,14.176,0,0,1-4.117-1.845,19.022,19.022,0,0,1-3.248-2.618A19.168,19.168,0,0,1,9.6,16.832a14.93,14.93,0,0,1-1.824-3.69A4.266,4.266,0,0,1,8.841,8.785l.949-.949a.677.677,0,0,1,.958,0l0,0,3,3a.677.677,0,0,1,0,.958l0,0-1.76,1.76a1.435,1.435,0,0,0-.149,1.867,20.582,20.582,0,0,0,2.106,2.458,20.456,20.456,0,0,0,2.773,2.33,1.445,1.445,0,0,0,1.845-.16l1.7-1.728a.677.677,0,0,1,.958,0l0,0,3,3.008A.677.677,0,0,1,24.229,22.285Z" transform="translate(0 0)" fill="#ff4b4b"/>
    </g>
  </g>
</svg>
