<svg xmlns="http://www.w3.org/2000/svg" width="17.985" height="17.985" viewBox="0 0 17.985 17.985">
  <g id="noun_bill_4409288" transform="translate(-110.007 -17.007)">
    <g id="Group_669" data-name="Group 669" transform="translate(108.757 15.757)">
      <g id="Group_668" data-name="Group 668" transform="translate(1.25 1.25)">
        <path id="Path_4030" data-name="Path 4030" d="M16.589,5.25H4.877a.627.627,0,0,0,0,1.255H16.589a.627.627,0,0,0,0-1.255Z" transform="translate(-1.74 -1.904)" fill="#585858" fill-rule="evenodd"/>
        <path id="Path_4031" data-name="Path 4031" d="M16.543,5.877a.628.628,0,0,0-.627-.627H5.877a.628.628,0,0,0-.627.627V19.262a.628.628,0,0,0,.888.571L7.7,19.115l1.563.717a.628.628,0,0,0,.589-.035l1.041-.637,1.041.637a.628.628,0,0,0,.589.035l1.563-.717,1.564.717a.628.628,0,0,0,.888-.571Zm-3.555,9.411H8.805a.627.627,0,1,0,0,1.255h4.183a.627.627,0,1,0,0-1.255Zm0-3.346H8.805a.627.627,0,1,0,0,1.255h4.183a.627.627,0,1,0,0-1.255Zm0-3.346H8.805a.627.627,0,1,0,0,1.255h4.183a.627.627,0,1,0,0-1.255Z" transform="translate(-1.904 -1.904)" fill="#585858" fill-rule="evenodd"/>
        <path id="Path_4032" data-name="Path 4032" d="M3.76,9.2V6.546A1.464,1.464,0,0,1,4.387,3.76H16.1a1.464,1.464,0,0,1,.627,2.786V9.2h1.046a1.465,1.465,0,0,0,1.464-1.464V2.714A1.465,1.465,0,0,0,17.771,1.25H2.714A1.465,1.465,0,0,0,1.25,2.714V7.733A1.465,1.465,0,0,0,2.714,9.2Z" transform="translate(-1.25 -1.25)" fill="#585858" fill-rule="evenodd"/>
      </g>
    </g>
  </g>
</svg>
