<svg xmlns="http://www.w3.org/2000/svg" width="13.575" height="16.667" viewBox="0 0 13.575 16.667">
  <path id="building" d="M59.023,15.591h-1.06V2.419a.538.538,0,0,0-.538-.538H53.393V.538A.538.538,0,0,0,52.855,0h-3.73a.538.538,0,0,0-.538.538V1.882h-.437a.538.538,0,0,0-.538.538V15.591h-1.06A.548.548,0,0,0,46,16.1a.538.538,0,0,0,.537.563h3.831a.269.269,0,0,0,.269-.269V13.306h-.22a.548.548,0,0,1-.552-.512.538.538,0,0,1,.537-.564h4.756a.548.548,0,0,1,.552.512.538.538,0,0,1-.537.564h-.235V16.4a.269.269,0,0,0,.269.269h3.831a.538.538,0,0,0,.537-.563A.548.548,0,0,0,59.023,15.591Zm-7.545-4.469h-.6a.538.538,0,1,1,0-1.075h.6a.538.538,0,0,1,0,1.075Zm0-2.016h-.6a.538.538,0,1,1,0-1.075h.6a.538.538,0,0,1,0,1.075Zm0-2.016h-.6a.538.538,0,1,1,0-1.075h.6a.538.538,0,0,1,0,1.075Zm0-2.016h-.6a.538.538,0,1,1,0-1.075h.6a.538.538,0,0,1,0,1.075Zm3.192,6.048h-.6a.538.538,0,1,1,0-1.075h.6a.538.538,0,0,1,0,1.075Zm0-2.016h-.6a.538.538,0,1,1,0-1.075h.6a.538.538,0,0,1,0,1.075Zm0-2.016h-.6a.538.538,0,1,1,0-1.075h.6a.538.538,0,0,1,0,1.075Zm0-2.016h-.6a.538.538,0,1,1,0-1.075h.6a.538.538,0,0,1,0,1.075ZM51.712,16.4V13.575a.269.269,0,0,1,.269-.269h1.613a.269.269,0,0,1,.269.269V16.4a.269.269,0,0,1-.269.269H51.981A.269.269,0,0,1,51.712,16.4Z" transform="translate(-46)" fill="#7d7d7d"/>
</svg>
