<svg xmlns="http://www.w3.org/2000/svg" width="15.42" height="20.232" viewBox="0 0 15.42 20.232">
  <path id="check-list" d="M73.751,14.377a.653.653,0,0,0,.655-.653V1.958A1.958,1.958,0,0,0,72.448,0h-11.5a1.958,1.958,0,0,0-1.958,1.958V18.273a1.958,1.958,0,0,0,1.958,1.958H67.9a.653.653,0,0,0,.653-.655c0-.6,0-1.828,0-4.409a.788.788,0,0,1,.788-.788C71.922,14.378,73.15,14.374,73.751,14.377ZM66.821,4.16h4.324a.653.653,0,1,1,0,1.305H66.821a.653.653,0,1,1,0-1.305Zm-1.9,10.781-1.734,1.734a.653.653,0,0,1-.923,0l-.591-.591a.653.653,0,1,1,.923-.923l.13.13,1.272-1.272a.653.653,0,0,1,.923.923Zm0-5.3-1.734,1.734a.653.653,0,0,1-.923,0l-.591-.591a.653.653,0,0,1,.923-.923l.13.13,1.272-1.272a.653.653,0,0,1,.923.923Zm0-5.3L63.183,6.07a.653.653,0,0,1-.923,0l-.591-.591a.653.653,0,0,1,.923-.923l.13.13,1.272-1.272a.653.653,0,1,1,.923.923Zm2.231,11.734h-.326a.653.653,0,1,1,0-1.305h.326a.653.653,0,0,1,0,1.305Zm-.326-5.3a.653.653,0,1,1,0-1.305h4.324a.653.653,0,1,1,0,1.305Zm7.394,5.274-4,4a.653.653,0,0,1-1.114-.461v-4a.652.652,0,0,1,.653-.653h4A.653.653,0,0,1,74.215,16.043Z" transform="translate(-58.988)" fill="#7d7d7d"/>
</svg>
