<svg xmlns="http://www.w3.org/2000/svg" width="18.685" height="18.687" viewBox="0 0 18.685 18.687">
  <g id="shopping-basket" transform="translate(-3.555 -3.555)">
    <g id="Group_6" data-name="Group 6" transform="translate(3.555 3.555)">
      <path id="Path_7" data-name="Path 7" d="M29.128,18.151a1.993,1.993,0,0,0-1.567-.793H26.184C26.054,13.826,23.5,11,20.368,11s-5.686,2.826-5.816,6.357H13.175a1.993,1.993,0,0,0-1.567.793,2.833,2.833,0,0,0-.507,2.391l1.651,7.277a2.237,2.237,0,0,0,2.075,1.869H25.905a2.233,2.233,0,0,0,2.075-1.869l1.655-7.277A2.833,2.833,0,0,0,29.128,18.151Zm-8.76-5.595c2.273,0,4.134,2.128,4.256,4.8H16.112C16.234,14.688,18.1,12.556,20.368,12.556Zm7.749,7.639-1.651,7.28c-.084.374-.324.656-.557.656H14.827c-.233,0-.473-.282-.557-.656l-1.651-7.28c-.088-.385-.141-1.281.557-1.281H27.561C28.312,18.913,28.205,19.81,28.117,20.195Z" transform="translate(-11.025 -11)" fill="#585858"/>
      <path id="Path_8" data-name="Path 8" d="M135.078,259.1a.776.776,0,0,0-.778.778v4.863a.778.778,0,0,0,1.556,0v-4.863A.776.776,0,0,0,135.078,259.1Z" transform="translate(-129.599 -249.638)" fill="#585858"/>
      <path id="Path_9" data-name="Path 9" d="M233.978,259.1a.776.776,0,0,0-.778.778v4.863a.778.778,0,0,0,1.556,0v-4.863A.781.781,0,0,0,233.978,259.1Z" transform="translate(-224.727 -249.638)" fill="#585858"/>
      <path id="Path_10" data-name="Path 10" d="M332.778,259.1a.776.776,0,0,0-.778.778v4.863a.778.778,0,1,0,1.556,0v-4.863A.779.779,0,0,0,332.778,259.1Z" transform="translate(-319.759 -249.638)" fill="#585858"/>
    </g>
  </g>
</svg>
