<svg xmlns="http://www.w3.org/2000/svg" width="27.949" height="27.951" viewBox="0 0 27.949 27.951">
  <g id="Group_6" data-name="Group 6" transform="translate(0 0)">
    <path id="Path_7" data-name="Path 7" d="M38.1,21.7a2.981,2.981,0,0,0-2.345-1.187H33.7C33.5,15.227,29.677,11,25,11s-8.505,4.227-8.7,9.509H14.241A2.981,2.981,0,0,0,11.9,21.7a4.237,4.237,0,0,0-.759,3.577l2.47,10.884a3.346,3.346,0,0,0,3.1,2.8H33.282a3.34,3.34,0,0,0,3.1-2.8l2.476-10.884A4.237,4.237,0,0,0,38.1,21.7ZM25,13.327c3.4,0,6.184,3.183,6.366,7.182H18.634C18.816,16.516,21.6,13.327,25,13.327ZM36.591,24.753l-2.47,10.89c-.125.559-.485.981-.833.981H16.711c-.348,0-.707-.422-.833-.981l-2.47-10.89c-.131-.576-.211-1.917.833-1.917H35.758C36.882,22.837,36.722,24.177,36.591,24.753Z" transform="translate(-11.025 -11)" fill="#ff4b4b"/>
    <path id="Path_8" data-name="Path 8" d="M135.465,259.1a1.162,1.162,0,0,0-1.165,1.165v7.28a1.165,1.165,0,0,0,2.33,0v-7.28A1.162,1.162,0,0,0,135.465,259.1Z" transform="translate(-127.056 -245.685)" fill="#ff4b4b"/>
    <path id="Path_4027" data-name="Path 4027" d="M135.465,259.1a1.162,1.162,0,0,0-1.165,1.165v7.28a1.165,1.165,0,0,0,2.33,0v-7.28A1.162,1.162,0,0,0,135.465,259.1Z" transform="translate(-121.491 -245.685)" fill="#ff4b4b"/>
    <path id="Path_4028" data-name="Path 4028" d="M135.465,259.1a1.162,1.162,0,0,0-1.165,1.165v7.28a1.165,1.165,0,0,0,2.33,0v-7.28A1.162,1.162,0,0,0,135.465,259.1Z" transform="translate(-115.925 -245.685)" fill="#ff4b4b"/>
  </g>
</svg>
