<svg xmlns="http://www.w3.org/2000/svg" width="19.003" height="17.072" viewBox="0 0 19.003 17.072">
  <path id="attention" d="M19,15.7a1.19,1.19,0,0,1-.469,1.016,1.869,1.869,0,0,1-1.153.35H1.622A1.842,1.842,0,0,1,.47,16.713,1.2,1.2,0,0,1,0,15.705a2.066,2.066,0,0,1,.307-1.041L8.177.939A1.593,1.593,0,0,1,9.509,0a1.521,1.521,0,0,1,1.3.939L18.7,14.681a2.106,2.106,0,0,1,.3,1.025ZM10.687,6.982V4.49H8.314V6.982a2.848,2.848,0,0,0,.034.452q.034.213.094.478t.094.452L8.98,11.13H9.987l.461-2.766q.034-.17.1-.444t.1-.487a2.848,2.848,0,0,0,.034-.452Zm0,6.607a1.124,1.124,0,0,0-.35-.837,1.166,1.166,0,0,0-.845-.341,1.146,1.146,0,0,0-.828.341,1.124,1.124,0,0,0-.35.837,1.151,1.151,0,0,0,.35.845,1.132,1.132,0,0,0,.828.35,1.2,1.2,0,0,0,1.195-1.195Z" transform="translate(0.001)" fill="#ff5e5e"/>
</svg>
