<svg xmlns="http://www.w3.org/2000/svg" width="20.801" height="20.799" viewBox="0 0 20.801 20.799">
  <g id="noun_accept_3235169" transform="translate(0 0)">
    <g id="Group_647" data-name="Group 647" transform="translate(0 0)">
      <g id="Group_644" data-name="Group 644" transform="translate(0 0)">
        <g id="Group_643" data-name="Group 643">
          <path id="Path_4016" data-name="Path 4016" d="M49.511,41.034a9.442,9.442,0,0,1-.084,1.26c.011-.086.024-.173.035-.259a9.481,9.481,0,0,1-.657,2.409c.032-.078.065-.156.1-.231A9.495,9.495,0,0,1,47.683,46.3l.151-.2a9.623,9.623,0,0,1-1.716,1.716l.2-.151a9.581,9.581,0,0,1-2.083,1.219l.231-.1a9.53,9.53,0,0,1-2.409.657l.259-.035a9.642,9.642,0,0,1-2.52,0l.259.035a9.481,9.481,0,0,1-2.409-.657l.231.1a9.494,9.494,0,0,1-2.083-1.219l.2.151A9.623,9.623,0,0,1,34.273,46.1l.151.2a9.581,9.581,0,0,1-1.219-2.083c.032.078.065.156.1.231a9.53,9.53,0,0,1-.657-2.409c.011.086.024.173.035.259a9.642,9.642,0,0,1,0-2.52c-.011.086-.024.173-.035.259a9.481,9.481,0,0,1,.657-2.409c-.032.078-.065.156-.1.231a9.495,9.495,0,0,1,1.219-2.083l-.151.2a9.623,9.623,0,0,1,1.716-1.716l-.2.151a9.581,9.581,0,0,1,2.083-1.219l-.231.1a9.53,9.53,0,0,1,2.409-.657l-.259.035a9.642,9.642,0,0,1,2.52,0l-.259-.035a9.481,9.481,0,0,1,2.409.657l-.231-.1A9.495,9.495,0,0,1,46.315,34.4l-.2-.151a9.623,9.623,0,0,1,1.716,1.716l-.151-.2A9.581,9.581,0,0,1,48.9,37.856c-.032-.078-.065-.156-.1-.231a9.53,9.53,0,0,1,.657,2.409c-.011-.086-.024-.173-.035-.259a9.816,9.816,0,0,1,.084,1.26,1,1,0,0,0,.285.687.988.988,0,0,0,.687.285.975.975,0,0,0,.687-.285,1.008,1.008,0,0,0,.285-.687,10.459,10.459,0,0,0-.493-3.172,10.224,10.224,0,0,0-1.387-2.787A11.368,11.368,0,0,0,48.53,33.8a10.77,10.77,0,0,0-1.24-1.085,10.377,10.377,0,0,0-14.2,1.631,11.261,11.261,0,0,0-.97,1.353,10.747,10.747,0,0,0-.73,1.5,10.219,10.219,0,0,0-.709,3.094,10.367,10.367,0,0,0,3.429,8.483,10.27,10.27,0,0,0,2.571,1.692,11,11,0,0,0,1.573.586,11.137,11.137,0,0,0,1.685.315A10.367,10.367,0,0,0,43.2,51.21a10.219,10.219,0,0,0,2.928-1.1,10.382,10.382,0,0,0,5.186-7.388,11.132,11.132,0,0,0,.143-1.694.972.972,0,1,0-1.945,0Z" transform="translate(-30.654 -30.633)" fill="#21b783"/>
        </g>
      </g>
      <g id="Group_646" data-name="Group 646" transform="translate(4.873 6.399)">
        <g id="Group_645" data-name="Group 645">
          <path id="Path_4017" data-name="Path 4017" d="M256.456,331.429l1.033,1.033,1.647,1.647.376.376a.986.986,0,0,0,1.374,0l.6-.6,1.443-1.443,1.755-1.755,1.51-1.51c.244-.244.495-.486.735-.735l.011-.011a1,1,0,0,0,.285-.687.974.974,0,0,0-.972-.972,1.012,1.012,0,0,0-.687.285l-.6.6-1.443,1.443-1.755,1.755-1.51,1.51c-.244.244-.495.486-.735.735l-.011.011h1.374l-1.033-1.033-1.647-1.647-.376-.376a1,1,0,0,0-.687-.285.974.974,0,0,0-.972.972,1.012,1.012,0,0,0,.285.687Z" transform="translate(-256.17 -326.77)" fill="#21b783"/>
        </g>
      </g>
    </g>
  </g>
</svg>
