<svg id="icons8-aparat" xmlns="http://www.w3.org/2000/svg" width="30.606" height="30.606" viewBox="0 0 30.606 30.606">
  <path id="Path_146" data-name="Path 146" d="M18.6,5.915,15.121,5.13A5.262,5.262,0,0,0,8.829,9.1l-.792,3.5A14.5,14.5,0,0,1,18.6,5.915ZM5.915,22.01,5.13,25.485A5.262,5.262,0,0,0,9.1,31.777l3.5.792A14.5,14.5,0,0,1,5.915,22.01ZM31.5,8.829,28,8.037A14.5,14.5,0,0,1,34.691,18.6l.784-3.475A5.262,5.262,0,0,0,31.5,8.829ZM22.01,34.691l3.475.784A5.262,5.262,0,0,0,31.777,31.5l.792-3.5A14.5,14.5,0,0,1,22.01,34.691Z" transform="translate(-5 -5)" fill="#3b903f"/>
  <path id="Path_147" data-name="Path 147" d="M20.887,8A12.887,12.887,0,1,0,33.774,20.887,12.886,12.886,0,0,0,20.887,8Zm-3.222,4.027a3.222,3.222,0,1,1-3.222,3.222A3.222,3.222,0,0,1,17.665,12.027Zm-2.416,15.3a3.222,3.222,0,1,1,3.222-3.222A3.222,3.222,0,0,1,15.249,27.33Zm4.027-6.443A1.611,1.611,0,1,1,20.887,22.5,1.61,1.61,0,0,1,19.276,20.887Zm4.833,8.86a3.222,3.222,0,1,1,3.222-3.222A3.222,3.222,0,0,1,24.109,29.747Zm2.416-8.86a3.222,3.222,0,1,1,3.222-3.222A3.222,3.222,0,0,1,26.525,20.887Z" transform="translate(-5.584 -5.584)" fill="#3b903f"/>
</svg>
