<svg id="Google_Play-Badge-Logo.wine" xmlns="http://www.w3.org/2000/svg" xmlns:xlink="http://www.w3.org/1999/xlink" width="168" height="49.858" viewBox="0 0 168 49.858">
  <defs>
    <linearGradient id="linear-gradient" x1="0.849" y1="0.31" x2="0.361" y2="0.799" gradientUnits="objectBoundingBox">
      <stop offset="0" stop-color="#00a0ff"/>
      <stop offset="0.007" stop-color="#00a1ff"/>
      <stop offset="0.26" stop-color="#00beff"/>
      <stop offset="0.512" stop-color="#00d2ff"/>
      <stop offset="0.76" stop-color="#00dfff"/>
      <stop offset="1" stop-color="#00e3ff"/>
    </linearGradient>
    <linearGradient id="linear-gradient-2" x1="0.97" y1="0.436" x2="-1.177" y2="0.436" gradientUnits="objectBoundingBox">
      <stop offset="0" stop-color="#ffe000"/>
      <stop offset="0.409" stop-color="#ffbd00"/>
      <stop offset="0.775" stop-color="orange"/>
      <stop offset="1" stop-color="#ff9c00"/>
    </linearGradient>
    <linearGradient id="linear-gradient-3" x1="0.761" y1="0.213" x2="-0.443" y2="1.411" gradientUnits="objectBoundingBox">
      <stop offset="0" stop-color="#ff3a44"/>
      <stop offset="1" stop-color="#c31162"/>
    </linearGradient>
    <linearGradient id="linear-gradient-4" x1="-0.17" y1="-0.275" x2="0.367" y2="0.26" gradientUnits="objectBoundingBox">
      <stop offset="0" stop-color="#32a071"/>
      <stop offset="0.068" stop-color="#2da771"/>
      <stop offset="0.476" stop-color="#15cf74"/>
      <stop offset="0.801" stop-color="#06e775"/>
      <stop offset="1" stop-color="#00f076"/>
    </linearGradient>
    <linearGradient id="linear-gradient-5" x1="0.624" y1="0.038" x2="-0.364" y2="1.027" gradientUnits="objectBoundingBox">
      <stop offset="0" stop-color="#cc2e36"/>
      <stop offset="1" stop-color="#9c0e4e"/>
    </linearGradient>
    <linearGradient id="linear-gradient-6" x1="5.233" y1="-7.998" x2="-1.121" y2="-1.634" gradientUnits="objectBoundingBox">
      <stop offset="0" stop-color="#008de0"/>
      <stop offset="0.007" stop-color="#008de0"/>
      <stop offset="0.26" stop-color="#00a7e0"/>
      <stop offset="0.512" stop-color="#00b8e0"/>
      <stop offset="0.76" stop-color="#00c4e0"/>
      <stop offset="1" stop-color="#00c7e0"/>
    </linearGradient>
    <linearGradient id="linear-gradient-7" x1="0.943" y1="-0.195" x2="-2.414" y2="-0.195" gradientUnits="objectBoundingBox">
      <stop offset="0" stop-color="#e0c500"/>
      <stop offset="0.409" stop-color="#e0a600"/>
      <stop offset="0.775" stop-color="#e09100"/>
      <stop offset="1" stop-color="#e08900"/>
    </linearGradient>
    <linearGradient id="linear-gradient-8" x1="0.944" y1="0.999" x2="-2.414" y2="0.999" gradientUnits="objectBoundingBox">
      <stop offset="0" stop-color="#ffe840"/>
      <stop offset="0.409" stop-color="#ffce40"/>
      <stop offset="0.775" stop-color="#ffbc40"/>
      <stop offset="1" stop-color="#ffb540"/>
    </linearGradient>
    <linearGradient id="linear-gradient-9" x1="5.219" y1="0.865" x2="-1.113" y2="6.933" gradientUnits="objectBoundingBox">
      <stop offset="0" stop-color="#40b8ff"/>
      <stop offset="0.007" stop-color="#40b9ff"/>
      <stop offset="0.26" stop-color="#40ceff"/>
      <stop offset="0.512" stop-color="#40ddff"/>
      <stop offset="0.76" stop-color="#40e7ff"/>
      <stop offset="1" stop-color="#40eaff"/>
    </linearGradient>
    <linearGradient id="linear-gradient-10" x1="-0.137" y1="-0.184" x2="0.304" y2="0.257" gradientUnits="objectBoundingBox">
      <stop offset="0" stop-color="#65b895"/>
      <stop offset="0.068" stop-color="#62bd95"/>
      <stop offset="0.476" stop-color="#50db97"/>
      <stop offset="0.801" stop-color="#44ed98"/>
      <stop offset="1" stop-color="#40f498"/>
    </linearGradient>
  </defs>
  <path id="Path_154" data-name="Path 154" d="M161.778,49.858H6.222A6.246,6.246,0,0,1,0,43.626V6.232A6.246,6.246,0,0,1,6.222,0H161.778A6.246,6.246,0,0,1,168,6.232V43.626a6.246,6.246,0,0,1-6.222,6.232"/>
  <path id="Path_155" data-name="Path 155" d="M161.778,0H6.222A6.246,6.246,0,0,0,0,6.232V43.626a6.246,6.246,0,0,0,6.222,6.232H161.778A6.246,6.246,0,0,0,168,43.626V6.232A6.245,6.245,0,0,0,161.778,0m0,1A5.237,5.237,0,0,1,167,6.232V43.626a5.237,5.237,0,0,1-5.227,5.236H6.222A5.237,5.237,0,0,1,1,43.626V6.232A5.237,5.237,0,0,1,6.222,1H161.778" fill="#a6a6a6"/>
  <path id="Path_156" data-name="Path 156" d="M926.174,156.974a3.379,3.379,0,0,1-.927,2.5,3.618,3.618,0,0,1-2.743,1.107,3.907,3.907,0,1,1,0-7.813,3.845,3.845,0,0,1,1.533.314,3.079,3.079,0,0,1,1.168.835l-.656.658a2.519,2.519,0,0,0-2.044-.887,2.987,2.987,0,1,0,2.086,5.139,2.354,2.354,0,0,0,.626-1.515H922.5v-.9h3.618a3.2,3.2,0,0,1,.052.564" transform="translate(-867.165 -144.206)" fill="#fff"/>
  <path id="Path_157" data-name="Path 157" d="M924.079,154.874h-.124a3.253,3.253,0,0,1-.891,2.408h0a3.493,3.493,0,0,1-2.653,1.068,3.782,3.782,0,1,1,0-7.564,3.723,3.723,0,0,1,1.484.3,2.959,2.959,0,0,1,1.122.8l.1-.08-.088-.088-.656.658.088.088.1-.08a2.648,2.648,0,0,0-2.14-.932,3.112,3.112,0,1,0,2.173,5.352,2.482,2.482,0,0,0,.662-1.592l.012-.135h-2.723v-.649h3.494v-.125l-.122.022a3.052,3.052,0,0,1,.05.542h.249a3.3,3.3,0,0,0-.054-.587l-.018-.1h-3.847v1.148h2.836v-.125L923,155.2a2.234,2.234,0,0,1-.59,1.437,2.846,2.846,0,0,1-3.95,0,3.01,3.01,0,0,1,0-4.135,2.708,2.708,0,0,1,1.953-.8,2.394,2.394,0,0,1,1.949.843l.088.1.752-.754.081-.081-.073-.087a3.2,3.2,0,0,0-1.214-.87,3.97,3.97,0,0,0-1.582-.324,4.031,4.031,0,1,0,0,8.063,3.746,3.746,0,0,0,2.833-1.145l-.09-.086.088.088a3.505,3.505,0,0,0,.964-2.584h-.125m5.736-3.124h-3.4v2.371h3.067v.9h-3.067v2.371h3.4v.919h-4.359v-7.479h4.359v.919" transform="translate(-865.069 -142.106)" fill="#fff"/>
  <path id="Path_158" data-name="Path 158" d="M1080.23,154.573v-.125h-3.525v2.621h3.066v.649h-3.067v2.621h3.4v.669H1076v-7.229h4.11v.794h.125v0h.124V153.53h-4.608v7.728h4.608V160.09h-3.4v-2.122h3.067V156.82h-3.067V154.7h3.4v-.125h-.124m4.046,6.56h-.96v-6.56h-2.086v-.919h5.131v.919h-2.085v6.56" transform="translate(-1015.485 -144.929)" fill="#fff"/>
  <path id="Path_159" data-name="Path 159" d="M1174.593,161.133v-.125h-.836v-6.56h-2.085v-.669h4.882v.669h-2.085v6.685h.125v0h.124V154.7h2.086V153.53h-5.38V154.7h2.085v6.56h1.209v-.125h-.124m5.8,0v-7.479h.959v7.479h-.959" transform="translate(-1105.801 -144.929)" fill="#fff"/>
  <path id="Path_160" data-name="Path 160" d="M1329.414,161.133h.125v-7.354h.71v7.229h-.835v.125h0v.125h1.083V153.53h-1.208v7.728h.125v-.125m5.215,0h-.96v-6.56h-2.086v-.919h5.131v.919h-2.086v6.56" transform="translate(-1254.824 -144.929)" fill="#fff"/>
  <path id="Path_161" data-name="Path 161" d="M1371.185,160.41v-.125h-.836v-6.56h-2.085v-.669h4.882v.669h-2.085v6.685h.125v0h.124v-6.435h2.085v-1.168h-5.38v1.168h2.085v6.56h1.209v-.125h-.124m7.032-1.593a2.868,2.868,0,0,0,4.057,0,3.19,3.19,0,0,0,0-4.294,2.868,2.868,0,0,0-4.057,0,3.195,3.195,0,0,0,0,4.294Zm4.766.626a3.872,3.872,0,0,1-5.475,0,4.045,4.045,0,0,1,0-5.546,3.859,3.859,0,0,1,5.47,0,4.032,4.032,0,0,1,0,5.541Z" transform="translate(-1291.38 -144.206)" fill="#fff"/>
  <path id="Path_162" data-name="Path 162" d="M1517.561,156.717l-.089.088a2.992,2.992,0,0,0,4.234,0,3.315,3.315,0,0,0,0-4.469,2.992,2.992,0,0,0-4.234,0,3.319,3.319,0,0,0,0,4.469l.089-.088.089-.088a3.07,3.07,0,0,1,0-4.118,2.744,2.744,0,0,1,3.88,0,3.068,3.068,0,0,1,0,4.118,2.744,2.744,0,0,1-3.88,0Zm4.766.626-.089-.087a3.749,3.749,0,0,1-5.3,0l0,0,0,0a3.922,3.922,0,0,1,0-5.372,3.735,3.735,0,0,1,5.292.005,3.908,3.908,0,0,1,0,5.367l.089.087.089.087a4.156,4.156,0,0,0-.005-5.714,3.983,3.983,0,0,0-5.649,0h0a4.171,4.171,0,0,0,0,5.72l0,0,0,0a4,4,0,0,0,5.654,0Zm2.447.967v-7.479h1.168l3.629,5.818h.041l-.041-1.441v-4.377h.96v7.479h-1l-3.8-6.1h-.041l.041,1.442v4.658h-.958" transform="translate(-1430.724 -142.106)" fill="#fff"/>
  <path id="Path_163" data-name="Path 163" d="M954.712,161.133h.125v-7.354h.974l3.629,5.818h.238l-.045-1.568v-4.25h.711v7.229h-.808l-3.8-6.1H955.5l.045,1.568v4.531h-.834v.125h0v.125h1.083v-4.785l-.041-1.443-.124,0v.125h.041v-.125l-.106.066,3.833,6.158h1.195V153.53h-1.209v4.5l.041,1.443.124,0v-.125h-.041v.125l.106-.066-3.665-5.876h-1.361v7.728h.124v-.125m39.027,21.19h2.322V166.741h-2.322Zm20.915-9.969-2.662,6.756h-.08l-2.763-6.756h-2.5l4.143,9.442-2.362,5.252h2.423l6.384-14.695Zm-13.169,8.2c-.761,0-1.822-.381-1.822-1.323,0-1.2,1.322-1.664,2.461-1.664a4.127,4.127,0,0,1,2.122.522,2.817,2.817,0,0,1-2.761,2.466Zm.28-8.54a4.358,4.358,0,0,0-4.143,2.386l2.061.862a2.2,2.2,0,0,1,2.122-1.143,2.237,2.237,0,0,1,2.442,2.005v.16a5.128,5.128,0,0,0-2.422-.6c-2.221,0-4.484,1.223-4.484,3.508a3.6,3.6,0,0,0,3.863,3.428,3.276,3.276,0,0,0,2.963-1.523h.08v1.2h2.241v-5.974C1006.488,173.557,1004.427,172.013,1001.765,172.013Zm-14.351,2.238h-3.3V168.91h3.3a2.671,2.671,0,1,1,0,5.341Zm-.06-7.51H981.79v15.582h2.321v-5.9h3.243a4.846,4.846,0,1,0,0-9.679Zm-30.341,13.815a3.225,3.225,0,0,1,0-6.426,3.239,3.239,0,0,1,0,6.426Zm2.666-7.33h-.08a3.666,3.666,0,0,0-2.787-1.185,5.306,5.306,0,0,0,0,10.6,3.608,3.608,0,0,0,2.787-1.2h.08v.763c0,2.028-1.083,3.113-2.827,3.113a2.931,2.931,0,0,1-2.667-1.888l-2.025.843a5.045,5.045,0,0,0,4.691,3.133c2.727,0,5.032-1.607,5.032-5.522v-9.518H959.68Zm3.809,9.1h2.326V166.74h-2.326Zm5.754-5.141a2.905,2.905,0,0,1,2.767-3.092,2.047,2.047,0,0,1,1.964,1.125Zm7.218-1.767a4.92,4.92,0,0,0-4.531-3.374,5.034,5.034,0,0,0-4.992,5.3,5.184,5.184,0,0,0,5.252,5.3A5.264,5.264,0,0,0,976.6,180.3l-1.8-1.205a3.022,3.022,0,0,1-2.607,1.466,2.693,2.693,0,0,1-2.566-1.606l7.077-2.932Zm-56.383-1.747v2.249h5.373a4.7,4.7,0,0,1-1.223,2.831,5.494,5.494,0,0,1-4.15,1.647,5.985,5.985,0,0,1,0-11.968,5.721,5.721,0,0,1,4.05,1.607l1.584-1.586a7.825,7.825,0,0,0-5.633-2.269,8.234,8.234,0,1,0,0,16.466,7.281,7.281,0,0,0,7.679-7.57,7.3,7.3,0,0,0-.121-1.406Zm13.787,6.888a3.222,3.222,0,1,1,2.987-3.213A3.065,3.065,0,0,1,933.864,180.556Zm0-8.514a5.3,5.3,0,1,0,5.313,5.3A5.221,5.221,0,0,0,933.864,172.042Zm11.59,8.514a3.222,3.222,0,1,1,2.987-3.213,3.065,3.065,0,0,1-2.987,3.213Zm0-8.514a5.3,5.3,0,1,0,5.313,5.3,5.221,5.221,0,0,0-5.313-5.3Z" transform="translate(-860.662 -144.929)" fill="#fff"/>
  <path id="Path_164" data-name="Path 164" d="M222.208,162.539a2.41,2.41,0,0,0-.667,1.842v27.2a2.5,2.5,0,0,0,.576,1.751l.092.089h0a1.6,1.6,0,0,0,1.1.405,2.863,2.863,0,0,0,1.394-.418l18.063-10.28,6.2-3.531a2.323,2.323,0,0,0,1.3-1.616v0a2.322,2.322,0,0,0-1.3-1.617l-6.205-3.531L224.7,162.553a2.868,2.868,0,0,0-1.4-.419,1.6,1.6,0,0,0-1.1.4Z" transform="translate(-209.131 -153.051)" fill="#00c1ff"/>
  <path id="Path_165" data-name="Path 165" d="M.783-520.681l-.092-.089a2.5,2.5,0,0,1-.576-1.751v-27.2a2.41,2.41,0,0,1,.667-1.843L16.2-536.123.783-520.681" transform="translate(12.295 561.053)" fill="url(#linear-gradient)"/>
  <path id="Path_166" data-name="Path 166" d="M5.826-174.269l-5.14-5.149,5.14-5.149,6.205,3.531a2.322,2.322,0,0,1,1.3,1.617v0a2.323,2.323,0,0,1-1.3,1.616l-6.2,3.531" transform="translate(27.81 204.349)" fill="url(#linear-gradient-2)"/>
  <path id="Path_167" data-name="Path 167" d="M1.54-267.169a1.6,1.6,0,0,1-1.1-.405h0l15.417-15.442L21-277.868,2.934-267.588a2.862,2.862,0,0,1-1.394.418" transform="translate(12.639 307.947)" fill="url(#linear-gradient-3)"/>
  <path id="Path_168" data-name="Path 168" d="M15.608-267.757.19-283.2a1.6,1.6,0,0,1,1.1-.4,2.868,2.868,0,0,1,1.4.419l18.063,10.28-5.14,5.149" transform="translate(12.887 292.688)" fill="url(#linear-gradient-4)"/>
  <path id="Path_169" data-name="Path 169" d="M1.982-184.213a1.6,1.6,0,0,1-1.1-.406h0l0,0L.8-184.7l-.008-.008.092-.093a1.6,1.6,0,0,0,1.1.405,2.862,2.862,0,0,0,1.394-.418l18.063-10.28.116.116-.117.067L3.376-184.632a2.971,2.971,0,0,1-1.28.416l-.114,0" transform="translate(12.196 225.174)" fill="url(#linear-gradient-5)"/>
  <path id="Path_170" data-name="Path 170" d="M.691-33.372a2.5,2.5,0,0,1-.576-1.751v-.182a2.5,2.5,0,0,0,.576,1.751l.092.089-.092.093" transform="translate(12.295 73.837)" fill="url(#linear-gradient-6)"/>
  <path id="Path_171" data-name="Path 171" d="M.758-88.864.642-88.98l6.2-3.531a2.323,2.323,0,0,0,1.3-1.616,1.546,1.546,0,0,1-.144.643,2.672,2.672,0,0,1-1.16,1.155L.758-88.864" transform="translate(32.994 119.059)" fill="url(#linear-gradient-7)"/>
  <path id="Path_172" data-name="Path 172" d="M8.142-89.42a2.322,2.322,0,0,0-1.3-1.617L.633-94.568l.116-.116h0l6.089,3.465a2.188,2.188,0,0,1,1.3,1.8" transform="translate(33.002 114.35)" fill="url(#linear-gradient-8)"/>
  <path id="Path_173" data-name="Path 173" d="M.115-32.824v-.19c0-.069,0-.136.005-.2v0a.009.009,0,0,1,0,0v-.007a2.377,2.377,0,0,1,.57-1.529l.091.091a2.41,2.41,0,0,0-.667,1.843" transform="translate(12.295 44.154)" fill="url(#linear-gradient-9)"/>
  <path id="Path_174" data-name="Path 174" d="M21.438-184.022,3.375-194.3a2.868,2.868,0,0,0-1.4-.419,1.6,1.6,0,0,0-1.1.4l-.091-.092q.043-.045.089-.087l0,0a1.6,1.6,0,0,1,1.088-.405h.009a2.867,2.867,0,0,1,1.4.419l18.179,10.346h0l-.116.116" transform="translate(12.197 203.803)" fill="url(#linear-gradient-10)"/>
</svg>
