<svg xmlns="http://www.w3.org/2000/svg" width="26.055" height="26.049" viewBox="0 0 26.055 26.049">
  <path id="instagram" d="M12.955,38.171a6.679,6.679,0,1,0,6.679,6.679A6.668,6.668,0,0,0,12.955,38.171Zm0,11.021A4.342,4.342,0,1,1,17.3,44.849a4.35,4.35,0,0,1-4.342,4.342ZM21.465,37.9a1.558,1.558,0,1,1-1.558-1.558A1.554,1.554,0,0,1,21.465,37.9Zm4.423,1.581a7.709,7.709,0,0,0-2.1-5.458,7.76,7.76,0,0,0-5.458-2.1c-2.151-.122-8.6-.122-10.747,0a7.749,7.749,0,0,0-5.458,2.1,7.734,7.734,0,0,0-2.1,5.458c-.122,2.151-.122,8.6,0,10.747a7.709,7.709,0,0,0,2.1,5.458,7.77,7.77,0,0,0,5.458,2.1c2.151.122,8.6.122,10.747,0a7.709,7.709,0,0,0,5.458-2.1,7.76,7.76,0,0,0,2.1-5.458c.122-2.151.122-8.591,0-10.742ZM23.11,52.528A4.4,4.4,0,0,1,20.634,55c-1.715.68-5.783.523-7.678.523S6.986,55.678,5.277,55A4.4,4.4,0,0,1,2.8,52.528c-.68-1.715-.523-5.783-.523-7.678s-.151-5.969.523-7.678a4.4,4.4,0,0,1,2.476-2.476c1.715-.68,5.783-.523,7.678-.523s5.969-.151,7.678.523a4.4,4.4,0,0,1,2.476,2.476c.68,1.715.523,5.783.523,7.678S23.79,50.819,23.11,52.528Z" transform="translate(0.075 -31.825)" fill="#3b903f"/>
</svg>
