<svg xmlns="http://www.w3.org/2000/svg" width="168" height="49.775" viewBox="0 0 168 49.775">
  <g id="mayket" transform="translate(578.8 850.8)">
    <path id="Path_144" data-name="Path 144" d="M-416.77-801.025H-572.917a5.9,5.9,0,0,1-5.883-5.882v-38.01a5.9,5.9,0,0,1,5.883-5.883H-416.77a5.973,5.973,0,0,1,5.97,5.883v38.01a5.984,5.984,0,0,1-5.97,5.882Z" fill="#a6a6a6"/>
    <path id="Path_145" data-name="Path 145" d="M-406.8-801.721a4.776,4.776,0,0,1-4.769,4.769H-567.714a4.78,4.78,0,0,1-4.786-4.769v-38.01a4.78,4.78,0,0,1,4.786-4.769h156.148a4.765,4.765,0,0,1,4.769,4.769v38.01Z" transform="translate(-5.204 -5.204)"/>
    <g id="Group_75" data-name="Group 75" transform="translate(-501.196 -831.795)">
      <path id="Path_146" data-name="Path 146" d="M-129.489-725.467c.1.331.191.679.3,1.009a4.058,4.058,0,0,0,.122.435,4.237,4.237,0,0,1,.1.453,4.142,4.142,0,0,1,.087.452,3.618,3.618,0,0,1,.052.4.433.433,0,0,0,.017.139v.174a3.289,3.289,0,0,1-.139.922,3.76,3.76,0,0,1-.383.853,4.212,4.212,0,0,1-.592.783,5.834,5.834,0,0,1-.748.714,7.551,7.551,0,0,1-.853.609,6.632,6.632,0,0,1-.905.5l-.47-.957a10.417,10.417,0,0,0,1.114-.661,5.509,5.509,0,0,0,.957-.818,4.282,4.282,0,0,0,.679-.94,2.195,2.195,0,0,0,.261-1.027v-.087a.3.3,0,0,0-.017-.122h0c-.017-.1-.035-.244-.052-.365a3.561,3.561,0,0,0-.087-.418l-.1-.418c-.035-.139-.07-.278-.1-.4-.087-.313-.174-.609-.278-.922Zm.261-2.228-.888.888-.9-.905.888-.888Z" transform="translate(132.9 730.862)" fill="#fff"/>
      <path id="Path_147" data-name="Path 147" d="M-99.509-731.268q.078-1.253.1-2.35c.017-.731.017-1.427,0-2.054s-.035-1.183-.07-1.688-.07-.922-.1-1.27-.052-.627-.087-.818c-.017-.191-.035-.3-.035-.3l1.079-.157c0,.017.035.244.087.661.017.209.052.435.07.679s.035.5.052.783.035.54.052.783.017.487.035.714c.017.679.035,1.427.017,2.28,0,.853-.035,1.775-.1,2.785Z" transform="translate(105.478 740.196)" fill="#fff"/>
      <path id="Path_148" data-name="Path 148" d="M-58.572-720.922a2.21,2.21,0,0,1-.348-.592A6.052,6.052,0,0,1-63.48-720a8.2,8.2,0,0,1-2.75-.4,2.864,2.864,0,0,1-1.584-1.218,2.258,2.258,0,0,1-.244-.557,3.324,3.324,0,0,1-.1-.574,2.977,2.977,0,0,1,0-.557c.017-.174.052-.348.087-.522.052-.174.087-.331.139-.47s.087-.261.122-.365a1.7,1.7,0,0,1,.1-.244.269.269,0,0,0,.052-.1l.94.522-.052.1a1.59,1.59,0,0,0-.1.278,3.811,3.811,0,0,0-.122.4,2.19,2.19,0,0,0-.07.47,1.684,1.684,0,0,0,.035.5,1.633,1.633,0,0,0,.174.487,2.087,2.087,0,0,0,1.183.835,7.076,7.076,0,0,0,2.193.279,8.68,8.68,0,0,0,2.054-.209,3.781,3.781,0,0,0,1.41-.661,2.574,2.574,0,0,0,.435-.435,2.9,2.9,0,0,0,.313-.487,3.1,3.1,0,0,0,.209-.5c.052-.174.1-.331.157-.5l1.044.279c-.017.07-.035.157-.052.244s-.052.191-.07.3a1.56,1.56,0,0,0-.052.54,2.528,2.528,0,0,0,.07.487,1.011,1.011,0,0,0,.226.452,1.563,1.563,0,0,0,1.305.487.512.512,0,0,1,.383.157.512.512,0,0,1,.157.383.512.512,0,0,1-.157.383.512.512,0,0,1-.383.157h-.052A2.353,2.353,0,0,1-58.572-720.922Zm-4.7-4.473-.888.888-.9-.888.888-.888Zm2.245,0-.888.888-.905-.905.888-.888Z" transform="translate(79.44 728.963)" fill="#fff"/>
      <path id="Path_149" data-name="Path 149" d="M-3.3-733.194a.512.512,0,0,1,.157-.383.54.54,0,0,1,.383-.157,10.871,10.871,0,0,0,1.114-.052,5.717,5.717,0,0,0,.905-.157,3.128,3.128,0,0,0,.679-.209,1.531,1.531,0,0,0,.418-.209.76.76,0,0,0,.122-.1c.035-.035.052-.07.087-.1H.007a3.206,3.206,0,0,1-.574-.052,2.291,2.291,0,0,1-.522-.139,3.668,3.668,0,0,1-.453-.226,1.5,1.5,0,0,1-.348-.313,1.482,1.482,0,0,1-.157-.244,1.461,1.461,0,0,1-.122-.331,1.523,1.523,0,0,1-.052-.418,2.637,2.637,0,0,1,.035-.5,3.285,3.285,0,0,1,.226-.766,3.7,3.7,0,0,1,.365-.627,1.636,1.636,0,0,1,.557-.487,1.391,1.391,0,0,1,.627-.157,1.7,1.7,0,0,1,1.305.644,3.541,3.541,0,0,1,.453.644,5.246,5.246,0,0,1,.313.783,3.652,3.652,0,0,1,.157.87,3.785,3.785,0,0,1,0,.888h0a3.847,3.847,0,0,1-.087.435c-.017.052-.035.1-.052.174a.929.929,0,0,1-.1.244,2.367,2.367,0,0,1-.209.3,1.925,1.925,0,0,1-.331.313,2.63,2.63,0,0,1-.661.365,5.38,5.38,0,0,1-.888.261,9.381,9.381,0,0,1-1.044.157c-.365.035-.748.052-1.114.052H-2.76a.512.512,0,0,1-.383-.157A.344.344,0,0,1-3.3-733.194Zm3.62-7.5-.888.888-.905-.9.888-.888Zm-.731,2.959a.281.281,0,0,0-.174.07.892.892,0,0,0-.209.226,1.8,1.8,0,0,0-.191.365,3.255,3.255,0,0,0-.139.487.742.742,0,0,0,.087.609.707.707,0,0,0,.313.209,1.984,1.984,0,0,0,.5.1c.191,0,.365.017.522.017a3.086,3.086,0,0,0,.418-.017,3.26,3.26,0,0,0-.209-1.009,2.159,2.159,0,0,0-.453-.783,1.3,1.3,0,0,0-.226-.191A.344.344,0,0,0-.411-737.736Z" transform="translate(25.855 741.6)" fill="#fff"/>
      <path id="Path_150" data-name="Path 150" d="M37.819-729.351a3.486,3.486,0,0,1-1.027-.139,1.948,1.948,0,0,1-.731-.435,1.432,1.432,0,0,1-.278-.383,1.963,1.963,0,0,1-.139-.418,1.552,1.552,0,0,1-.052-.383v-2.8c0-.313,0-.644-.017-.975,0-.348-.017-.661-.035-.992-.017-.313-.035-.609-.052-.87a5.145,5.145,0,0,0-.087-.661l1.079-.191a5.952,5.952,0,0,1,.087.679c.017.279.052.557.07.888.017.313.035.644.035.992s.017.679.017,1.009v2.645a3.085,3.085,0,0,0,.017.418.45.45,0,0,0,.157.3,1.242,1.242,0,0,0,.922.261h.052a.464.464,0,0,1,.209.052.627.627,0,0,1,.174.122.625.625,0,0,1,.122.174.463.463,0,0,1,.052.209.512.512,0,0,1-.157.383A.57.57,0,0,1,37.819-729.351Z" transform="translate(-6.109 738.296)" fill="#fff"/>
      <path id="Path_151" data-name="Path 151" d="M44.5-714.858a.512.512,0,0,1,.157-.383.512.512,0,0,1,.383-.157h1.027c.157,0,.3-.017.453-.017a2.038,2.038,0,0,0,.452-.07,2.706,2.706,0,0,0,.4-.122,1.262,1.262,0,0,0,.331-.191.771.771,0,0,0,.209-.261,1.48,1.48,0,0,0,.07-.661,5.4,5.4,0,0,0-.226-1.009c-.035-.122-.087-.244-.139-.383s-.1-.261-.157-.383c-.052-.139-.122-.278-.174-.418l.975-.487.052.1c.035.07.07.174.122.278.052.122.1.261.174.418a4.3,4.3,0,0,1,.174.5,3.474,3.474,0,0,1,.122,2.454,2.025,2.025,0,0,1-1.375,1.166,1.893,1.893,0,0,1-.383.07,4.27,4.27,0,0,1-.47.035c-.157,0-.313.017-.452.017H45.04a.512.512,0,0,1-.383-.157A.394.394,0,0,1,44.5-714.858Zm2.645,2.419-.888.888-.9-.888.888-.888Zm2.245.017-.888.888-.905-.905.888-.888Z" transform="translate(-13.625 723.264)" fill="#fff"/>
      <path id="Path_152" data-name="Path 152" d="M75.811-710.6c.1.331.191.679.3,1.009a4.058,4.058,0,0,0,.122.435,4.241,4.241,0,0,1,.1.453,4.146,4.146,0,0,1,.087.452,3.619,3.619,0,0,1,.052.4.433.433,0,0,0,.017.139v.174a3.289,3.289,0,0,1-.139.922,3.76,3.76,0,0,1-.383.853,4.209,4.209,0,0,1-.592.783,5.83,5.83,0,0,1-.748.714,7.55,7.55,0,0,1-.853.609,6.625,6.625,0,0,1-.9.5l-.47-.957a10.425,10.425,0,0,0,1.114-.661,5.512,5.512,0,0,0,.957-.818,4.285,4.285,0,0,0,.679-.94,2.2,2.2,0,0,0,.261-1.027v-.087a.3.3,0,0,0-.017-.122h0c-.017-.1-.035-.244-.052-.365a3.563,3.563,0,0,0-.087-.418l-.1-.418c-.035-.139-.07-.278-.1-.4-.087-.313-.174-.609-.278-.922Z" transform="translate(-36.67 715.995)" fill="#fff"/>
      <path id="Path_153" data-name="Path 153" d="M105.419-719.622a2.98,2.98,0,0,1-.627-.07c-.244-.052-.47-.1-.714-.174a4.609,4.609,0,0,1-.644-.226,1.582,1.582,0,0,1-.435-.261l.453-1.027a4.13,4.13,0,0,0,.487.261,3.13,3.13,0,0,0,.609.209c.209.052.435.1.661.139a2.826,2.826,0,0,0,.661.017,2.256,2.256,0,0,0,.592-.139,1.22,1.22,0,0,0,.452-.331c.1-.1.1-.331.035-.627a2.648,2.648,0,0,0-.191-.557,4.132,4.132,0,0,0-.331-.592,5.974,5.974,0,0,0-.418-.574,4.673,4.673,0,0,0-.487-.522,5.332,5.332,0,0,0-.5-.418,3.153,3.153,0,0,0-.5-.3l.435-.992a4.172,4.172,0,0,1,.644.383,6.044,6.044,0,0,1,.644.522,7.019,7.019,0,0,1,.592.644,4.844,4.844,0,0,1,.5.714,7.588,7.588,0,0,1,.4.731,4.33,4.33,0,0,1,.244.714,2.213,2.213,0,0,1,.07.557,1.657,1.657,0,0,1-.052.435,1.461,1.461,0,0,1-.122.331,1.487,1.487,0,0,1-.157.244,2.374,2.374,0,0,1-1.41.8,1.751,1.751,0,0,1-.435.07A1.837,1.837,0,0,1,105.419-719.622Z" transform="translate(-61.944 728.55)" fill="#fff"/>
    </g>
    <g id="XMLID_21_" transform="translate(-568.845 -841.297)">
      <g id="XMLID_22_">
        <path id="XMLID_26_" d="M-481.042-740.884a1.709,1.709,0,0,0,1.253-.522,2.171,2.171,0,0,0,.261-.331,2.32,2.32,0,0,0,.244.331,1.671,1.671,0,0,0,1.236.522,1.644,1.644,0,0,0,1.236-.522,1.693,1.693,0,0,0,.5-1.253,1.694,1.694,0,0,0-.5-1.236,1.694,1.694,0,0,0-1.236-.5,1.694,1.694,0,0,0-1.236.5,1.081,1.081,0,0,0-.244.331,1.554,1.554,0,0,0-.261-.331,1.693,1.693,0,0,0-1.253-.5,1.671,1.671,0,0,0-1.236.522,1.739,1.739,0,0,0-.522,1.236,1.763,1.763,0,0,0,.5,1.253A1.763,1.763,0,0,0-481.042-740.884Z" transform="translate(489.553 753.415)" fill="#fff"/>
        <path id="XMLID_25_" d="M-477.359-786.167a1.265,1.265,0,0,0-1.027.452,1.527,1.527,0,0,0-.418,1.079,6.8,6.8,0,0,0,.226,1.34,6.422,6.422,0,0,1,.226,1.34c0,1.062-.766,1.6-2.28,1.6h-1.775a5.577,5.577,0,0,1-3.881-1.775c-1.445-1.427-2.4-2.384-2.906-2.889-1.775-1.723-3.289-3.081-4.56-4.125a.747.747,0,0,1-.313-.574.525.525,0,0,1,.383-.47,58.164,58.164,0,0,1,8.162-2.489c.905-.191,1.34-.679,1.34-1.427,0-.992-.574-1.5-1.74-1.5a3.781,3.781,0,0,0-.7.087,33.621,33.621,0,0,0-9.329,3.307,2.856,2.856,0,0,0-1.323,2.645,2.851,2.851,0,0,0,.3,1.427,18.72,18.72,0,0,0,3.411,3.411c1.723,1.479,2.576,2.489,2.576,3.011,0,.714-.731,1.131-2.193,1.288-.313.035-1.5.035-3.568.035h-.922c-1.375,0-2.158-.557-2.384-1.671-.122-.627-.191-1.009-.226-1.166a1.051,1.051,0,0,0-1.062-.679c-.47,0-.853.3-1.114.905a11.305,11.305,0,0,1-.835,1.706c-.9,1.149-3.307,1.723-7.188,1.723h-1.88c-2.645,0-4.455-.3-5.43-.922a2.115,2.115,0,0,1-.992-1.914,5.907,5.907,0,0,1,.157-1.114,6.1,6.1,0,0,0,.157-1.114.98.98,0,0,0-1.114-1.114c-.7,0-1.253.609-1.619,1.827a9.052,9.052,0,0,0-.4,2.663q0,5.326,9.085,5.326c5.813,0,9.433-.905,10.79-2.732a3.473,3.473,0,0,0,3.481,1.88h1.1a21.45,21.45,0,0,0,5.552-.487,4.141,4.141,0,0,0,3.046-3.115,7.584,7.584,0,0,0,6.352,3.6h1.375a5.342,5.342,0,0,0,4-1.5,5.55,5.55,0,0,0,1.445-4.073Q-475.4-786.167-477.359-786.167Z" transform="translate(521.6 795.704)" fill="#fff"/>
        <path id="XMLID_24_" d="M-306.248-676.6a1.671,1.671,0,0,0-1.236.522,1.828,1.828,0,0,0-.453.766,1.727,1.727,0,0,0-.452-.766,1.671,1.671,0,0,0-1.236-.522,1.763,1.763,0,0,0-1.253.5,1.643,1.643,0,0,0-.522,1.236,1.709,1.709,0,0,0,.522,1.253,1.709,1.709,0,0,0,1.253.522,1.643,1.643,0,0,0,1.236-.522,1.75,1.75,0,0,0,.435-.783,1.75,1.75,0,0,0,.435.783,1.671,1.671,0,0,0,1.236.522,1.709,1.709,0,0,0,1.253-.522,1.709,1.709,0,0,0,.522-1.253,1.643,1.643,0,0,0-.522-1.236A1.683,1.683,0,0,0-306.248-676.6Z" transform="translate(347.983 697.415)" fill="#fff"/>
        <path id="XMLID_23_" d="M-230.75-784.191a3.021,3.021,0,0,0-2.7-1.5,4.079,4.079,0,0,0-2.906,1.566c-.191.226-.679.888-1.445,1.984a2.9,2.9,0,0,1-1.009,1.009,2.845,2.845,0,0,1-1.358.261h-.4c-1.619,0-2.4-.992-2.4-2.959v-10.321c0-1.375-.522-2.054-1.566-2.054a1.378,1.378,0,0,0-1.218.661,2.548,2.548,0,0,0-.348,1.392l.348,9.764a14.856,14.856,0,0,0,.748,4.96c.679,1.444,2.036,2.158,4.073,2.158h1.114a3.914,3.914,0,0,0,2.872-1.183,4.242,4.242,0,0,0,3.429,1.584,3.135,3.135,0,0,0,2.645-1.323,4.564,4.564,0,0,0,.9-2.872A5.382,5.382,0,0,0-230.75-784.191Zm-2.819,4.351a2.665,2.665,0,0,1-1.114-.3c-.47-.244-.7-.522-.7-.818a1.5,1.5,0,0,1,.592-1.131,1.865,1.865,0,0,1,1.183-.539,1.109,1.109,0,0,1,.957.557,2.083,2.083,0,0,1,.3,1.114C-232.351-780.206-232.751-779.84-233.569-779.84Z" transform="translate(294.048 796.2)" fill="#fff"/>
      </g>
    </g>
    <g id="XMLID_15_" transform="translate(-450.62 -844.726)">
      <g id="XMLID_16_" transform="translate(0)">
        <circle id="XMLID_20_" cx="15.594" cy="15.594" r="15.594" fill="#00b0ff"/>
        <g id="XMLID_17_" transform="translate(5.761 8.458)">
          <path id="XMLID_19_" d="M210.205-762.009a5.524,5.524,0,0,0-5.534-5.291,5.538,5.538,0,0,0-4.16,1.88,5.538,5.538,0,0,0-4.16-1.88,5.548,5.548,0,0,0-5.534,5.134c0,.07-.017.139-.017.209v6.265a1.4,1.4,0,0,0,1.392,1.392h.035a1.4,1.4,0,0,0,1.392-1.392v-6.057h0a2.756,2.756,0,0,1,2.75-2.75,2.756,2.756,0,0,1,2.75,2.75h0v5.117a1.4,1.4,0,0,0,1.392,1.392h.035a1.4,1.4,0,0,0,1.392-1.392v-5.117a2.756,2.756,0,0,1,2.75-2.75,2.756,2.756,0,0,1,2.75,2.75h0v6.074a1.367,1.367,0,0,0,1.375,1.375h.035a1.367,1.367,0,0,0,1.375-1.375v-6.2A.433.433,0,0,1,210.205-762.009Z" transform="translate(-190.8 767.3)" fill="#fff"/>
          <path id="XMLID_18_" d="M231.314-689.739c-.07-.1-.261.1-.261.1a5.734,5.734,0,0,1-4.02,1.375,5.765,5.765,0,0,1-4.02-1.375s-.209-.209-.261-.1c-.087.122.035.313.035.313a4.886,4.886,0,0,0,4.247,2.054,4.928,4.928,0,0,0,4.247-2.054A.305.305,0,0,0,231.314-689.739Z" transform="translate(-217.165 703.262)" fill="#fff"/>
        </g>
      </g>
    </g>
  </g>
</svg>
