<svg xmlns="http://www.w3.org/2000/svg" width="192" height="74" viewBox="0 0 192 74">
  <g id="Sibapp-Badge-Black" transform="translate(0.228 -0.299)">
    <rect id="Rectangle_67" data-name="Rectangle 67" width="192" height="74" transform="translate(-0.228 0.299)" fill="none"/>
    <rect id="Rectangle_68" data-name="Rectangle 68" width="167" height="50" rx="5" transform="translate(11.772 12.299)"/>
    <path id="Path_112" data-name="Path 112" d="M170.648,10.989a5.19,5.19,0,0,1,5.19,5.19V53.251a5.19,5.19,0,0,1-5.19,5.19H16.179a5.19,5.19,0,0,1-5.19-5.19V16.179a5.19,5.19,0,0,1,5.19-5.19H170.648m0-.989H16.179A6.179,6.179,0,0,0,10,16.179V53.251a6.179,6.179,0,0,0,6.179,6.179H170.648a6.179,6.179,0,0,0,6.179-6.179V16.179A6.179,6.179,0,0,0,170.648,10Z" transform="translate(2.363 2.35)" fill="#a6a6a6"/>
    <path id="Path_113" data-name="Path 113" d="M34.793,23.53a3.287,3.287,0,0,1-.2,1.013,2.311,2.311,0,0,1-.507.754,2.126,2.126,0,0,1-.766.482,2.978,2.978,0,0,1-1.026.173H31.79V24.938H32.3a2.62,2.62,0,0,0,.667-.074,1.026,1.026,0,0,0,.47-.26,1.125,1.125,0,0,0,.272-.457,2.892,2.892,0,0,0,.087-.7V20.972h1Zm-1.236-4.288.729-.741.741.741-.741.741Z" transform="translate(7.5 4.354)" fill="#fff"/>
    <path id="Path_114" data-name="Path 114" d="M36.123,23.88H35.11V18.06h1.013Z" transform="translate(8.283 4.25)" fill="#fff"/>
    <path id="Path_115" data-name="Path 115" d="M38.86,18.058a.618.618,0,1,1,1.236,0,.556.556,0,0,1-.148.4.692.692,0,0,1-.89,0,.556.556,0,0,1-.2-.4Zm1.112,5.907h-1.05v-4.7h1.05Z" transform="translate(9.167 4.104)" fill="#fff"/>
    <path id="Path_116" data-name="Path 116" d="M45.77,20.96a3.954,3.954,0,0,1-.321,1.631,2.385,2.385,0,0,1-.914,1.075,2.719,2.719,0,0,1-2.743,0,2.36,2.36,0,0,1-.927-1.063A3.707,3.707,0,0,1,40.53,21V20.59a3.954,3.954,0,0,1,.321-1.631,2.583,2.583,0,0,1,.927-1.087,2.719,2.719,0,0,1,2.743,0,2.472,2.472,0,0,1,.914,1.063,3.769,3.769,0,0,1,.334,1.656Zm-1.1-.371a2.805,2.805,0,0,0-.4-1.606,1.3,1.3,0,0,0-1.125-.556,1.236,1.236,0,0,0-1.112.556,2.743,2.743,0,0,0-.42,1.606v.358a2.793,2.793,0,0,0,.408,1.606,1.31,1.31,0,0,0,1.137.568,1.236,1.236,0,0,0,1.112-.556,2.793,2.793,0,0,0,.4-1.619Z" transform="translate(9.561 4.118)" fill="#fff"/>
    <path id="Path_117" data-name="Path 117" d="M48.921,22.318a.754.754,0,0,0-.3-.643,3.164,3.164,0,0,0-1.05-.457,5.2,5.2,0,0,1-1.236-.519,1.606,1.606,0,0,1-.865-1.409,1.532,1.532,0,0,1,.618-1.236,2.472,2.472,0,0,1,1.619-.494,2.6,2.6,0,0,1,1.174.247,1.952,1.952,0,0,1,.816.692,1.841,1.841,0,0,1,.284.989H48.9a1.013,1.013,0,0,0-.309-.779,1.3,1.3,0,0,0-.89-.272,1.347,1.347,0,0,0-.828.222.779.779,0,0,0-.3.643.667.667,0,0,0,.321.581,3.584,3.584,0,0,0,1.05.457,4.943,4.943,0,0,1,1.236.494,1.915,1.915,0,0,1,.655.643,1.742,1.742,0,0,1,.21.853,1.5,1.5,0,0,1-.606,1.236,2.645,2.645,0,0,1-1.644.457,3.225,3.225,0,0,1-1.236-.247,2.261,2.261,0,0,1-.9-.7,1.742,1.742,0,0,1-.309-1.038h1.1a1.013,1.013,0,0,0,.346.828,1.582,1.582,0,0,0,1.026.3,1.335,1.335,0,0,0,.865-.235.754.754,0,0,0,.235-.606Z" transform="translate(10.697 4.132)" fill="#fff"/>
    <path id="Path_118" data-name="Path 118" d="M56.256,23.666h-.111a3.25,3.25,0,0,1-.606,0,2.471,2.471,0,0,1-.531-.185,1.792,1.792,0,0,1-.445-.309,1.607,1.607,0,0,1-.309-.457.989.989,0,0,1-.247.26,1.483,1.483,0,0,1-.334.2,1.73,1.73,0,0,1-.358.111h-.371a1.644,1.644,0,0,1-.606-.111,1.421,1.421,0,0,1-.507-.321,1.483,1.483,0,0,1-.346-.507,1.668,1.668,0,0,1-.136-.68,1.705,1.705,0,0,1,.173-.766,2.224,2.224,0,0,1,.433-.581,3.04,3.04,0,0,1,.643-.42,7.59,7.59,0,0,1,.729-.309l-.087-.383.976-.235.741,2.867a.9.9,0,0,0,.21.42,1.013,1.013,0,0,0,.321.247.877.877,0,0,0,.346.111h.42Zm-2.472-2a.729.729,0,0,0,0-.235,1.52,1.52,0,0,0,0-.235.384.384,0,0,0-.086-.284c-.087-.1,0-.21-.1-.334a3.262,3.262,0,0,0-.976.47.779.779,0,0,0-.334.643.457.457,0,0,0,.074.26.445.445,0,0,0,.173.2.692.692,0,0,0,.235.111.618.618,0,0,0,.26,0,1.236,1.236,0,0,0,.507-.173.655.655,0,0,0,.235-.42Z" transform="translate(12.112 4.465)" fill="#fff"/>
    <path id="Path_119" data-name="Path 119" d="M60.688,22.286l-.136.087-.3.2a.692.692,0,0,0,.124.185l.173.1h1.026v1h-.741a1.829,1.829,0,0,1-.865-.21,1.508,1.508,0,0,1-.593-.618l-.667.3a7.808,7.808,0,0,1-.754.272c-.26.074-.531.136-.8.185a4.585,4.585,0,0,1-.828.074H55.09v-.914h1.236a4.25,4.25,0,0,0,.852-.086,6.982,6.982,0,0,0,.878-.21,5.425,5.425,0,0,0,.828-.284,6.314,6.314,0,0,0,.692-.309l-.408-.124-.482-.222-.445-.124-.408-.111-.358-.074a.89.89,0,0,0-.235,0H57.08a.3.3,0,0,0-.136.074.544.544,0,0,0-.1.136.593.593,0,0,0-.1.2l-.927-.284A2.954,2.954,0,0,1,56,21.062a1.594,1.594,0,0,1,.272-.371,1.149,1.149,0,0,1,.371-.247,1.162,1.162,0,0,1,.482-.087l.321.111.433.124.531.161.568.2.544.2.482.173.358.136h.185Zm-4.362-3.547.717-.729.754.741-.741.729Z" transform="translate(12.994 4.238)" fill="#fff"/>
    <path id="Path_120" data-name="Path 120" d="M61.933,22.009a.161.161,0,0,1,.124,0,.148.148,0,0,1,0,.111v.692a.136.136,0,0,1,0,.124.161.161,0,0,1-.124,0H60.252a.136.136,0,0,1-.161-.161v-.692a.2.2,0,0,1,0-.111.161.161,0,0,1,.124,0Z" transform="translate(14.171 5.17)" fill="#fff"/>
    <path id="Path_121" data-name="Path 121" d="M63.3,22.009a.21.21,0,0,1,.124,0,.2.2,0,0,1,0,.111v.692a.161.161,0,0,1,0,.124.21.21,0,0,1-.124,0H61.6a.136.136,0,0,1-.161-.161v-.692a.2.2,0,0,1,0-.111.161.161,0,0,1,.124,0Z" transform="translate(14.489 5.17)" fill="#fff"/>
    <path id="Path_122" data-name="Path 122" d="M62.83,22.349h.519a1.606,1.606,0,0,0,.383,0,.828.828,0,0,0,.235-.124.519.519,0,0,0,.111-.2,1.519,1.519,0,0,0,0-.247V20.545h1v1.162a.63.63,0,0,0,.161.47.729.729,0,0,0,.507.161h.148a.383.383,0,0,0,.173-.087.457.457,0,0,0,.136-.185.717.717,0,0,0,.062-.309V20.52h1v1.162a.618.618,0,0,0,.161.482.7.7,0,0,0,.556.185.507.507,0,0,0,.2,0,.358.358,0,0,0,.173-.1.692.692,0,0,0,.124-.185.8.8,0,0,0,0-.272h0V20.557h1v1.236a.581.581,0,0,0,.185.457.964.964,0,0,0,.556.136h.4v1h-.4A2.472,2.472,0,0,1,69.5,23.3a1.322,1.322,0,0,1-.531-.3,1.347,1.347,0,0,1-.482.284,1.5,1.5,0,0,1-.568.1,2.1,2.1,0,0,1-.655-.087,1.31,1.31,0,0,1-.507-.3,1.829,1.829,0,0,1-.47.284,1.619,1.619,0,0,1-.531.1,1.8,1.8,0,0,1-.667-.1,1.656,1.656,0,0,1-.507-.272,1.965,1.965,0,0,1-1.236.371H62.83Z" transform="translate(14.818 4.83)" fill="#fff"/>
    <path id="Path_123" data-name="Path 123" d="M71.311,20.45v.383a2.3,2.3,0,0,1,0,.334l.074.383v.68a1.854,1.854,0,0,1-.136.717,1.705,1.705,0,0,1-.358.507,1.569,1.569,0,0,1-.507.284,1.433,1.433,0,0,1-.556.1H69v-.914h1.236a.581.581,0,0,0,.185-.074.791.791,0,0,0,.161-.185.84.84,0,0,0,0-.334,1.5,1.5,0,0,0,0-.222v-.853a.356.356,0,0,0-.062-.247,1.312,1.312,0,0,0,0-.173Zm-1.718-1.631.729-.729.741.741-.741.729Z" transform="translate(16.273 4.257)" fill="#fff"/>
    <path id="Path_124" data-name="Path 124" d="M81.3,20.838v1.236a.73.73,0,0,0,0,.247.47.47,0,0,0,.111.161.309.309,0,0,0,.148.1.383.383,0,0,0,.148.062h.482v1h-.544l-.321-.062-.3-.111a.988.988,0,0,1-.26-.185,1.8,1.8,0,0,1-1.236.371H74.963a1.78,1.78,0,0,1-.568-.1,1.372,1.372,0,0,1-.63-.482,1.421,1.421,0,0,1-.272-.593,1.508,1.508,0,0,1,0-.42,1.965,1.965,0,0,1,0-.445.822.822,0,0,1,.087-.445c.086-.148,0-.26.1-.358s0-.173,0-.2l.482.161.482.148a.344.344,0,0,1-.086.26l-.074.309v.321a2.359,2.359,0,0,0,0,.247.778.778,0,0,0,0,.321.383.383,0,0,0,.136.173.3.3,0,0,0,.161.087h4.795a1.236,1.236,0,0,0,.383,0,.433.433,0,0,0,.235-.124.408.408,0,0,0,.087-.3V20.838ZM76.5,20.5l-.68-.68.667-.7.692.7Zm1.693,0-.68-.692.667-.692.7.692Z" transform="translate(17.329 4.5)" fill="#fff"/>
    <path id="Path_125" data-name="Path 125" d="M82.213,22.009a.161.161,0,0,1,.124,0,.148.148,0,0,1,0,.111v.692a.136.136,0,0,1,0,.124.161.161,0,0,1-.124,0H80.532a.136.136,0,0,1-.161-.161v-.692a.2.2,0,0,1,0-.111.161.161,0,0,1,.124,0Z" transform="translate(18.952 5.17)" fill="#fff"/>
    <path id="Path_126" data-name="Path 126" d="M83.575,22.009a.21.21,0,0,1,.124,0,.2.2,0,0,1,0,.111v.692a.161.161,0,0,1,0,.124.21.21,0,0,1-.124,0H81.882a.136.136,0,0,1-.161-.161v-.692a.2.2,0,0,1,0-.111.161.161,0,0,1,.124,0Z" transform="translate(19.27 5.17)" fill="#fff"/>
    <path id="Path_127" data-name="Path 127" d="M83.12,24.069v-.952h1.656a3.707,3.707,0,0,0,.568,0,1.977,1.977,0,0,0,.371-.1.766.766,0,0,0,.21-.136.581.581,0,0,0,.111-.148,4.226,4.226,0,0,1-.964,0,1.817,1.817,0,0,1-.729-.247,1.236,1.236,0,0,1-.457-.494,1.483,1.483,0,0,1-.161-.729,1.569,1.569,0,0,1,.124-.643,1.656,1.656,0,0,1,.358-.593,1.557,1.557,0,0,1,.531-.358,1.52,1.52,0,0,1,.667-.111,2.027,2.027,0,0,1,.581.111,1.705,1.705,0,0,1,.433.272,1.52,1.52,0,0,1,.3.383,2.224,2.224,0,0,1,.2.47,4.064,4.064,0,0,1,.111.531,4.2,4.2,0,0,1,0,.556v.309a2.472,2.472,0,0,1-.222.927,1.656,1.656,0,0,1-.507.581,2.237,2.237,0,0,1-.7.3,4.486,4.486,0,0,1-.828.074ZM84.541,18l.717-.741.754.754-.741.729Zm.9,2.558a1.063,1.063,0,0,0-.284,0,.581.581,0,0,0-.247.124.519.519,0,0,0-.161.2.494.494,0,0,0-.062.272.519.519,0,0,0,.371.507,1.928,1.928,0,0,0,1.063,0v-.371a1.816,1.816,0,0,0-.1-.371.741.741,0,0,0-.2-.284.729.729,0,0,0-.383-.074Z" transform="translate(19.602 4.061)" fill="#fff"/>
    <path id="Path_128" data-name="Path 128" d="M89.03,23.88a4.683,4.683,0,0,1-.766,0,1.928,1.928,0,0,1-.531-.161.964.964,0,0,1-.346-.272,1.347,1.347,0,0,1-.21-.4,2.732,2.732,0,0,1-.087-.494v-4.5H88.1v3.818a3,3,0,0,0,0,.519.544.544,0,0,0,.111.309.556.556,0,0,0,.284.136,3.04,3.04,0,0,0,.531,0Z" transform="translate(20.538 4.25)" fill="#fff"/>
    <path id="Path_129" data-name="Path 129" d="M91.585,20a.358.358,0,0,1,0,.124q0,.111,0,.26v1.4a1.853,1.853,0,0,1-.136.717A1.705,1.705,0,0,1,91.09,23a1.57,1.57,0,0,1-.507.284,1.471,1.471,0,0,1-.556.1H88.52v-.914h1.915a.581.581,0,0,0,.185-.074,1.235,1.235,0,0,0,.161-.185.841.841,0,0,0,.062-.334,1.5,1.5,0,0,0,0-.222v-.272a2.475,2.475,0,0,0,0-.3v-.7ZM89.41,25.586l-.741-.643.667-.692.692.692Zm1.693,0-.754-.643.667-.692.692.692Z" transform="translate(20.875 4.707)" fill="#fff"/>
    <path id="Path_130" data-name="Path 130" d="M94.423,23.058a3.287,3.287,0,0,1-.21,1.013,2.286,2.286,0,0,1-.494.754,2.175,2.175,0,0,1-.779.482,2.929,2.929,0,0,1-1.026.173H91.42V24.467h.494a2.793,2.793,0,0,0,.68-.074.927.927,0,0,0,.457-.26,1.125,1.125,0,0,0,.272-.457,2.385,2.385,0,0,0,.049-.7V20.5h1.013Z" transform="translate(21.558 4.825)" fill="#fff"/>
    <path id="Path_131" data-name="Path 131" d="M96,23.591H95.4l-.321-.074-.334-.1-.482-.148.284-.964a7.068,7.068,0,0,0,.729.21,4.152,4.152,0,0,0,.717.124,1.767,1.767,0,0,0,.581,0,.408.408,0,0,0,.321-.235.173.173,0,0,0,0-.136.63.63,0,0,0-.087-.185L95.3,19.9l.84-.556.284.42h0v.087l.124.185.21.309.321.482.568.568a1.681,1.681,0,0,1,.259.643,1.236,1.236,0,0,1-.272.927,1.05,1.05,0,0,1-.272.247,1.842,1.842,0,0,1-.692.272A3.868,3.868,0,0,1,96,23.591Z" transform="translate(22.228 4.552)" fill="#fff"/>
    <path id="Path_132" data-name="Path 132" d="M52.737,39.316l-1.631-3.262a1.742,1.742,0,0,0-1.557-.964H32.434A.7.7,0,0,0,31.8,36.1l1.1,2.138a3.435,3.435,0,0,0,3.065,1.854H52.243a.544.544,0,0,0,.494-.779Z" transform="translate(7.487 8.265)" fill="#fff"/>
    <path id="Path_133" data-name="Path 133" d="M42,40.52H39.437a.457.457,0,0,0-.457.445v2.472a.457.457,0,0,0,.457.445H42a.457.457,0,0,0,.457-.445V40.965A.457.457,0,0,0,42,40.52Z" transform="translate(9.196 9.545)" fill="#fff"/>
    <path id="Path_134" data-name="Path 134" d="M106.25,36.257H87.615a.309.309,0,0,1-.3-.42,7.613,7.613,0,0,0,.433-2.558V30.721a.581.581,0,0,0-.581-.581H83.215a.581.581,0,0,0-.581.581v2.6a2.966,2.966,0,0,1-2.966,2.941H77.951a.309.309,0,0,1-.3-.408,7.612,7.612,0,0,0,.42-2.472v-2.6a.581.581,0,0,0-.593-.581H73.49a.593.593,0,0,0-.593.581v2.558a2.953,2.953,0,0,1-2.991,2.941H58.438a1.742,1.742,0,0,0-1.557.964L55.25,40.508a.544.544,0,0,0,.494.779H69.931a8.205,8.205,0,0,0,6.3-2.916l1.137,2.274a1.1,1.1,0,0,0,.989.606h1.236a8.168,8.168,0,0,0,6.55-3.238l1.162,2.62a1.1,1.1,0,0,0,1,.655h14.409a3.472,3.472,0,0,0,3.077-1.866l1.063-2.15a.692.692,0,0,0-.606-1.013Z" transform="translate(13.019 7.098)" fill="#fff"/>
    <path id="Path_135" data-name="Path 135" d="M80.783,40.52h-6.9a.457.457,0,0,0-.457.445v2.472a.457.457,0,0,0,.457.445h6.9a.457.457,0,0,0,.457-.445V40.965A.457.457,0,0,0,80.783,40.52Z" transform="translate(17.317 9.545)" fill="#fff"/>
    <path id="Path_136" data-name="Path 136" d="M50.073,40.52h-6.9a.457.457,0,0,0-.457.445v2.472a.457.457,0,0,0,.457.445h6.9a.457.457,0,0,0,.457-.445V40.965A.457.457,0,0,0,50.073,40.52Z" transform="translate(10.077 9.545)" fill="#fff"/>
    <path id="Path_137" data-name="Path 137" d="M66.143,40.52H63.6a.445.445,0,0,0-.457.445v2.472a.445.445,0,0,0,.457.445h2.546a.445.445,0,0,0,.457-.445V40.965a.445.445,0,0,0-.457-.445Z" transform="translate(14.891 9.545)" fill="#fff"/>
    <path id="Path_138" data-name="Path 138" d="M54.6,26.25H50.365a.445.445,0,0,0-.445.433V41.7a.494.494,0,0,0,.494.482h4.14a.482.482,0,0,0,.482-.482V26.683A.433.433,0,0,0,54.6,26.25Z" transform="translate(11.775 6.181)" fill="#fff"/>
    <path id="Path_139" data-name="Path 139" d="M119.07,28.941a8.65,8.65,0,0,1,1.915,10.368c4.609-7.7,2.867-13.754,2.867-13.754-10.01-5.017-15.632-.741-15.632-.741a16.188,16.188,0,0,1,10.85,4.127Z" transform="translate(25.519 5.442)" fill="#fff"/>
    <path id="Path_140" data-name="Path 140" d="M108.93,30.151a8.527,8.527,0,0,1,10.319-1.928c-7.662-4.634-13.68-2.892-13.68-2.892-4.943,10.071-.741,15.719-.741,15.719a16.349,16.349,0,0,1,4.1-10.9Z" transform="translate(24.327 5.889)" fill="#fff"/>
    <path id="Path_141" data-name="Path 141" d="M110.243,40.226a8.65,8.65,0,0,1-1.928-10.356c-4.585,7.686-2.855,13.754-2.855,13.754,10.01,5.017,15.62.741,15.62.741a16.164,16.164,0,0,1-10.838-4.14Z" transform="translate(24.793 7.034)" fill="#fff"/>
    <path id="Path_142" data-name="Path 142" d="M124.551,28.07a16.325,16.325,0,0,1-4.115,10.9A8.514,8.514,0,0,1,110.13,40.9c7.649,4.634,13.68,2.879,13.68,2.879C128.8,33.717,124.551,28.07,124.551,28.07Z" transform="translate(25.969 6.61)" fill="#fff"/>
    <path id="Path_143" data-name="Path 143" d="M120.375,16.19c-7.155.136-7.625,6.389-7.625,6.389C119.942,23.184,120.375,16.19,120.375,16.19Z" transform="translate(26.587 3.809)" fill="#fff"/>
  </g>
</svg>
