<svg xmlns="http://www.w3.org/2000/svg" width="30.006" height="22.926" viewBox="0 0 30.006 22.926">
  <path id="telegram" d="M29.757.9A1.087,1.087,0,0,0,28.543.567L1.018,10.514a1.543,1.543,0,0,0-.346,2.725l3.934,2.686A1.238,1.238,0,0,0,5.885,16l8.535-4.5L7.768,16.464a1.248,1.248,0,0,0-.5.995v4.6a1.292,1.292,0,0,0,2,1.076l2.989-1.983,2.939,2a1.549,1.549,0,0,0,2.189-.462L29.845,2.159A1.09,1.09,0,0,0,29.757.9ZM16.011,21.578,12.966,19.5a1.236,1.236,0,0,0-1.386-.009L9.029,21.186V17.718l11.745-8.77a1.242,1.242,0,0,0-1.322-2.093L5.341,14.3,2.013,12.025l25.346-9.16Zm0,0" transform="translate(0.001 -0.5)" fill="#3b903f"/>
</svg>
