<svg xmlns="http://www.w3.org/2000/svg" width="58.46" height="58.461" viewBox="0 0 58.46 58.461">
  <g id="edit" transform="translate(0)">
    <path id="Path_4042" data-name="Path 4042" d="M24.1,4.872H21.417a6.712,6.712,0,0,0-12.91,0H5.827A1.84,1.84,0,0,0,4,6.7v3.654a4.283,4.283,0,0,0,4.263,4.263h13.4a4.283,4.283,0,0,0,4.263-4.263V6.7A1.84,1.84,0,0,0,24.1,4.872Z" transform="translate(5.744)" fill="#1a8496"/>
    <path id="Path_4043" data-name="Path 4043" d="M34.712,3H34.1V6.045a6.7,6.7,0,0,1-6.7,6.7h-13.4a6.7,6.7,0,0,1-6.7-6.7V3H6.7A6.7,6.7,0,0,0,0,9.7V40.147a6.7,6.7,0,0,0,6.7,6.7H24.676l.536-3a6.783,6.783,0,0,1,1.851-3.581l1.949-1.949H9.135a1.827,1.827,0,1,1,0-3.654H32.276a.829.829,0,0,1,.341.049h.024l8.769-8.769V9.7a6.7,6.7,0,0,0-6.7-6.7ZM32.276,30.4H9.135a1.827,1.827,0,1,1,0-3.654H32.276a1.827,1.827,0,0,1,0,3.654Zm0-7.917H9.135a1.827,1.827,0,1,1,0-3.654H32.276a1.827,1.827,0,0,1,0,3.654Z" transform="translate(0 4.308)" fill="#1a8496"/>
    <path id="Path_4044" data-name="Path 4044" d="M13.6,41.7a1.828,1.828,0,0,1-1.8-2.146l1.291-7.32a1.834,1.834,0,0,1,.507-.974L31.69,13.174c2.222-2.226,4.4-1.625,5.6-.431L40.3,15.756a4.265,4.265,0,0,1,0,6.029L22.214,39.871a1.8,1.8,0,0,1-.974.507l-7.32,1.291a1.741,1.741,0,0,1-.317.029Zm7.32-3.118h.024Z" transform="translate(16.911 16.764)" fill="#1a8496"/>
  </g>
</svg>
