<svg xmlns="http://www.w3.org/2000/svg" width="59.719" height="57.064" viewBox="0 0 59.719 57.064">
  <g id="shipping_1_" data-name="shipping (1)" transform="translate(-0.001 -11.378)">
    <path id="Path_4047" data-name="Path 4047" d="M217.941,11.378h8.572V21.712h-8.572Z" transform="translate(-192.517)" fill="#d58c3b"/>
    <path id="Path_4048" data-name="Path 4048" d="M217.941,134.067h8.572v5.3h-8.572Z" transform="translate(-192.517 -108.377)" fill="#d58c3b"/>
    <path id="Path_4049" data-name="Path 4049" d="M27.275,134.067v18.971a6.013,6.013,0,0,1,3.312,1.842l6.566,7.127c.017.018.035.035.052.053v-1.45a5.538,5.538,0,0,1,5.531-5.531h9.2c1.142.129,4.165-1.6,5.207-2.015a15.756,15.756,0,0,1,13.82.223l2.65,1.346a5.707,5.707,0,0,1,5.379-4.109h1.571V134.067H62.066v7.29a1.989,1.989,0,0,1-1.989,1.989H47.528a1.989,1.989,0,0,1-1.989-1.989v-7.29Z" transform="translate(-24.093 -108.377)" fill="#d58c3b"/>
    <path id="Path_4050" data-name="Path 4050" d="M325.521,21.712h18.493V14.137a2.558,2.558,0,0,0-2.292-2.759h-16.2Z" transform="translate(-287.548)" fill="#d58c3b"/>
    <path id="Path_4051" data-name="Path 4051" d="M457.833,309.24a1.855,1.855,0,0,0-1.683,1.986V329a1.856,1.856,0,0,0,1.683,1.986h3.142A1.856,1.856,0,0,0,462.658,329V311.226a1.856,1.856,0,0,0-1.683-1.986Z" transform="translate(-402.939 -263.116)" fill="#d58c3b"/>
    <path id="Path_4052" data-name="Path 4052" d="M45.539,11.378H29.18a2.126,2.126,0,0,0-1.905,2.293v8.042H45.539Z" transform="translate(-24.093)" fill="#d58c3b"/>
    <path id="Path_4053" data-name="Path 4053" d="M3.569,320.306c-1.757-1.757-4.749.54-3.077,2.583l8.958,10.86a15.9,15.9,0,0,0,12.305,5.8H31.887a48.353,48.353,0,0,0,11.186-1.313l6.161-1.473V321.682l-4.165-2.116a11.8,11.8,0,0,0-10.346-.165l-3.542,1.647a7.98,7.98,0,0,1-3.342.739h-9.2a1.556,1.556,0,0,0-1.554,1.554v3.013H34.951a1.989,1.989,0,0,1,0,3.978h-18.2a9.148,9.148,0,0,1-6.611-2.9Z" transform="translate(0 -271.108)" fill="#d58c3b"/>
  </g>
</svg>
