<svg xmlns="http://www.w3.org/2000/svg" width="55.652" height="55.652" viewBox="0 0 55.652 55.652">
  <g id="money-bag_2_" data-name="money-bag (2)" transform="translate(0)">
    <path id="Path_4054" data-name="Path 4054" d="M21.3,191.13a38.645,38.645,0,0,0,11.519-1.4,5.588,5.588,0,0,1,1.62-5.121,5.677,5.677,0,0,1,0-8.152,5.677,5.677,0,0,1,0-8.152,5.668,5.668,0,0,1,.622-8.665,23.123,23.123,0,0,0-3.093-2.384,3.2,3.2,0,0,0,.745-1.994A3.261,3.261,0,0,0,29.457,152h-16.3a3.261,3.261,0,0,0-3.261,3.261,3.2,3.2,0,0,0,.742,1.99A23.336,23.336,0,0,0,0,176.456c0,13.153,12.2,14.674,21.3,14.674ZM21.287,175.3a4.879,4.879,0,0,1-1.613-9.488v-2.4a1.63,1.63,0,0,1,3.261,0v2.414a4.883,4.883,0,0,1,3.243,4.585,1.63,1.63,0,1,1-3.261,0,1.63,1.63,0,1,0-1.63,1.63,4.88,4.88,0,0,1,1.648,9.477v1.458a1.63,1.63,0,0,1-3.261,0V181.53a4.882,4.882,0,0,1-3.278-4.6,1.63,1.63,0,1,1,3.261,0,1.63,1.63,0,1,0,1.63-1.63Zm0,0" transform="translate(0 -135.478)" fill="#cc4e3d"/>
    <path id="Path_4055" data-name="Path 4055" d="M348.228,467H333.446a2.446,2.446,0,1,0,0,4.891h14.783a2.446,2.446,0,1,0,0-4.891Zm0,0" transform="translate(-295.022 -416.239)" fill="#cc4e3d"/>
    <path id="Path_4056" data-name="Path 4056" d="M348.228,392H333.446a2.446,2.446,0,1,0,0,4.891h14.783a2.446,2.446,0,1,0,0-4.891Zm0,0" transform="translate(-295.022 -349.391)" fill="#cc4e3d"/>
    <path id="Path_4057" data-name="Path 4057" d="M348.228,317H333.446a2.446,2.446,0,1,0,0,4.891h14.783a2.446,2.446,0,1,0,0-4.891Zm0,0" transform="translate(-295.022 -282.544)" fill="#cc4e3d"/>
    <path id="Path_4058" data-name="Path 4058" d="M348.228,242H333.446a2.446,2.446,0,1,0,0,4.891h14.783a2.446,2.446,0,1,0,0-4.891Zm0,0" transform="translate(-295.022 -215.696)" fill="#cc4e3d"/>
    <path id="Path_4059" data-name="Path 4059" d="M107,3.261a4.878,4.878,0,0,0-9.2,0H92.63a1.629,1.629,0,0,0-1.546,2.146l2.545,7.854H111.2l2.545-7.854A1.629,1.629,0,0,0,112.2,3.261Zm0,0" transform="translate(-81.108)" fill="#cc4e3d"/>
  </g>
</svg>
