<svg xmlns="http://www.w3.org/2000/svg" width="55.652" height="44.76" viewBox="0 0 55.652 44.76">
  <g id="accept" transform="translate(0 -50.105)">
    <path id="Path_4060" data-name="Path 4060" d="M30.652,71.4A14.135,14.135,0,0,1,44.782,57.292h.055V51.735a1.63,1.63,0,0,0-1.63-1.63H28.568V63.453a1.63,1.63,0,0,1-1.63,1.63H17.9a1.63,1.63,0,0,1-1.63-1.63V50.1H1.63A1.63,1.63,0,0,0,0,51.735v41.5a1.63,1.63,0,0,0,1.63,1.63H43.207a1.63,1.63,0,0,0,1.63-1.63V85.507h-.055A14.135,14.135,0,0,1,30.652,71.4Z" transform="translate(0 0)" fill="#4294d4"/>
    <path id="Path_4061" data-name="Path 4061" d="M179.674,50.105h5.778V61.823h-5.778Z" transform="translate(-160.144 0)" fill="#4294d4"/>
    <path id="Path_4062" data-name="Path 4062" d="M322.864,146.229a10.847,10.847,0,1,0,10.87,10.847A10.871,10.871,0,0,0,322.864,146.229Zm5.6,9.594-5.566,5.556a1.63,1.63,0,0,1-2.3,0l-3.333-3.327a1.63,1.63,0,0,1,2.3-2.308l2.182,2.177,4.415-4.406a1.63,1.63,0,0,1,2.3,2.308Z" transform="translate(-278.081 -85.676)" fill="#4294d4"/>
  </g>
</svg>
