<svg xmlns="http://www.w3.org/2000/svg" width="69.651" height="41.219" viewBox="0 0 69.651 41.219">
  <path id="fast-delivery" d="M49.653.41C55.692,1.812,58,5.343,60.9,10.2H49.653Zm-35.291,10.2a1.791,1.791,0,0,1,2.041,1.9,2.041,2.041,0,0,1-2.035,2.041H2.04a2.041,2.041,0,1,0,0,4.081H20.405a2.041,2.041,0,1,1,.008,4.081H2.04a2.041,2.041,0,1,0,0,4.081H6.529v6.122A2.04,2.04,0,0,0,8.57,34.962h4.1a7.824,7.824,0,0,0,15.331,0H48.722a7.824,7.824,0,0,0,15.331,0H67.61a2.04,2.04,0,0,0,2.041-2.041V20.678c0-5.987-6.315-6.385-6.321-6.394H47.613a2.04,2.04,0,0,1-2.041-2.041V0h-37A2.04,2.04,0,0,0,6.529,2.041V6.53H4.081a2.041,2.041,0,1,0,0,4.081Zm44.67,20.141A3.741,3.741,0,1,1,52.646,33.4,3.742,3.742,0,0,1,59.032,30.752Zm-36.05,0A3.741,3.741,0,1,1,16.6,33.4,3.742,3.742,0,0,1,22.982,30.752Zm0,0" transform="translate(0)" fill="#79829d" fill-rule="evenodd"/>
</svg>
