<svg xmlns="http://www.w3.org/2000/svg" width="144.08" height="178.361" viewBox="0 0 144.08 178.361">
  <g id="Group_696" data-name="Group 696" transform="translate(0)">
    <path id="Path_4026" data-name="Path 4026" d="M209.437,203.426a72.04,72.04,0,0,1,74.855-71.985c37.72,1.435,68.287,32.458,69.2,70.195a71.985,71.985,0,0,1-35.762,64.041,38.785,38.785,0,0,0-18.9,33.6v10.475H264.123V299.02a39.384,39.384,0,0,0-19.531-33.712A71.982,71.982,0,0,1,209.437,203.426Z" transform="translate(-209.437 -131.388)" fill="#1aad96"/>
    <path id="Path_4027" data-name="Path 4027" d="M240.15,224.975a79.353,79.353,0,0,1,34.968,0c-.083,1.057-.14,2.115-.14,3.183v10.475H240.271V227.907C240.271,226.922,240.225,225.945,240.15,224.975Z" transform="translate(-185.584 -60.276)" fill="#1a8496"/>
    <circle id="Ellipse_147" data-name="Ellipse 147" cx="62.707" cy="62.707" r="62.707" transform="translate(9.333 9.332)" fill="#1a8496"/>
    <circle id="Ellipse_148" data-name="Ellipse 148" cx="55.742" cy="55.742" r="55.742" transform="translate(16.298 16.297)" fill="#fff"/>
  </g>
</svg>
