<svg xmlns="http://www.w3.org/2000/svg" width="144.08" height="178.362" viewBox="0 0 144.08 178.362">
  <g id="Group_699" data-name="Group 699" transform="translate(0)">
    <path id="Path_4032" data-name="Path 4032" d="M209.437,495.718a72.043,72.043,0,0,1,74.855-71.987c37.72,1.437,68.287,32.46,69.2,70.2a71.985,71.985,0,0,1-35.762,64.041,38.785,38.785,0,0,0-18.9,33.6V602.04H264.123V591.311A39.384,39.384,0,0,0,244.593,557.6,71.984,71.984,0,0,1,209.437,495.718Z" transform="translate(-209.437 -423.678)" fill="#cc4e3d"/>
    <path id="Path_4033" data-name="Path 4033" d="M240.15,517.266a79.355,79.355,0,0,1,34.968,0c-.083,1.055-.14,2.115-.14,3.183v10.475H240.271V520.2C240.271,519.213,240.225,518.236,240.15,517.266Z" transform="translate(-185.584 -352.565)" fill="#9c4e3d"/>
    <circle id="Ellipse_153" data-name="Ellipse 153" cx="62.707" cy="62.707" r="62.707" transform="translate(9.333 9.334)" fill="#9c4e3d"/>
    <circle id="Ellipse_154" data-name="Ellipse 154" cx="55.742" cy="55.742" r="55.742" transform="translate(16.298 16.299)" fill="#fff"/>
  </g>
</svg>
