<svg xmlns="http://www.w3.org/2000/svg" width="144.08" height="178.361" viewBox="0 0 144.08 178.361">
  <g id="Group_700" data-name="Group 700" transform="translate(0)">
    <path id="Path_4034" data-name="Path 4034" d="M209.437,593.149a72.042,72.042,0,0,1,74.855-71.987c37.72,1.437,68.289,32.46,69.2,70.2A71.989,71.989,0,0,1,317.734,655.4a38.78,38.78,0,0,0-18.9,33.6V699.47H264.123V688.741a39.384,39.384,0,0,0-19.531-33.712A71.979,71.979,0,0,1,209.437,593.149Z" transform="translate(-209.437 -521.109)" fill="#42bbff"/>
    <path id="Path_4035" data-name="Path 4035" d="M240.15,614.7a79.428,79.428,0,0,1,34.968,0c-.083,1.057-.14,2.117-.14,3.184v10.473H240.271V617.628C240.271,616.642,240.225,615.667,240.15,614.7Z" transform="translate(-185.584 -449.996)" fill="#4294d4"/>
    <circle id="Ellipse_155" data-name="Ellipse 155" cx="62.707" cy="62.707" r="62.707" transform="translate(9.333 9.332)" fill="#4294d4"/>
    <circle id="Ellipse_156" data-name="Ellipse 156" cx="55.742" cy="55.742" r="55.742" transform="translate(16.298 16.298)" fill="#fff"/>
  </g>
</svg>

