<svg id="dashboard-reference" xmlns="http://www.w3.org/2000/svg" width="24.604" height="24.604" viewBox="0 0 24.604 24.604">
  <path id="Path_159" data-name="Path 159" d="M4.007,22.5v1.757h4.03L2.25,30.045l1.243,1.243L9.28,25.5v4.03h1.757V22.5Z" transform="translate(-2.25 -6.683)" fill="#c9c9c9"/>
  <path id="Path_160" data-name="Path 160" d="M27,23.625h1.757v4.394H27Z" transform="translate(-7.668 -6.929)" fill="#c9c9c9"/>
  <path id="Path_161" data-name="Path 161" d="M22.5,18h1.757v8.787H22.5Z" transform="translate(-6.683 -5.698)" fill="#c9c9c9"/>
  <path id="Path_162" data-name="Path 162" d="M18,20.25h1.757v7.03H18Z" transform="translate(-5.698 -6.19)" fill="#c9c9c9"/>
  <path id="Path_163" data-name="Path 163" d="M25.1,2.25H4.007A1.759,1.759,0,0,0,2.25,4.007V14.552H4.007V11.916H25.1V25.1H14.552v1.757H25.1A1.76,1.76,0,0,0,26.854,25.1V4.007A1.759,1.759,0,0,0,25.1,2.25Zm-14.06,7.909H4.007V4.007h7.03Zm1.757,0V4.007H25.1v6.151Z" transform="translate(-2.25 -2.25)" fill="#c9c9c9"/>
</svg>
