<svg xmlns="http://www.w3.org/2000/svg" width="18.544" height="18.546" viewBox="0 0 18.544 18.546">
  <g id="shopping-basket" transform="translate(-10.063 -10.037)">
    <g id="Group_6" data-name="Group 6" transform="translate(10.063 10.037)">
      <path id="Path_7" data-name="Path 7" d="M28.991,18.1a1.978,1.978,0,0,0-1.556-.787H26.069C25.941,13.8,23.4,11,20.3,11s-5.643,2.8-5.772,6.309H13.159A1.978,1.978,0,0,0,11.6,18.1a2.811,2.811,0,0,0-.5,2.373l1.639,7.221A2.22,2.22,0,0,0,14.8,29.546H25.793a2.216,2.216,0,0,0,2.059-1.855l1.643-7.221A2.811,2.811,0,0,0,28.991,18.1ZM20.3,12.544c2.256,0,4.1,2.112,4.224,4.765H16.073C16.195,14.66,18.042,12.544,20.3,12.544Zm7.691,7.581-1.639,7.225c-.083.371-.322.651-.553.651h-11c-.231,0-.469-.28-.553-.651l-1.639-7.225c-.087-.382-.14-1.272.553-1.272H27.436C28.181,18.854,28.075,19.743,27.988,20.125Z" transform="translate(-11.025 -11)" fill="#585858"/>
      <path id="Path_8" data-name="Path 8" d="M135.072,259.1a.771.771,0,0,0-.772.772V264.7a.772.772,0,0,0,1.544,0v-4.826A.771.771,0,0,0,135.072,259.1Z" transform="translate(-129.634 -249.71)" fill="#585858"/>
      <path id="Path_9" data-name="Path 9" d="M233.972,259.1a.771.771,0,0,0-.772.772V264.7a.772.772,0,0,0,1.544,0v-4.826A.775.775,0,0,0,233.972,259.1Z" transform="translate(-224.791 -249.71)" fill="#585858"/>
      <path id="Path_10" data-name="Path 10" d="M332.772,259.1a.771.771,0,0,0-.772.772V264.7a.772.772,0,1,0,1.544,0v-4.826A.773.773,0,0,0,332.772,259.1Z" transform="translate(-319.852 -249.71)" fill="#585858"/>
    </g>
  </g>
</svg>
