<svg xmlns="http://www.w3.org/2000/svg" width="24.658" height="22.029" viewBox="0 0 24.658 22.029">
  <g id="wallet-outline" transform="translate(-2.475 -3.592)">
    <path id="Path_4013" data-name="Path 4013" d="M6.013,10.125H23.6a2.638,2.638,0,0,1,2.638,2.638v10.55A2.638,2.638,0,0,1,23.6,25.95H6.013a2.638,2.638,0,0,1-2.638-2.638V12.763A2.638,2.638,0,0,1,6.013,10.125Z" transform="translate(0 -1.229)" fill="none" stroke="#c9c9c9" stroke-linejoin="round" stroke-width="1.8"/>
    <path id="Path_4014" data-name="Path 4014" d="M23.341,8.9V7.248a2.748,2.748,0,0,0-3.262-2.7L5.608,7.02a2.748,2.748,0,0,0-2.233,2.7v2.692" transform="translate(0)" fill="none" stroke="#c9c9c9" stroke-linejoin="round" stroke-width="1.8"/>
    <path id="Path_4015" data-name="Path 4015" d="M25.383,21.517a1.758,1.758,0,1,1,1.758-1.758A1.758,1.758,0,0,1,25.383,21.517Z" transform="translate(-4.425 -2.95)" fill="#c9c9c9"/>
  </g>
</svg>
