<svg xmlns="http://www.w3.org/2000/svg" width="23.607" height="25.408" viewBox="0 0 23.607 25.408">
  <g id="gift-outline" transform="translate(-3.5 -2.375)">
    <path id="Path_4008" data-name="Path 4008" d="M18,6.526V9.678h3.151A3.151,3.151,0,1,0,18,6.526Z" transform="translate(-2.696 0)" fill="none" stroke="#c9c9c9" stroke-linecap="round" stroke-miterlimit="10" stroke-width="2"/>
    <path id="Path_4009" data-name="Path 4009" d="M16.427,6.526V9.678H13.275a3.151,3.151,0,1,1,3.151-3.151Z" transform="translate(-1.123 0)" fill="none" stroke="#c9c9c9" stroke-linecap="round" stroke-miterlimit="10" stroke-width="2"/>
    <path id="Path_4010" data-name="Path 4010" d="M6.3,11.25H24.307a1.8,1.8,0,0,1,1.8,1.8v2.7a1.8,1.8,0,0,1-1.8,1.8H6.3a1.8,1.8,0,0,1-1.8-1.8v-2.7a1.8,1.8,0,0,1,1.8-1.8Z" transform="translate(0 -1.573)" fill="none" stroke="#c9c9c9" stroke-linecap="round" stroke-linejoin="round" stroke-width="2"/>
    <path id="Path_4011" data-name="Path 4011" d="M24.756,19.125v8.1a2.7,2.7,0,0,1-2.7,2.7H9.451a2.7,2.7,0,0,1-2.7-2.7v-8.1" transform="translate(-0.449 -3.146)" fill="none" stroke="#c9c9c9" stroke-linecap="round" stroke-linejoin="round" stroke-width="2"/>
    <path id="Path_4012" data-name="Path 4012" d="M18,11.25V28.356" transform="translate(-2.696 -1.573)" fill="none" stroke="#c9c9c9" stroke-linecap="round" stroke-linejoin="round" stroke-width="2"/>
  </g>
</svg>
