<svg xmlns="http://www.w3.org/2000/svg" width="19.133" height="19.016" viewBox="0 0 19.133 19.016">
  <g id="invoice" transform="translate(0 -1.567)">
    <g id="Group_630" data-name="Group 630" transform="translate(3.236 19.176)">
      <g id="Group_629" data-name="Group 629">
        <rect id="Rectangle_262" data-name="Rectangle 262" width="12.38" height="1.407" fill="#585858"/>
      </g>
    </g>
    <g id="Group_632" data-name="Group 632" transform="translate(6.612 7.851)">
      <g id="Group_631" data-name="Group 631">
        <path id="Path_853" data-name="Path 853" d="M181.982,169.726h-4.338a.7.7,0,1,0,0,1.407h4.338a.7.7,0,1,0,0-1.407Z" transform="translate(-176.941 -169.726)" fill="#585858"/>
      </g>
    </g>
    <g id="Group_634" data-name="Group 634" transform="translate(6.612 11.134)">
      <g id="Group_633" data-name="Group 633">
        <path id="Path_854" data-name="Path 854" d="M185.265,257.569h-7.62a.7.7,0,1,0,0,1.407h7.62a.7.7,0,0,0,0-1.407Z" transform="translate(-176.941 -257.569)" fill="#585858"/>
      </g>
    </g>
    <g id="Group_636" data-name="Group 636" transform="translate(0 1.568)">
      <g id="Group_635" data-name="Group 635" transform="translate(0 0)">
        <path id="Path_855" data-name="Path 855" d="M18.718,1.653a.7.7,0,0,0-.755.114L15.994,3.51,14.021,1.747a.7.7,0,0,0-.938,0l-1.97,1.761L9.144,1.747a.7.7,0,0,0-.938,0L6.234,3.51,4.265,1.768a.7.7,0,0,0-1.17.527V14.815H.7a.7.7,0,0,0-.7.7V17.23a3.357,3.357,0,0,0,3.353,3.353V19.176A1.948,1.948,0,0,1,1.407,17.23V16.222h11.02V17.23a3.353,3.353,0,1,0,6.706,0V2.294A.7.7,0,0,0,18.718,1.653ZM17.726,17.23a1.946,1.946,0,0,1-3.892,0V15.519a.7.7,0,0,0-.7-.7H4.5V3.856L5.771,4.979a.7.7,0,0,0,.935,0l1.97-1.761,1.97,1.761a.7.7,0,0,0,.938,0l1.97-1.761,1.97,1.761a.7.7,0,0,0,.935,0l1.269-1.123Z" transform="translate(0 -1.568)" fill="#585858"/>
      </g>
    </g>
  </g>
</svg>
