<svg xmlns="http://www.w3.org/2000/svg" width="22.207" height="27.022" viewBox="0 0 22.207 27.022">
  <g id="invoice_2_" data-name="invoice (2)" transform="translate(0)">
    <g id="Group_98" data-name="Group 98">
      <g id="Group_97" data-name="Group 97" transform="translate(0 0)">
        <path id="Path_172" data-name="Path 172" d="M122.345,155.911h4a.625.625,0,0,0,0-1.251h-4a.625.625,0,1,0,0,1.251Z" transform="translate(-116.84 -145.402)" fill="#b7b7b7"/>
        <path id="Path_173" data-name="Path 173" d="M130.1,222.579h-7.756a.626.626,0,0,0,0,1.251H130.1a.626.626,0,0,0,0-1.251Z" transform="translate(-116.84 -209.255)" fill="#b7b7b7"/>
        <path id="Path_174" data-name="Path 174" d="M130.1,290.5h-7.756a.625.625,0,1,0,0,1.251H130.1a.625.625,0,0,0,0-1.251Z" transform="translate(-116.84 -273.107)" fill="#b7b7b7"/>
        <path id="Path_175" data-name="Path 175" d="M62.423,22.081V2.378A2.283,2.283,0,0,0,60.237,0q-.08,0-.159,0H46.629a2.545,2.545,0,0,0-2.658,2.377V3.441H42.876a2.721,2.721,0,0,0-2.658,2.6V25.771a1.1,1.1,0,0,0,.626.876.969.969,0,0,0,1.063-.188l1.908-1.72L46.1,26.772a.938.938,0,0,0,.625.25,1,1,0,0,0,.625-.25L49.6,24.739l2.252,2.033a.938.938,0,0,0,1.251,0l2.283-2.033,1.876,1.72a.751.751,0,0,0,.938.188.938.938,0,0,0,.469-.876V21.33l.375-.281,1.908,1.72a.907.907,0,0,0,.657.25.562.562,0,0,0,.313-.063A.907.907,0,0,0,62.423,22.081Zm-5,3-1.47-1.439a.876.876,0,0,0-1.22-.031l-2.283,2.033-2.221-2.033a1,1,0,0,0-1.251,0l-2.252,2.033L44.44,23.613a1.032,1.032,0,0,0-1.345.031l-1.626,1.439V6.037a1.47,1.47,0,0,1,1.407-1.345H56.324a1.216,1.216,0,0,1,1.095,1.345V25.083ZM61.172,2.378V21.393l-1.564-1.439c-.25-.25-.313-.313-.938-.219V6.037a2.463,2.463,0,0,0-2.346-2.6h-11.1V2.378a1.3,1.3,0,0,1,1.407-1.126H60.077a1.032,1.032,0,0,1,1.095,1.126Z" transform="translate(-40.218 0)" fill="#b7b7b7"/>
      </g>
    </g>
  </g>
</svg>
