<svg xmlns="http://www.w3.org/2000/svg" width="27.936" height="30.502" viewBox="0 0 27.936 30.502">
  <g id="support_1_" data-name="support (1)" transform="translate(0)">
    <g id="Group_424" data-name="Group 424">
      <path id="Path_3961" data-name="Path 3961" d="M42.748,12.609h-.076v-1.85a10.759,10.759,0,1,0-21.518,0v1.85H20.7a3.074,3.074,0,0,0-2.944,3.171V20.5a2.982,2.982,0,0,0,2.906,3.057H23.5a.717.717,0,0,0,.683-.75q0-.021,0-.043V13.514c0-.453-.264-.906-.679-.906h-.831v-1.85a9.249,9.249,0,1,1,18.5,0v1.85h-.831c-.415,0-.679.453-.679.906v9.249a.717.717,0,0,0,.637.789l.043,0H41.2l-.076.113a5.964,5.964,0,0,1-4.794,2.378,3.737,3.737,0,0,0-7.4.717A3.775,3.775,0,0,0,32.706,30.5a3.888,3.888,0,0,0,2.718-1.17,3.322,3.322,0,0,0,.906-1.812,7.474,7.474,0,0,0,6-2.982l.717-1.057a2.57,2.57,0,0,0,2.642-2.6V16.157C45.692,14.534,44.484,12.609,42.748,12.609ZM22.665,22.046H20.7a1.472,1.472,0,0,1-1.436-1.508c0-.013,0-.027,0-.04V15.779A1.565,1.565,0,0,1,20.7,14.118h1.963ZM34.33,28.275a2.227,2.227,0,0,1-1.623.717,2.3,2.3,0,0,1-2.265-2.227,2.227,2.227,0,1,1,4.455,0v0A2,2,0,0,1,34.33,28.275Zm9.853-7.4c0,1.019-.982,1.17-1.434,1.17H41.162V14.119h1.586c.831,0,1.434,1.17,1.434,2.038Z" transform="translate(-17.756)" fill="#b7b7b7"/>
    </g>
  </g>
</svg>
