<svg id="edit_1_" data-name="edit (1)" xmlns="http://www.w3.org/2000/svg" width="23.571" height="23.452" viewBox="0 0 23.571 23.452">
  <path id="Path_4006" data-name="Path 4006" d="M21.755,51.606a.587.587,0,0,0-.587.587V57.4a1.763,1.763,0,0,1-1.761,1.761H2.935A1.763,1.763,0,0,1,1.174,57.4v-15.3a1.763,1.763,0,0,1,1.761-1.761H8.147a.587.587,0,0,0,0-1.174H2.935A2.938,2.938,0,0,0,0,42.107v15.3A2.938,2.938,0,0,0,2.935,60.34H19.407a2.938,2.938,0,0,0,2.935-2.935V52.193a.587.587,0,0,0-.587-.587Zm0,0" transform="translate(0 -36.888)" fill="#b7b7b7"/>
  <path id="Path_4007" data-name="Path 4007" d="M123.948,1.034a2.642,2.642,0,0,0-3.736,0L109.739,11.508a.587.587,0,0,0-.151.258l-1.377,4.972a.587.587,0,0,0,.722.723l4.972-1.377a.587.587,0,0,0,.258-.151L124.637,5.459a2.645,2.645,0,0,0,0-3.736Zm-12.93,10.855,8.571-8.572,2.764,2.764-8.572,8.572ZM110.466,13l2.208,2.209-3.055.846Zm13.341-8.368-.623.623L120.42,2.487l.623-.623a1.467,1.467,0,0,1,2.075,0l.689.689A1.47,1.47,0,0,1,123.807,4.629Zm0,0" transform="translate(-101.839 -0.261)" fill="#b7b7b7"/>
</svg>
