<svg xmlns="http://www.w3.org/2000/svg" width="23.288" height="23.315" viewBox="0 0 23.288 23.315">
  <g id="noun_Store_1665156" transform="translate(-38.376 -38.327)">
    <path id="Path_4028" data-name="Path 4028" d="M20.933,43.135H42.119a1.059,1.059,0,0,0,1.059-1.059V29.366a.9.9,0,0,0-.035-.178,3.478,3.478,0,0,0,.035-.352V25.1a.99.99,0,0,0-.039-.209,1.2,1.2,0,0,0-.058-.2s0,0,0-.031L40.964,20.4a1.063,1.063,0,0,0-.947-.584H23.051a1.063,1.063,0,0,0-.947.584l-2.118,4.251v.031a.854.854,0,0,0-.054.2.8.8,0,0,0-.043.209v3.741a3.479,3.479,0,0,0,.035.352.962.962,0,0,0-.035.178V42.076a1.059,1.059,0,0,0,1.044,1.059Zm9.534-2.118V35.735h2.118v5.283Zm4.251,0V34.66A1.059,1.059,0,0,0,33.66,33.6H29.409A1.059,1.059,0,0,0,28.35,34.66v6.357H21.992V32.171a3.664,3.664,0,0,0,1.588.386,3.706,3.706,0,0,0,2.651-1.121,3.687,3.687,0,0,0,5.295,0,3.687,3.687,0,0,0,5.295,0,3.706,3.706,0,0,0,2.651,1.121,3.664,3.664,0,0,0,1.588-.386v8.846Zm-9.55-12.181a1.588,1.588,0,0,1-3.177,0V26.189h3.177Zm2.106-2.647h3.177v2.647a1.588,1.588,0,0,1-3.177,0Zm5.295,0h3.208v2.647a1.588,1.588,0,0,1-3.177,0Zm5.3,0h3.177v2.647a1.588,1.588,0,0,1-3.177,0ZM23.693,21.938H39.345l1.071,2.129H22.638Z" transform="translate(18.486 18.507)" fill="#c9c9c9"/>
  </g>
</svg>
