<svg id="noun_Map_3695098" xmlns="http://www.w3.org/2000/svg" width="21.546" height="22.392" viewBox="0 0 21.546 22.392">
  <path id="Path_4058" data-name="Path 4058" d="M27.373,17.594a.432.432,0,0,0,.293.111.425.425,0,0,0,.293-.111c.2-.173,4.753-4.264,4.753-7.728a5.047,5.047,0,1,0-10.093,0C22.62,13.33,27.178,17.421,27.373,17.594Zm-2-7.728a2.29,2.29,0,1,1,2.29,2.285A2.289,2.289,0,0,1,25.377,9.867Z" transform="translate(-15.128 -4.82)" fill="#fff"/>
  <path id="Path_4059" data-name="Path 4059" d="M22.261,42.09l-.431,5.6,5.54-2.81Z" transform="translate(-14.689 -25.518)" fill="#fff"/>
  <path id="Path_4060" data-name="Path 4060" d="M26.941,31.722A21.746,21.746,0,0,1,24.4,29.01l-1.094.414-.116,1.5-.222,2.908,5.358,2.93-.72-4.718A1.29,1.29,0,0,1,26.941,31.722Z" transform="translate(-15.322 -18.254)" fill="#fff"/>
  <path id="Path_4061" data-name="Path 4061" d="M35.747,31.471a1.131,1.131,0,0,1-.227.165l.791,4.82L41.9,33.019l-.934-3.308a.442.442,0,0,0-.28-.307l-2.237-.854A22.97,22.97,0,0,1,35.747,31.471Z" transform="translate(-22.292 -17.999)" fill="#fff"/>
  <path id="Path_4062" data-name="Path 4062" d="M44.582,47.077a.434.434,0,0,0,.2.044.488.488,0,0,0,.3-.111.474.474,0,0,0,.147-.485L43.572,40.67,38.05,44.049Z" transform="translate(-23.697 -24.73)" fill="#fff"/>
  <path id="Path_4063" data-name="Path 4063" d="M12.816,29.183l.116-1.476L8.823,26.026a.449.449,0,0,0-.378.013.493.493,0,0,0-.249.293L5.96,34.274l6.634-2.183Z" transform="translate(-5.876 -16.577)" fill="#fff"/>
  <path id="Path_4064" data-name="Path 4064" d="M11.968,47.684l.44-5.714L5.77,44.158a.432.432,0,0,0,.133.12Z" transform="translate(-5.77 -25.452)" fill="#fff"/>
</svg>
