<svg xmlns="http://www.w3.org/2000/svg" width="18.453" height="18.453" viewBox="0 0 18.453 18.453">
  <g id="logout_1_" data-name="logout (1)" transform="translate(0 -0.008)">
    <path id="Path_856" data-name="Path 856" d="M285.213,209.161h-7.3a.577.577,0,1,1,0-1.153h7.3a.577.577,0,0,1,0,1.153Zm0,0" transform="translate(-267.337 -200.504)" fill="#585858"/>
    <path id="Path_857" data-name="Path 857" d="M400.58,134.891a.577.577,0,0,1-.408-.985l2.476-2.476-2.476-2.476a.577.577,0,1,1,.816-.816l2.883,2.883a.577.577,0,0,1,0,.816l-2.883,2.883A.573.573,0,0,1,400.58,134.891Zm0,0" transform="translate(-385.588 -123.35)" fill="#585858"/>
    <path id="Path_858" data-name="Path 858" d="M6.151,18.461a1.584,1.584,0,0,1-.477-.072L1.047,16.848A1.552,1.552,0,0,1,0,15.385V1.546A1.539,1.539,0,0,1,1.537.008,1.586,1.586,0,0,1,2.014.08L6.641,1.621A1.552,1.552,0,0,1,7.688,3.083v13.84a1.539,1.539,0,0,1-1.538,1.538ZM1.537,1.161a.386.386,0,0,0-.384.384v13.84a.4.4,0,0,0,.267.371l4.605,1.535a.418.418,0,0,0,.125.017.385.385,0,0,0,.384-.384V3.083a.4.4,0,0,0-.267-.371L1.663,1.178a.417.417,0,0,0-.125-.017Zm0,0" transform="translate(0 0)" fill="#585858"/>
    <path id="Path_859" data-name="Path 859" d="M37.432,6.159a.577.577,0,0,1-.577-.577V2.122a.962.962,0,0,0-.961-.961h-8.65a.577.577,0,1,1,0-1.153h8.65a2.116,2.116,0,0,1,2.114,2.114v3.46A.577.577,0,0,1,37.432,6.159Zm0,0" transform="translate(-25.707)" fill="#585858"/>
    <path id="Path_860" data-name="Path 860" d="M184.984,283.491h-3.076a.577.577,0,1,1,0-1.153h3.076a.962.962,0,0,0,.961-.961v-3.46a.577.577,0,1,1,1.153,0v3.46A2.116,2.116,0,0,1,184.984,283.491Zm0,0" transform="translate(-174.797 -267.337)" fill="#585858"/>
  </g>
</svg>
