<svg xmlns="http://www.w3.org/2000/svg" width="18.53" height="22.211" viewBox="0 0 18.53 22.211">
  <g id="user" transform="translate(0 0)">
    <path id="Path_11" data-name="Path 11" d="M92.381,10.7a5.176,5.176,0,0,0,3.783-1.567,5.176,5.176,0,0,0,1.567-3.782,5.177,5.177,0,0,0-1.567-3.782,5.348,5.348,0,0,0-7.565,0,5.176,5.176,0,0,0-1.567,3.782A5.176,5.176,0,0,0,88.6,9.132,5.177,5.177,0,0,0,92.381,10.7Zm0,0" transform="translate(-83.256 0)" fill="#b1b1b1"/>
    <path id="Path_12" data-name="Path 12" d="M18.485,253.667a13.215,13.215,0,0,0-.18-1.4,11.058,11.058,0,0,0-.345-1.411,6.969,6.969,0,0,0-.58-1.316,4.965,4.965,0,0,0-.875-1.14,3.857,3.857,0,0,0-1.256-.789,4.343,4.343,0,0,0-1.6-.29,1.628,1.628,0,0,0-.869.369c-.261.17-.565.367-.906.584a5.189,5.189,0,0,1-1.172.516,4.551,4.551,0,0,1-2.867,0,5.175,5.175,0,0,1-1.171-.516c-.337-.215-.642-.412-.907-.584a1.626,1.626,0,0,0-.869-.369,4.337,4.337,0,0,0-1.6.291,3.853,3.853,0,0,0-1.257.789,4.967,4.967,0,0,0-.874,1.14,6.983,6.983,0,0,0-.58,1.316,11.084,11.084,0,0,0-.345,1.411,13.167,13.167,0,0,0-.18,1.4c-.029.425-.044.866-.044,1.312a3.688,3.688,0,0,0,1.1,2.79,3.943,3.943,0,0,0,2.823,1.03H14.612a3.942,3.942,0,0,0,2.822-1.03,3.686,3.686,0,0,0,1.1-2.79c0-.447-.015-.889-.045-1.312Zm0,0" transform="translate(0 -236.588)" fill="#b1b1b1"/>
  </g>
</svg>
