<svg id="profile-user_1_" data-name="profile-user (1)" xmlns="http://www.w3.org/2000/svg" width="40.468" height="40.466" viewBox="0 0 40.468 40.466">
  <path id="Path_852" data-name="Path 852" d="M20.234,0A20.233,20.233,0,1,0,40.468,20.234,20.234,20.234,0,0,0,20.234,0Zm0,6.05a6.692,6.692,0,1,1-6.692,6.692A6.693,6.693,0,0,1,20.234,6.051Zm0,29.126a14.849,14.849,0,0,1-9.67-3.566,2.852,2.852,0,0,1-1-2.168A6.749,6.749,0,0,1,16.341,22.7h7.787A6.74,6.74,0,0,1,30.9,29.443a2.845,2.845,0,0,1-1,2.167A14.844,14.844,0,0,1,20.229,35.177Z" transform="translate(0 -0.001)" fill="#a4a4a4"/>
</svg>
